# Alias OBJ Model File
# Exported from SketchUp, (c) 2000-2012 Trimble Navigation Limited
# File units = meters

mtllib P21.mtl

g Mesh1 Group1 Model

usemtl FrontColor
v -4.23 2.9 -2.67481
vt -11.811 188.976
vn -1 0 -0
v -4.23 -1.9 -2.37481
vt -3.63798e-12 0
v -4.23 2.9 -2.37481
vt -3.63798e-12 188.976
f 1/1/1 2/2/1 3/3/1

v -4.23 -1.9 -2.67481
vt -11.811 0
f 2/2/1 1/1/1 4/4/1

vt 0 188.976
vn 0 0 -1
v -4.08 -1.9 -2.67481
vt -5.90551 0
vt 0 0
f 1/5/2 5/6/2 4/7/2

v -4.08 0.65 -2.67481
vt -5.90551 100.394
f 5/6/2 1/5/2 6/8/2

v -4.08 2.9 -2.67481
vt -5.90551 188.976
f 6/8/2 1/5/2 7/9/2

vt 0 11.811
vn 0 1 -0
v -4.08 2.9 -2.37481
vt 5.90551 3.63798e-12
vt 5.90551 11.811
f 1/10/3 8/11/3 7/12/3

vt 0 3.63798e-12
f 8/11/3 1/10/3 3/13/3

vt 6.67782e-26 188.976
vn 1.83558e-14 -1.11216e-14 1
v -4.08 0.65 -2.37481
vt 5.90551 100.394
vt 5.90551 188.976
f 3/14/4 9/15/4 8/16/4

vt 6.67782e-26 -4.04603e-26
f 2/17/4 9/15/4 3/14/4

v -2.23 -1.6 -2.37481
vt 78.7402 11.811
f 9/15/4 2/17/4 10/18/4

v -0.95 -1.6 -2.37481
vt 129.134 11.811
f 10/18/4 2/17/4 11/19/4

v -0.05 -1.9 -2.37481
vt 164.567 -5.23822e-26
f 12/20/4 11/19/4 2/17/4

v 0.15 2.9 -2.37481
vt 172.441 188.976
f 12/20/4 13/21/4 11/19/4

v 0.15 -1.9 -2.37481
vt 172.441 -5.33035e-26
f 13/21/4 12/20/4 14/22/4

vt -164.567 7.7307e-12
vn -8.39141e-16 -1 1.66609e-14
v -1.15506e-13 -1.9 -2.52481
vt -166.535 5.90551
vt -172.441 7.95808e-12
f 12/23/5 15/24/5 14/25/5

v -4.08 -1.9 -2.52481
vt -5.90551 5.90551
f 12/23/5 16/26/5 15/24/5

f 2/13/5 16/26/5 12/23/5

vt -5.90551 11.811
f 2/13/5 5/27/5 16/26/5

f 5/27/5 2/13/5 4/10/5

vt 11.811 -2.67498e-14
vn 1 4.52964e-15 -0
v -4.08 0.65 -2.52481
vt 5.90551 -2.67498e-14
f 5/28/6 17/15/6 16/29/6

vt 11.811 100.394
f 17/15/6 5/28/6 6/30/6

vt 11.811 188.976
vn 1 -5.13359e-15 -1.70476e-30
f 7/31/7 17/15/7 6/30/7

vt 3.63798e-12 188.976
f 8/32/7 17/15/7 7/31/7

vt 3.63798e-12 100.394
f 17/15/7 8/32/7 9/33/7

v -2.38 0.65 -2.37481
vt 72.8346 -2.56064e-28
vn 4.4164e-14 1 -2.5506e-30
vt 5.90551 5.90551
f 18/34/8 17/35/8 9/11/8

v -2.38 0.65 -2.52481
vt 72.8346 5.90551
f 17/35/8 18/34/8 19/36/8

vt 0 100.394
vn -1 5.13359e-15 -0
v -2.38 2.9 -2.52481
f 18/37/9 20/9/9 19/8/9

v -2.38 2.9 -2.37481
f 20/9/9 18/37/9 21/5/9

vt 72.8346 100.394
vt 72.8346 188.976
f 18/38/4 13/21/4 21/39/4

v -2.23 0.5 -2.37481
vt 78.7402 94.4882
f 22/40/4 13/21/4 18/38/4

v -0.95 0.5 -2.37481
vt 129.134 94.4882
f 23/41/4 13/21/4 22/40/4

f 11/19/4 13/21/4 23/41/4

v -0.95 0.5 -2.52481
vt -5.90551 94.4882
vn -1 0 -2.04435e-14
vt -6.84636e-12 11.811
vt -6.84636e-12 94.4882
f 24/42/10 11/43/10 23/44/10

v -0.95 -1.6 -2.52481
f 11/43/10 24/42/10 25/27/10

v -1.15506e-13 2.9 -2.52481
vt -166.535 188.976
vn 1.2526e-14 1.22794e-14 -1
vt -129.134 11.811
vt -129.134 94.4882
f 26/45/11 25/46/11 24/47/11

vt -166.535 -7.25163e-14
f 25/46/11 26/45/11 15/48/11

v -1.15506e-13 2.9 -2.67481
vn -1 -3.43361e-56 3.5672e-42
vt -5.90551 -5.71817e-54
f 27/1/12 15/49/12 26/9/12

v -1.15506e-13 -1.9 -2.67481
vt -11.811 -3.41061e-13
f 15/49/12 27/1/12 28/50/12

vn -3.5672e-42 9.62549e-15 -1
v 0.15 -1.9 -2.67481
vt -172.441 -4.54747e-13
vt -166.535 -4.54747e-13
f 27/45/13 29/51/13 28/52/13

v 0.15 2.9 -2.67481
vt -172.441 188.976
f 29/51/13 27/45/13 30/53/13

vt 166.535 11.811
vn -1.33281e-14 1 3.87364e-15
vt 172.441 6.87112e-12
vt 172.441 11.811
f 27/54/14 13/55/14 30/56/14

vt 166.535 5.90551
f 26/57/14 13/55/14 27/54/14

f 20/36/14 13/55/14 26/57/14

vt 72.8346 7.32027e-13
f 13/55/14 20/36/14 21/58/14

vt -72.8346 100.394
vt -72.8346 188.976
f 26/45/11 19/59/11 20/60/11

f 26/45/11 24/47/11 19/59/11

f 24/47/11 17/8/11 19/59/11

v -2.23 0.5 -2.52481
vt -78.7402 94.4882
f 31/61/11 17/8/11 24/47/11

v -2.23 -1.6 -2.52481
vt -78.7402 11.811
f 32/62/11 17/8/11 31/61/11

vt -5.90551 -7.25163e-14
f 32/62/11 16/63/11 17/8/11

f 16/63/11 32/62/11 15/48/11

f 15/48/11 32/62/11 25/46/11

vt 78.7402 5.90551
vn 1.27772e-15 1 1.10006e-14
vt 129.134 4.33634e-12
vt 129.134 5.90551
f 32/64/15 11/65/15 25/66/15

vt 78.7402 6.04164e-12
f 11/65/15 32/64/15 10/67/15

vt 5.90551 94.4882
vn 1 9.35047e-14 2.04435e-14
vt 7.52144e-12 11.811
f 31/68/16 10/69/16 32/12/16

vt 5.70245e-12 94.4882
f 10/69/16 31/68/16 22/70/16

vt -78.7402 5.90551
vn 0 -1 -1.10006e-14
vt -129.134 5.24584e-12
vt -78.7402 5.13215e-12
f 31/71/17 23/72/17 22/73/17

vt -129.134 5.90551
f 23/72/17 31/71/17 24/74/17

f 9/15/4 10/18/4 22/40/4

f 9/15/4 22/40/4 18/38/4

vt 7.95808e-12 0
vn 1 0 -0
vt 6.13909e-12 188.976
f 14/75/18 30/31/18 13/76/18

vt 11.811 -3.41061e-13
f 30/31/18 14/75/18 29/77/18

vt -172.441 11.811
f 14/25/5 15/24/5 29/78/5

vt -166.535 11.811
f 29/78/5 15/24/5 28/79/5

