# Alias OBJ Model File
# Exported from SketchUp, (c) 2000-2012 Trimble Navigation Limited
# File units = meters

mtllib P5.mtl

g Mesh1 Group1 Model

usemtl Color_B06
v -0.95 0.65 2.07568
vt 87.1868 5.90551
vn 0 -5.57102e-15 1
v -3.16454 0.5 2.07568
vt 1.81899e-12 0
v -0.95 0.5 2.07568
vt 87.1868 0
f 1/1/1 2/2/1 3/3/1

v -3.16454 0.65 2.07568
vt 1.81899e-12 5.90551
f 2/2/1 1/1/1 4/4/1

vt 87.1868 3.28997e-14
vn -1.66638e-31 1 5.57102e-15
v -3.16454 0.65 -1.23432
vt 1.81899e-12 130.315
vt 1.81899e-12 3.28997e-14
f 1/5/2 5/6/2 4/7/2

v -0.95 0.65 -1.23432
vt 87.1868 130.315
f 5/6/2 1/5/2 6/8/2

vt 8.09392e-44 5.90551
vn 1 1.66638e-31 9.28342e-46
v -0.95 0.5 -1.23432
vt 130.315 5.11591e-13
vt 130.315 5.90551
f 1/9/3 7/10/3 6/11/3

vt 8.09392e-44 -1.45286e-29
f 7/10/3 1/9/3 3/12/3

vt -1.81899e-12 -1.68865e-57
vn 1.66638e-31 -1 -5.57102e-15
vt -87.1868 130.315
vt -87.1868 -8.09392e-44
f 2/13/4 7/14/4 3/15/4

v -3.16454 0.5 -1.23432
vt -1.81899e-12 130.315
f 7/14/4 2/13/4 8/16/4

vt -1.68865e-57 -3.03112e-43
vn -1 -1.66638e-31 -9.28342e-46
vt -130.315 5.90551
vt -130.315 5.11591e-13
f 2/17/5 5/18/5 8/19/5

vt -1.68865e-57 5.90551
f 5/18/5 2/17/5 4/20/5

vt -1.81899e-12 5.90551
vn 0 5.57102e-15 -1
vt -87.1868 -2.14397e-13
vt -1.81899e-12 -2.14397e-13
f 5/21/6 7/22/6 8/23/6

vt -87.1868 5.90551
f 7/22/6 5/21/6 6/24/6

g Mesh2 Group1 Model

v -2.23 2.9 0.520677
vt 36.7931 61.2205
vn 0 1 -0
v -3.16454 2.9 0.370677
vt 0 67.126
v -3.16454 2.9 0.520677
vt 0 61.2205
f 9/25/7 10/26/7 11/27/7

v -2.23 2.9 0.370677
vt 36.7931 67.126
f 10/26/7 9/25/7 12/28/7

v -2.08 2.9 1.92568
vt 42.6986 5.90551
f 9/25/7 13/29/7 12/28/7

v -2.23 2.9 1.92568
vt 36.7931 5.90551
f 14/30/7 13/29/7 9/25/7

v -1.1 2.9 2.07568
vt 81.2813 0
f 14/30/7 15/31/7 13/29/7

v -3.16454 2.9 1.92568
vt 0 5.90551
f 16/32/7 15/31/7 14/30/7

v -3.16454 2.9 2.07568
vt 0 0
f 15/31/7 16/32/7 17/33/7

vt -5.90551 94.4882
vn -1 0 -0
v -3.16454 2.55 2.07568
vt 0 80.7087
vt 0 94.4882
f 16/34/8 18/35/8 17/36/8

v -3.16454 2.55 1.92568
vt -5.90551 80.7087
f 18/35/8 16/34/8 19/37/8

vt 3.46701e-13 94.4882
vn 5.8708e-14 0 -1
v -2.23 2.55 1.92568
vt -36.7931 80.7087
vt 3.46701e-13 80.7087
f 16/38/9 20/39/9 19/40/9

vt -36.7931 94.4882
f 20/39/9 16/38/9 14/41/9

vt -61.2205 94.4882
f 9/42/8 20/37/8 14/34/8

v -2.23 2.55 0.520677
vt -61.2205 80.7087
f 20/37/8 9/42/8 21/43/8

vt 36.7931 94.4882
vn 0 0 1
v -3.16454 2.55 0.520677
vt 36.7931 80.7087
f 9/44/10 22/35/10 21/45/10

f 22/35/10 9/44/10 11/36/10

vt -67.126 94.4882
f 10/46/8 22/43/8 11/42/8

v -3.16454 2.55 0.370677
vt -67.126 80.7087
f 22/43/8 10/46/8 23/47/8

vn 0 0 -1
v -2.23 2.55 0.370677
f 10/36/11 24/39/11 23/35/11

f 24/39/11 10/36/11 12/41/11

v -2.23 2.9 -1.23432
vt -130.315 94.4882
f 25/48/8 24/47/8 12/46/8

v -2.23 2.55 -1.23432
vt -130.315 80.7087
f 24/47/8 25/48/8 26/49/8

v -2.08 2.55 -1.23432
vt -42.6986 80.7087
f 25/41/11 27/50/11 26/39/11

v -2.08 2.9 -1.23432
vt -42.6986 94.4882
f 27/50/11 25/41/11 28/51/11

vt 42.6986 130.315
vt 36.7931 130.315
f 13/29/7 28/52/7 25/53/7

v -2.08 2.9 0.520677
vt 42.6986 61.2205
f 28/52/7 13/29/7 29/54/7

vt 5.90551 94.4882
vn 1 0 -0
v -2.08 2.55 0.520677
vt 61.2205 80.7087
vt 61.2205 94.4882
f 13/55/12 30/56/12 29/57/12

v -2.08 2.55 1.92568
vt 5.90551 80.7087
f 30/56/12 13/55/12 31/58/12

vn -5.5985e-14 0 -1
v -1.1 2.55 1.92568
vt -81.2813 80.7087
f 13/51/13 32/59/13 31/50/13

v -1.1 2.9 1.92568
vt -81.2813 94.4882
f 32/59/13 13/51/13 33/60/13

vt 81.2813 5.90551
f 13/29/7 15/31/7 33/61/7

f 15/36/12 32/58/12 33/55/12

v -1.1 2.55 2.07568
f 32/58/12 15/36/12 34/35/12

vt 81.2813 94.4882
vt 81.2813 80.7087
f 15/62/10 18/35/10 34/63/10

f 18/35/10 15/62/10 17/36/10

vn 0 -1 -0
vt -36.7931 5.90551
vt -81.2813 0
f 18/33/14 20/64/14 34/65/14

f 20/64/14 18/33/14 19/32/14

vt -42.6986 5.90551
f 34/65/14 20/64/14 31/66/14

vt -42.6986 130.315
f 20/64/14 27/67/14 31/66/14

vt -36.7931 61.2205
f 21/68/14 27/67/14 20/64/14

vt -36.7931 67.126
f 24/69/14 27/67/14 21/68/14

vt -36.7931 130.315
f 27/67/14 24/69/14 26/70/14

f 22/27/14 24/69/14 21/68/14

f 24/69/14 22/27/14 23/26/14

v -2.08 2.55 0.370677
vt -42.6986 67.126
f 31/66/14 27/67/14 35/71/14

vt 130.315 80.7087
v -2.08 2.9 0.370677
vt 67.126 94.4882
vt 67.126 80.7087
f 27/72/12 36/73/12 35/74/12

vt 130.315 94.4882
f 36/73/12 27/72/12 28/75/12

vt 42.6986 67.126
f 28/52/7 29/54/7 36/76/7

v -1.1 2.9 0.520677
vt 81.2813 61.2205
f 37/77/7 36/76/7 29/54/7

v -1.1 2.9 0.370677
vt 81.2813 67.126
f 36/76/7 37/77/7 38/78/7

v -1.1 2.55 0.370677
f 37/57/12 39/74/12 38/73/12

v -1.1 2.55 0.520677
f 39/74/12 37/57/12 40/56/12

vt 42.6986 80.7087
f 37/62/10 30/79/10 40/63/10

vt 42.6986 94.4882
f 30/79/10 37/62/10 29/80/10

vt -42.6986 61.2205
vt -81.2813 67.126
vt -81.2813 61.2205
f 30/81/14 39/82/14 40/83/14

f 39/82/14 30/81/14 35/71/14

f 31/66/14 35/71/14 30/81/14

f 36/51/11 39/59/11 35/50/11

f 39/59/11 36/51/11 38/60/11

vt -81.2813 5.90551
f 34/65/14 31/66/14 32/84/14

f 12/28/7 13/29/7 25/53/7

