# Alias OBJ Model File
# Exported from SketchUp, (c) 2000-2012 Trimble Navigation Limited
# File units = millimeters

mtllib P9.mtl

g Mesh1 Group2 Group1 Model

usemtl FrontColor
v -6112.95 3629.58 -17496.9
vt -246.529 24.4719
vn -1 0 -0
v -6112.95 3008 -11235.1
vt 0 0
v -6112.95 3629.58 -11235.1
vt 0 24.4719
f 1/1/1 2/2/1 3/3/1

v -6112.95 3008 -17496.9
vt -246.529 0
f 2/2/1 1/1/1 4/4/1

vn 0 0 -1
v 9714.92 3008 -17496.9
vt -623.144 0
f 1/3/2 5/5/2 4/2/2

v 9714.92 3629.58 -17496.9
vt -623.144 24.4719
f 5/5/2 1/3/2 6/6/2

vt 0 246.529
vn 0 1 -0
v 9714.92 3629.58 -11235.1
vt 623.144 0
vt 623.144 246.529
f 1/7/3 7/8/3 6/9/3

f 7/8/3 1/7/3 3/2/3

vn 0 0 1
vt 623.144 24.4719
f 2/2/4 7/10/4 3/3/4

v 9714.92 3008 -11235.1
f 7/10/4 2/2/4 8/8/4

vn 0 -1 -0
vt -623.144 246.529
f 2/2/5 5/11/5 8/5/5

f 5/11/5 2/2/5 4/7/5

vt 246.529 0
vn 1 0 -0
f 5/12/6 7/3/6 8/2/6

vt 246.529 24.4719
f 7/3/6 5/12/6 6/13/6

g Mesh2 Group3 Group1 Model

v 9714.92 2.16573e-12 -12534
vt -39.9094 51.1378
v 8701.22 2.16573e-12 -12204.1
vt 0 38.1516
v 8701.22 2.16573e-12 -12534
vt 0 51.1378
f 9/14/5 10/15/5 11/16/5

v 8911.22 2.16573e-12 -12204.1
vt -8.26772 38.1516
f 10/15/5 9/14/5 12/17/5

v 8911.22 2.16573e-12 -11564.9
vt -8.26772 12.9862
f 12/17/5 9/14/5 13/18/5

v 9714.92 2.16573e-12 -11235.1
vt -39.9094 0
f 14/19/5 13/18/5 9/14/5

v 8701.22 2.16573e-12 -11235.1
f 15/2/5 13/18/5 14/19/5

v 8701.22 2.16573e-12 -11564.9
vt 0 12.9862
f 13/18/5 15/2/5 16/20/5

v 8701.22 3008 -11564.9
vt -12.9862 118.425
vt -12.9862 0
f 15/2/1 17/21/1 16/22/1

v 8701.22 3008 -11235.1
vt 0 118.425
f 17/21/1 15/2/1 18/23/1

vt 39.9094 118.425
f 15/2/4 8/24/4 18/23/4

vt 39.9094 0
f 8/24/4 15/2/4 14/25/4

vt 51.1378 0
f 9/26/6 8/23/6 14/2/6

v 9714.92 3008 -12534
vt 51.1378 118.425
f 8/23/6 9/26/6 19/27/6

v 8701.22 3008 -12534
vt -39.9094 118.425
f 9/19/2 20/23/2 19/28/2

f 20/23/2 9/19/2 11/2/2

vt -38.1516 0
vt -51.1378 118.425
vt -51.1378 0
f 10/29/1 20/30/1 11/31/1

v 8701.22 3008 -12204.1
vt -38.1516 118.425
f 20/30/1 10/29/1 21/32/1

v 8911.22 3008 -12204.1
vt 8.26772 118.425
f 10/2/4 22/33/4 21/23/4

vt 8.26772 0
f 22/33/4 10/2/4 12/34/4

f 13/22/1 22/32/1 12/29/1

v 8911.22 3008 -11564.9
f 22/32/1 13/22/1 23/21/1

vt -8.26772 0
vt -8.26772 118.425
f 13/35/2 17/23/2 23/36/2

f 17/23/2 13/35/2 16/2/2

vt 8.26772 12.9862
f 17/20/3 8/25/3 23/37/3

f 8/25/3 17/20/3 18/2/3

vt 8.26772 38.1516
f 23/37/3 8/25/3 22/38/3

vt 39.9094 51.1378
f 19/39/3 22/38/3 8/25/3

f 20/16/3 22/38/3 19/39/3

f 22/38/3 20/16/3 21/15/3

g Mesh3 Group4 Group1 Model

v 9714.92 2.16573e-12 -11235.1
vt 631.018 3.88968e-13
vn -1.62883e-13 1 -4.00794e-13
v -6312.95 -5.22131e-09 -17754.2
vt 2.47182e-12 256.659
v -6312.95 2.16573e-12 -11235.1
vt 2.24445e-12 3.88968e-13
f 24/40/7 25/41/7 26/42/7

v 9714.92 0 -17754.2
vt 631.018 256.659
f 25/41/7 24/40/7 27/43/7

vt 5.91172e-12 13.7795
vn 1 1.62883e-13 -5.41116e-29
v 9714.92 -350 -17754.2
vt 256.659 1.02783e-10
vt 256.659 13.7795
f 24/44/8 28/45/8 27/46/8

v 9714.92 -350 -11235.1
vt -3.41454e-26 1.02869e-10
f 28/45/8 24/44/8 29/47/8

vt 631.018 13.7795
vn 0 4.00794e-13 1
v -6312.95 -350 -11235.1
vt 2.72848e-12 2.05651e-10
vt 631.018 2.05651e-10
f 24/48/9 30/49/9 29/50/9

vt 0 13.7795
f 30/49/9 24/48/9 26/51/9

vt -5.91172e-12 13.7795
vn -1 -1.62883e-13 -8.85898e-16
v -6312.95 -350 -17754.2
vt -256.659 -4.44423e-25
vt -2.41716e-27 2.05651e-10
f 26/52/10 31/53/10 30/54/10

vt -256.659 13.7795
f 31/53/10 26/52/10 25/55/10

vt -2.27374e-13 13.7795
vn 1.30565e-25 -4.00794e-13 -1
vt -631.018 3.08433e-10
vt -2.95586e-12 1.02867e-10
f 25/56/11 28/57/11 31/58/11

vt -631.018 13.7795
f 28/57/11 25/56/11 27/59/11

vt -631.018 -4.12291e-23
vn 1.62883e-13 -1 4.00794e-13
vt -2.95586e-12 256.659
vt -631.018 256.659
f 29/60/12 31/61/12 28/62/12

vt -2.72848e-12 -8.24235e-23
f 31/61/12 29/60/12 30/63/12

