# Alias OBJ Model File
# Exported from SketchUp, (c) 2000-2012 Trimble Navigation Limited
# File units = millimeters

mtllib P12.mtl

g Mesh1 Group1 Model

usemtl FrontColor
v -6112.95 2.83249e-14 -11735.1
vt -4.66929 19.685
vn 9.011e-15 -1 2.13741e-15
v -6231.55 2.83249e-14 -11235.1
vt -4.54747e-13 8.75852e-42
v -6231.55 2.83249e-14 -11735.1
vt -4.54747e-13 19.685
f 1/1/1 2/2/1 3/3/1

v -6112.95 2.16573e-12 -11235.1
vt -4.66929 -8.99315e-29
f 2/2/1 1/1/1 4/4/1

vt 19.685 -4.2075e-14
vn 1 9.011e-15 -3.85204e-29
v -6112.95 3008 -11235.1
vt -1.79863e-28 118.425
vt -1.79863e-28 4.2075e-14
f 1/5/2 5/6/2 4/7/2

v -6112.95 3008 -11735.1
vt 19.685 118.425
f 5/6/2 1/5/2 6/8/2

vt -4.66929 4.2075e-14
vn 0 -2.13741e-15 -1
v -6231.55 3008 -11735.1
vt 0 118.425
vt -4.66929 118.425
f 1/9/3 7/10/3 6/11/3

vt -4.54747e-13 4.2075e-14
f 7/10/3 1/9/3 3/12/3

vt 0 -4.09773e-27
vn -1 -9.011e-15 -0
vt -19.685 118.425
vt -19.685 -4.09773e-27
f 2/13/4 7/14/4 3/15/4

v -6231.55 3008 -11235.1
f 7/14/4 2/13/4 8/10/4

vt 4.66929 8.415e-14
vn -3.85204e-29 2.13741e-15 1
vt 4.54747e-13 3.74411e-56
f 4/16/5 8/10/5 2/17/5

vt 4.66929 118.425
f 8/10/5 4/16/5 5/18/5

vt 4.66929 -2.53123e-13
vn -9.011e-15 1 -2.13741e-15
vt 1.06713e-12 19.685
vt 1.06713e-12 -2.53123e-13
f 5/19/6 7/20/6 8/21/6

vt 4.66929 19.685
f 7/20/6 5/19/6 6/22/6

