# Alias OBJ Model File
# Exported from SketchUp, (c) 2000-2012 Trimble Navigation Limited
# File units = millimeters

mtllib P21T.mtl

g Mesh1 Group2 Group1 Model

usemtl Translucent_Glass_Gray
v -6062.95 6637.58 -17754.2
vt -256.659 118.425
vn -1 1.34399e-14 -6.15372e-15
v -6062.95 3629.58 -11285.1
vt 0 0
v -6062.95 6637.58 -11285.1
vt -1.97401e-26 118.425
f 1/1/1 2/2/1 3/3/1

v -6062.95 3629.58 -17754.2
vt -256.659 2.13911e-26
f 2/2/1 1/1/1 4/4/1

g Mesh2 Group3 Group1 Model

v -6062.95 6637.58 -11285.1
vt 0 118.425
vn -5.86671e-16 2.87997e-15 -1
v 8603.13 3629.58 -11285.1
vt -579.373 -9.82243e-28
v -6062.95 3629.58 -11285.1
f 5/5/2 6/6/2 7/2/2

v 8603.13 6637.58 -11285.1
vt -579.373 118.425
f 6/6/2 5/5/2 8/7/2

