# Alias OBJ Model File
# Exported from SketchUp, (c) 2000-2012 Trimble Navigation Limited
# File units = meters

mtllib P1.mtl

g Mesh1 Group1 Model

usemtl Color_A04
v -3.16454 2.65 1.17568
vt -82.6772 35.4331
vn 4.15686e-16 -1 -4.386e-16
v -3.16454 2.65 1.92568
vt -82.6772 5.90551
v -3.31454 2.65 1.92568
vt -76.7717 5.90551
v -3.31454 2.65 2.07568
vt -76.7717 3.71256e-14
v -5.11454 2.65 2.07568
vt -5.90551 3.71256e-14
v -5.11454 2.65 1.92568
vt -5.90551 5.90551
v -5.26454 2.65 1.92568
vt -9.44681e-13 5.90551
v -5.26454 2.65 1.47568
vt -9.44681e-13 23.622
v -5.11454 2.65 1.47568
vt -5.90551 23.622
v -5.11454 2.65 0.620677
vt -5.90551 57.2835
v -3.81454 2.65 0.620677
vt -57.0866 57.2835
v -3.81454 2.65 0.220677
vt -57.0866 73.0315
v -5.11454 2.65 0.220677
vt -5.90551 73.0315
v -5.11454 2.65 -1.08432
vt -5.90551 124.409
v -3.31454 2.65 -1.08432
vt -76.7717 124.409
v -3.31454 2.65 1.17568
vt -76.7717 35.4331
f 1/1/1 2/2/1 3/3/1 4/4/1 5/5/1 6/6/1 7/7/1 8/8/1 9/9/1 10/10/1 11/11/1 12/12/1 13/13/1 14/14/1 15/15/1 16/16/1 

v -3.16454 2.9 -1.23432
vt 130.315 94.4882
vn 1 0 -0
vt 5.90551 84.6457
vt 35.4331 84.6457
f 17/17/2 2/18/2 1/19/2

v -3.16454 2.9 2.07568
vt 0 94.4882
f 18/20/2 2/18/2 17/17/2

v -3.16454 0.65 1.92568
vt 5.90551 5.90551
f 2/18/2 18/20/2 19/21/2

v -3.16454 0.5 2.07568
vt 0 0
f 20/22/2 19/21/2 18/20/2

v -3.16454 0.5 -1.23432
vt 130.315 0
f 19/21/2 20/22/2 21/23/2

vt -82.6772 9.74499e-28
vn -1.40007e-14 -1 -8.41872e-16
v -5.26454 0.5 2.07568
v -5.26454 0.5 0.520677
vt 0 61.2205
v -3.91454 0.5 0.520677
vt -53.1496 61.2205
v -3.91454 0.5 0.320677
vt -53.1496 69.0945
v -5.26454 0.5 0.320677
vt 5.09343e-26 69.0945
v -5.26454 0.5 -1.23432
vt 0 130.315
vt -82.6772 130.315
f 20/24/3 22/22/3 23/25/3 24/26/3 25/27/3 26/28/3 27/29/3 21/30/3 

vt 82.6772 0
vn 0 0 1
v -3.31454 0.65 2.07568
vt 76.7717 5.90551
f 20/31/4 28/32/4 22/22/4

vt 82.6772 94.4882
f 28/32/4 20/31/4 18/33/4

vt 76.7717 84.6457
f 28/32/4 18/33/4 4/34/4

f 4/34/4 18/33/4 5/18/4

v -5.26454 2.9 2.07568
f 29/20/4 5/18/4 18/33/4

v -5.11454 0.65 2.07568
f 29/20/4 30/21/4 5/18/4

f 22/22/4 30/21/4 29/20/4

f 30/21/4 22/22/4 28/32/4

v -5.11454 0.65 0.220677
vt 5.90551 73.0315
vn -2.88241e-16 1 2.87139e-16
v -3.91454 0.65 0.220677
vt 53.1496 73.0315
v -3.81454 0.65 0.220677
vt 57.0866 73.0315
v -3.81454 0.65 0.620677
vt 57.0866 57.2835
v -5.11454 0.65 0.620677
vt 5.90551 57.2835
v -5.11454 0.65 1.47568
vt 5.90551 23.622
v -5.26454 0.65 1.47568
vt 9.11197e-13 23.622
v -5.26454 0.65 1.92568
vt 9.11197e-13 5.90551
v -5.11454 0.65 1.92568
vt 5.90551 1.6957e-15
vt 76.7717 1.6957e-15
v -3.31454 0.65 1.92568
vt 82.6772 5.90551
v -3.16454 0.65 1.17568
vt 82.6772 35.4331
v -3.31454 0.65 1.17568
vt 76.7717 35.4331
v -3.31454 0.65 -1.08432
vt 76.7717 124.409
v -5.11454 0.65 -1.08432
vt 5.90551 124.409
f 31/35/5 32/36/5 33/37/5 34/38/5 35/39/5 36/40/5 37/41/5 38/42/5 39/21/5 30/43/5 28/44/5 40/32/5 19/45/5 41/46/5 42/47/5 43/48/5 44/49/5 

vt -57.0866 5.90551
vn 5.40379e-14 1.11401e-14 -1
vt -53.1496 5.90551
vt -5.90551 84.6457
vt -57.0866 84.6457
f 33/50/6 32/51/6 31/6/6 13/52/6 12/53/6 

vt 124.409 5.90551
vt 124.409 84.6457
vt 73.0315 84.6457
vt 73.0315 5.90551
f 44/54/2 14/55/2 13/56/2 31/57/2 

f 43/32/4 15/34/4 14/18/4 44/21/4 

vt -35.4331 5.90551
vn -1 0 -0
vt -35.4331 84.6457
vt -124.409 84.6457
vt -124.409 5.90551
f 42/58/7 16/59/7 15/60/7 43/61/7 

vt 82.6772 84.6457
f 42/32/4 41/45/4 1/62/4 16/34/4 

vt 35.4331 5.90551
f 41/63/2 21/23/2 1/19/2

f 19/21/2 21/23/2 41/63/2

f 17/17/2 1/19/2 21/23/2

vt -82.6772 0
vn 0 0 -1
v -5.26454 2.9 -1.23432
vt -5.18412e-11 94.4882
vt -82.6772 94.4882
f 21/64/8 27/22/8 45/65/8 17/66/8 

vt -69.0945 3.63798e-12
vn -1 5.57522e-13 -1.56452e-14
v -5.26454 2.9 0.320677
vt -69.0945 94.4882
vt -130.315 94.4882
vt -130.315 -1.13668e-24
f 26/67/9 46/68/9 45/69/9 27/70/9 

vt 53.1496 3.5535e-12
vn 3.95196e-17 -1.22264e-15 1
v -3.91454 0.65 0.320677
vt 53.1496 5.90551
v -3.91454 2.9 0.320677
vt 53.1496 94.4882
vt 5.18439e-11 94.4882
vt 2.73058e-15 3.5535e-12
f 25/71/10 47/72/10 48/73/10 46/74/10 26/75/10 

v -3.91454 0.65 0.520677
vt -61.2205 5.90551
vt -69.0945 5.90551
vt -61.2205 0
f 49/76/7 47/77/7 25/67/7 24/78/7 

vn -1 -2.73792e-14 5.9403e-13
v -3.91454 2.9 0.520677
vt -61.2205 94.4882
f 49/76/11 50/79/11 48/68/11 47/77/11 

v -5.26454 2.9 0.520677
vt -53.1496 94.4882
vt -53.1496 0
f 51/20/8 50/80/8 49/51/8 24/81/8 23/22/8 

vt -2.7192e-14 2.77204e-14
vn 2.87782e-16 1 2.93374e-16
vt 82.6772 2.77204e-14
vt 82.6772 130.315
vt 5.1814e-11 130.315
vt 5.1814e-11 69.0945
vt 53.1496 69.0945
vt 53.1496 61.2205
vt -2.7192e-14 61.2205
f 29/82/12 18/83/12 17/84/12 45/85/12 46/86/12 48/87/12 50/88/12 51/89/12 

f 7/52/7 29/20/7 51/79/7

f 29/20/7 7/52/7 22/22/7

f 38/6/7 22/22/7 7/52/7

f 22/22/7 38/6/7 23/78/7

vt -23.622 5.90551
f 23/78/7 38/6/7 37/90/7

f 23/78/7 37/90/7 51/79/7

vt -23.622 84.6457
f 8/91/7 51/79/7 37/90/7

f 7/52/7 51/79/7 8/91/7

vt 9.09495e-13 84.6457
vt 9.09495e-13 5.90551
f 36/21/4 9/18/4 8/92/4 37/93/4 

vt 57.2835 84.6457
vt 23.622 84.6457
vt 23.622 5.90551
vt 57.2835 5.90551
f 10/94/2 9/95/2 36/96/2 35/97/2 

vn -5.10891e-14 1.33043e-30 1
vt 57.0866 5.90551
vt 57.0866 84.6457
f 10/18/13 35/21/13 34/98/13 11/99/13 

vn 1 4.57276e-14 9.14421e-13
f 33/57/14 12/56/14 11/94/14 34/97/14 

vt -9.09495e-13 5.90551
vt -9.09495e-13 84.6457
f 6/52/8 39/6/8 38/100/8 7/101/8 

vt 0 5.90551
vt 0 84.6457
f 30/102/2 39/21/2 6/18/2 5/103/2 

f 40/6/7 28/102/7 4/103/7 3/52/7 

vt -76.7717 84.6457
vt -82.6772 84.6457
f 19/2/8 40/3/8 3/104/8 2/105/8 

