# Alias OBJ Model File
# Exported from SketchUp, (c) 2000-2012 Trimble Navigation Limited
# File units = meters

mtllib P10.mtl

g Mesh1 Group1 Model

usemtl FrontColor
v 2.74447 2.95 0.00188734
vt 108.05 90.5512
vn 0 -2.97553e-13 1
v 1.89406 0.65 0.00188734
vt 74.5694 -3.28011e-11
v 2.74447 0.65 0.00188734
vt 108.05 -3.28011e-11
f 1/1/1 2/2/1 3/3/1

v 1.89406 2.95 0.00188734
vt 74.5694 90.5512
f 2/2/1 1/1/1 4/4/1

v 3.34447 2.95 2.65189
vt -131.672 5.90551
vn 5.76801e-16 -1 4.18089e-14
vt -74.5694 110.236
vt -108.05 110.236
f 5/5/2 4/6/2 1/7/2

v 1.79406 2.95 2.40189
vt -70.6324 15.748
f 5/5/2 6/8/2 4/6/2

v 1.79406 2.95 2.65189
vt -70.6324 5.90551
f 6/8/2 5/5/2 7/9/2

vt -131.672 90.5512
vn -3.91126e-14 -6.77969e-14 -1
v 1.79406 0.65 2.65189
vt -70.6324 1.01774e-11
vt -70.6324 90.5512
f 5/10/3 8/11/3 7/12/3

v 3.34447 0.65 2.65189
vt -131.672 4.57837e-12
f 8/11/3 5/10/3 9/13/3

v 3.34447 3.2 2.80189
vt 8.29914e-12 100.394
vn 1 0 -0
vt 5.90551 4.17799e-12
vt 5.90551 90.5512
f 10/14/4 9/15/4 5/16/4

v 3.34447 0.65 2.80189
vt 0 4.86011e-12
f 9/15/4 10/14/4 11/17/4

vt 131.672 100.394
vn -1.01506e-13 4.1333e-14 1
v 1.79406 0.65 2.80189
vt 70.6324 9.77707e-12
vt 131.672 4.86011e-12
f 10/18/5 12/19/5 11/20/5

v 1.79406 3.2 2.80189
vt 70.6324 100.394
f 12/19/5 10/18/5 13/21/5

v 3.34447 3.2 -0.148113
vt 131.672 116.142
vn -4.97807e-31 1 -2.30033e-14
vt 70.6324 8.03612e-12
vt 131.672 5.98975e-12
f 14/22/6 13/23/6 10/24/6

v 1.79406 3.2 1.15189
vt 70.6324 64.9606
f 14/22/6 15/25/6 13/23/6

v 1.59406 3.2 1.15189
vt 62.7584 64.9606
f 14/22/6 16/26/6 15/25/6

v -3.46517e-14 3.2 -0.148113
vt 4.99766e-29 116.142
f 17/27/6 16/26/6 14/22/6

v 1.59406 3.2 2.40189
vt 62.7584 15.748
f 16/26/6 17/27/6 18/28/6

v 1.59406 3.2 2.80189
vt 62.7584 8.49087e-12
f 17/27/6 19/29/6 18/28/6

v -3.46517e-14 3.2 2.80189
vt 4.99766e-29 5.98975e-12
f 19/29/6 17/27/6 20/30/6

v -3.46517e-14 0.65 2.65189
vt -5.90551 4.17799e-12
vn -1 0 -0
vt -8.29914e-12 100.394
vt -116.142 100.394
f 21/31/7 20/32/7 17/33/7

v -3.46517e-14 0.65 2.80189
f 20/32/7 21/31/7 22/17/7

v 0.15 0.65 2.65189
vt -5.90551 5.90551
vn 6.66015e-14 -1 -1.67152e-13
vt -3.23691e-25 8.12376e-25
vt -2.7826e-25 5.90551
f 23/34/8 22/35/8 21/36/8

v 1.59406 0.65 2.80189
vt -62.7584 1.08002e-11
f 22/35/8 23/34/8 24/37/8

v 1.59406 0.65 2.65189
vt -62.7584 5.90551
f 24/37/8 23/34/8 25/38/8

v 0.15 2.95 2.65189
vt -5.90551 90.5512
vn 9.99834e-14 -2.63655e-14 -1
vt -62.7584 9.93277e-12
vt -5.90551 9.42118e-12
f 26/39/9 25/40/9 23/41/9

v 1.59406 2.95 2.65189
vt -62.7584 90.5512
f 25/40/9 26/39/9 27/42/9

v 1.59406 2.95 1.15189
vt -62.7584 64.9606
f 26/34/2 28/43/2 27/38/2

v 1.69406 2.95 0.00188734
vt -66.6954 110.236
f 26/34/2 29/44/2 28/43/2

v 0.15 2.95 0.00188734
vt -5.90551 110.236
f 29/44/2 26/34/2 30/45/2

v 0.15 0.65 0.00188734
vt 110.236 5.40012e-12
vt 110.236 90.5512
f 26/16/4 31/46/4 30/47/4

vt 5.90551 9.26548e-12
f 31/46/4 26/16/4 23/48/4

vt -1.79963e-24 5.90551
vn 4.3074e-13 -1 1.26675e-14
f 21/49/10 31/45/10 23/34/10

v -3.46517e-14 0.65 0.00188734
vt -2.32605e-24 110.236
f 31/45/10 21/49/10 32/50/10

vt -110.236 5.40012e-12
f 21/31/7 17/33/7 32/51/7

v -3.46517e-14 0.65 -0.148113
vt -116.142 1.81899e-12
f 32/51/7 17/33/7 33/52/7

v 1.69406 2.95 -0.148113
vt -66.6954 90.5512
vn 1.08375e-13 2.13557e-13 -1
vt 1.25868e-11 -2.29839e-11
vt 1.25868e-11 100.394
f 34/53/11 33/54/11 17/55/11

v 1.69406 0.65 -0.148113
vt -66.6954 -2.30407e-11
f 33/54/11 34/53/11 35/56/11

vt 116.142 90.5512
v 1.69406 0.65 0.00188734
vt 110.236 0
vt 116.142 1.76215e-12
f 34/57/4 36/58/4 35/59/4

f 36/58/4 34/57/4 29/47/4

v 1.89406 2.95 -0.148113
vt -74.5694 116.142
vt -66.6954 116.142
f 37/60/2 29/44/2 34/61/2

v 1.79406 2.95 1.15189
vt -70.6324 64.9606
f 29/44/2 37/60/2 38/62/2

v 1.79406 2.95 2.15189
vt -70.6324 25.5906
f 38/62/2 37/60/2 39/63/2

f 39/63/2 37/60/2 6/8/2

f 4/6/2 6/8/2 37/60/2

vt -116.142 90.5512
vt -110.236 0
vt -110.236 90.5512
f 37/64/7 2/65/7 4/66/7

v 1.89406 0.65 -0.148113
vt -116.142 1.76215e-12
f 2/65/7 37/64/7 40/67/7

v 2.74447 2.95 -0.148113
vt -108.05 90.5512
vt -74.5694 -2.30407e-11
vt -74.5694 90.5512
f 41/68/11 40/69/11 37/70/11

v 2.74447 0.65 -0.148113
vt -108.05 -2.30692e-11
f 40/69/11 41/68/11 42/71/11

vt 116.142 1.73372e-12
f 41/57/4 3/58/4 42/72/4

f 3/58/4 41/57/4 1/47/4

v 3.14447 2.95 -0.148113
vt -123.798 116.142
vt -108.05 116.142
f 43/73/2 1/7/2 41/74/2

v 3.14447 2.95 0.00188734
vt -123.798 110.236
f 44/75/2 1/7/2 43/73/2

f 5/5/2 1/7/2 44/75/2

v 3.34447 2.95 0.00188734
vt -131.672 110.236
f 5/5/2 44/75/2 45/76/2

v 3.14447 0.65 0.00188734
vt 123.798 -3.28011e-11
vt 131.672 90.5512
vt 123.798 90.5512
f 46/77/1 45/78/1 44/79/1

v 3.34447 0.65 0.00188734
vt 131.672 -3.28011e-11
f 45/78/1 46/77/1 47/80/1

vn 5.41434e-15 -1 -3.00796e-13
v 3.34447 0.65 -0.148113
vt -131.672 116.142
f 46/75/12 48/81/12 47/76/12

v 3.14447 0.65 -0.148113
f 48/81/12 46/75/12 49/73/12

vt -116.142 1.73372e-12
f 46/65/7 43/64/7 49/82/7

f 43/64/7 46/65/7 44/66/7

vt -123.798 90.5512
vt -131.672 -2.29839e-11
vt -123.798 -2.30692e-11
f 43/83/11 48/84/11 49/85/11

vt -131.672 100.394
f 48/84/11 43/83/11 14/86/11

f 14/86/11 43/83/11 37/70/11

f 41/68/11 37/70/11 43/83/11

f 14/86/11 37/70/11 17/55/11

f 34/53/11 17/55/11 37/70/11

vt 116.142 100.394
vt 116.142 1.81899e-12
f 14/87/4 47/58/4 48/88/4

f 14/87/4 45/47/4 47/58/4

f 14/87/4 5/16/4 45/47/4

f 10/14/4 5/16/4 14/87/4

vn -4.24449e-16 -1 -2.95984e-13
f 2/6/13 42/74/13 3/7/13

f 42/74/13 2/6/13 40/60/13

v 1.59406 2.95 2.40189
vt -62.7584 15.748
f 50/89/2 39/63/2 6/8/2

v 1.59406 2.95 2.15189
vt -62.7584 25.5906
f 50/89/2 51/90/2 39/63/2

f 50/89/2 28/43/2 51/90/2

f 28/43/2 50/89/2 27/38/2

vt 15.748 100.394
vn 1 -2.95341e-27 -3.08016e-13
vt 15.748 90.5512
f 18/91/14 27/16/14 50/92/14

vt -8.53031e-12 100.394
f 19/93/14 27/16/14 18/91/14

vt 5.90551 9.77707e-12
f 19/93/14 25/94/14 27/16/14

vt -8.53031e-12 9.77707e-12
f 25/94/14 19/93/14 24/95/14

vt 8.79483e-25 100.394
vn 1.05973e-13 4.1333e-14 1
vt 62.7584 9.77707e-12
vt 62.7584 100.394
f 20/96/15 24/97/15 19/98/15

f 24/97/15 20/96/15 22/17/15

vt 62.7584 90.5512
vn -4.33147e-14 -4.15821e-13 1
v 1.79406 3.2 2.40189
f 50/99/16 52/21/16 18/98/16

vt 70.6324 90.5512
f 52/21/16 50/99/16 6/100/16

vn -1 3.1216e-27 3.08016e-13
vt -15.748 100.394
vt -15.748 90.5512
f 7/39/17 52/101/17 6/102/17

vt 1.14104e-11 100.394
f 7/39/17 13/103/17 52/101/17

vt 1.14104e-11 9.77707e-12
f 13/103/17 7/39/17 12/104/17

vt -5.90551 9.77707e-12
f 12/104/17 7/39/17 8/105/17

vn -8.61408e-14 -1 5.77529e-14
vt -70.6324 1.03455e-11
f 9/5/18 12/106/18 8/9/18

vt -131.672 -9.35739e-25
f 12/106/18 9/5/18 11/107/18

v 1.79406 3.2 2.15189
vt 70.6324 25.5906
vt 70.6324 15.748
f 53/108/6 52/109/6 13/23/6

v 1.59406 3.2 2.15189
vt 62.7584 25.5906
f 54/110/6 52/109/6 53/108/6

f 52/109/6 54/110/6 18/28/6

f 16/26/6 18/28/6 54/110/6

vt 25.5906 100.394
vt 64.9606 90.5512
vt 64.9606 100.394
f 54/111/4 28/112/4 16/113/4

vt 25.5906 90.5512
f 28/112/4 54/111/4 51/114/4

vt -62.7584 100.394
vn 0 0 -1
f 54/115/19 39/12/19 51/42/19

vt -70.6324 100.394
f 39/12/19 54/115/19 53/116/19

vt -64.9606 100.394
vt -25.5906 90.5512
vt -25.5906 100.394
f 15/117/7 39/118/7 53/119/7

vt -64.9606 90.5512
f 39/118/7 15/117/7 38/120/7

vn 0 0 1
f 15/21/20 28/99/20 38/100/20

f 28/99/20 15/21/20 16/98/20

f 28/43/2 29/44/2 38/62/2

f 53/108/6 13/23/6 15/25/6

vt 66.6954 90.5512
vn 2.2816e-13 -1.44382e-13 1
vt 5.90551 -1.0516e-11
vt 66.6954 -1.59162e-11
f 29/121/21 31/122/21 36/123/21

f 31/122/21 29/121/21 30/16/21

vn -4.67392e-14 -1 2.34014e-13
f 31/45/22 35/61/22 36/44/22

vt 2.52398e-25 110.236
f 32/124/22 35/61/22 31/45/22

vt 8.50182e-26 116.142
f 35/61/22 32/124/22 33/125/22

