# Alias OBJ Model File
# Exported from SketchUp, (c) 2000-2012 Trimble Navigation Limited
# File units = meters

mtllib P11.mtl

g Mesh1 Group1 Model

usemtl FrontColor
v 3.3871 -1.9 -2.52481
vt -133.351 253.019
vn -2.6484e-16 -1 -2.20136e-16
v 0 -1.9 3.90189
vt 0 0
v 0 -1.9 -2.52481
vt 1.50544e-29 253.019
f 1/1/1 2/2/1 3/3/1

v 3.3871 -1.9 3.90189
vt -133.351 7.77445e-30
f 2/2/1 1/1/1 4/4/1

vt 253.019 -4.83797e-13
vn 1 3.62801e-15 -2.15506e-16
v 3.3871 -1.6 3.80189
vt 3.93701 11.811
vt -2.87379e-14 -4.83797e-13
f 1/5/2 5/6/2 4/7/2

v 3.3871 -1.6 2.80189
vt 43.3071 11.811
f 5/6/2 1/5/2 6/8/2

v 3.3871 -1.6 1.83567
vt 81.3472 11.811
f 6/8/2 1/5/2 7/9/2

v 3.3871 -1.6 -2.52481
vt 253.019 11.811
f 7/9/2 1/5/2 8/10/2

vt 2.37428e-29 1.14462e-15
vn 9.38377e-32 2.20136e-16 -1
vt -133.351 11.811
vt -133.351 -5.56988e-14
f 3/11/3 8/12/3 1/13/3

v 0 -1.6 -2.52481
vt 2.37428e-29 11.811
f 8/12/3 3/11/3 9/14/3

vt -253.019 5.68434e-14
vn -1 6.32503e-14 -7.54546e-15
v 0 -1.6 3.80189
vt -3.93701 11.811
vt -253.019 11.811
f 3/15/4 10/16/4 9/17/4

f 2/2/4 10/16/4 3/15/4

v 0 0.5 3.80189
vt -3.93701 94.4882
f 10/16/4 2/2/4 11/18/4

v 2.0791e-13 0.65 3.90189
vt 1.7053e-12 100.394
f 12/19/4 11/18/4 2/2/4

v 2.0791e-13 0.65 1.83567
vt -81.3472 100.394
f 11/18/4 12/19/4 13/20/4

v 1.59406 0.65 3.90189
vt 62.7584 -3.04729e-13
vn -1.44382e-14 1 1.4943e-15
vt 9.63496e-12 81.3472
vt 9.63496e-12 -1.55528e-12
f 14/21/5 13/22/5 12/23/5

v 1.59406 0.65 2.80189
vt 62.7584 43.3071
f 13/22/5 14/21/5 15/24/5

vt -4.54747e-13 100.394
vn 1 0 -0
v 1.59406 0.5 3.80189
vt 3.93701 94.4882
vt 43.3071 100.394
f 14/25/6 16/26/6 15/27/6

v 1.59406 -1.6 3.90189
vt 0 11.811
f 16/26/6 14/25/6 17/28/6

vt 8.18545e-12 100.394
vn -7.29337e-17 -8.76398e-15 1
vt 62.7584 11.811
vt 62.7584 100.394
f 12/29/7 17/30/7 14/31/7

f 2/2/7 17/30/7 12/29/7

v 3.18669 -1.6 3.90189
vt 125.46 11.811
f 17/30/7 2/2/7 18/32/7

vt 133.351 -8.52363e-29
f 4/33/7 18/32/7 2/2/7

v 3.3871 0.65 3.90189
vt 133.351 100.394
f 18/32/7 4/33/7 19/34/7

v 3.3871 0.5 3.80189
vt -1.73404e-12 100.394
f 20/26/2 19/35/2 4/7/2

v 3.3871 0.65 1.83567
vt 81.3472 100.394
f 19/35/2 20/26/2 21/36/2

v 3.3871 0.5 2.80189
vt 43.3071 94.4882
f 21/36/2 20/26/2 22/37/2

v 3.2871 0.5 3.80189
vt -129.414 3.93701
vn -2.31163e-15 -1 1.43796e-14
vt -133.351 43.3071
vt -133.351 3.93701
f 23/38/8 22/39/8 20/40/8

v 3.2871 0.5 2.80189
vt -129.414 43.3071
f 23/38/8 24/41/8 22/39/8

v 3.2871 0.5 1.83567
vt -129.414 81.3472
f 23/38/8 25/42/8 24/41/8

v 3.18669 0.5 3.80189
vt -125.46 3.93701
f 26/43/8 25/42/8 23/38/8

v 2.69406 0.5 3.90189
vt -106.065 -1.3587e-12
f 27/44/8 25/42/8 26/43/8

v 2.69406 0.5 3.80189
vt -106.065 3.93701
f 28/45/8 25/42/8 27/44/8

v 1.79406 0.5 3.80189
vt -70.6324 3.93701
f 29/46/8 25/42/8 28/45/8

v 1.79406 0.5 2.80189
vt -70.6324 43.3071
f 30/47/8 25/42/8 29/46/8

v 1.59406 0.5 2.80189
vt -62.7584 43.3071
f 31/48/8 25/42/8 30/47/8

v 2.0791e-13 0.5 1.83567
vt -7.96703e-12 81.3472
f 25/42/8 31/48/8 32/49/8

vt -62.7584 3.93701
f 16/50/8 32/49/8 31/48/8

vt 2.18421e-13 3.93701
f 32/49/8 16/50/8 11/51/8

v 1.59406 -1.6 3.80189
vt -62.7584 11.811
vn 0 0 -1
vt 0 94.4882
vt -62.7584 94.4882
f 33/52/9 11/53/9 16/54/9

f 11/53/9 33/52/9 10/28/9

vt 62.7584 3.93701
vn 8.12224e-18 1 1.4257e-16
vt -9.5932e-17 253.019
vt -9.5932e-17 3.93701
f 33/55/10 9/56/10 10/57/10

vt 133.351 253.019
f 9/56/10 33/55/10 8/58/10

v 1.79406 -1.6 3.80189
vt 70.6324 3.93701
f 8/58/10 33/55/10 34/59/10

v 1.79406 -1.6 3.90189
vt 70.6324 1.6839e-15
f 34/59/10 33/55/10 35/60/10

vt 62.7584 1.6839e-15
f 35/60/10 33/55/10 17/61/10

f 16/26/6 17/28/6 33/6/6

v 2.69406 -1.6 3.90189
vt 106.065 11.811
vt 70.6324 11.811
f 17/30/7 36/62/7 35/63/7

f 17/30/7 18/32/7 36/62/7

vt 125.46 1.6839e-15
v 2.69406 -1.6 3.80189
vt 106.065 3.93701
vt 106.065 1.6839e-15
f 18/64/10 37/65/10 36/66/10

v 3.18669 -1.6 3.80189
vt 125.46 3.93701
f 38/67/10 37/65/10 18/64/10

f 8/58/10 37/65/10 38/67/10

f 8/58/10 34/59/10 37/65/10

vt -70.6324 94.4882
vt -106.065 11.811
vt -70.6324 11.811
f 29/68/9 37/69/9 34/70/9

vt -106.065 94.4882
f 37/69/9 29/68/9 28/71/9

f 27/53/6 37/6/6 28/26/6

f 37/6/6 27/53/6 36/28/6

vt 106.065 94.4882
f 27/72/7 35/63/7 36/62/7

v 1.79406 0.65 3.90189
vt 70.6324 100.394
f 35/63/7 27/72/7 39/73/7

f 39/73/7 27/72/7 19/34/7

v 3.18669 0.5 3.90189
vt 125.46 94.4882
f 40/74/7 19/34/7 27/72/7

f 18/32/7 19/34/7 40/74/7

vn -1 0 -0
f 26/18/11 18/28/11 40/53/11

f 18/28/11 26/18/11 38/16/11

vt -125.46 94.4882
vt -125.46 11.811
f 26/75/9 5/12/9 38/76/9

vt -129.414 94.4882
f 5/12/9 26/75/9 23/77/9

vt -133.351 94.4882
f 20/78/9 5/12/9 23/77/9

f 20/26/2 4/7/2 5/6/2

vt 133.351 3.93701
v 3.2871 -1.6 2.80189
vt 129.414 43.3071
f 5/79/10 41/80/10 38/67/10

vt 133.351 43.3071
f 41/80/10 5/79/10 6/81/10

vt 133.351 94.4882
vn -4.33147e-14 4.81274e-15 1
vt 129.414 11.811
vt 133.351 11.811
f 22/82/12 41/83/12 6/84/12

vt 129.414 94.4882
f 41/83/12 22/82/12 24/85/12

vt -43.3071 94.4882
vn -1 -5.50028e-15 5.98853e-31
v 3.2871 -1.6 1.83567
vt -81.3472 11.811
vt -43.3071 11.811
f 24/86/13 42/87/13 41/88/13

vt -81.3472 94.4882
f 42/87/13 24/86/13 25/89/13

vn 4.27729e-14 -1.64755e-15 -1
vt -129.414 11.811
f 25/77/14 7/12/14 42/90/14

vt -133.351 100.394
f 7/12/14 25/77/14 21/91/14

vt -4.706e-12 100.394
f 21/91/14 25/77/14 13/92/14

vt -4.706e-12 94.4882
f 13/92/14 25/77/14 32/93/14

f 11/18/4 13/20/4 32/89/4

vt 133.351 81.3472
f 13/22/5 15/24/5 21/94/5

v 1.79406 0.65 2.80189
vt 70.6324 43.3071
f 21/94/5 15/24/5 43/95/5

vn -2.16573e-14 -1.0588e-13 1
vt 70.6324 94.4882
f 15/31/15 30/96/15 43/73/15

vt 62.7584 94.4882
f 30/96/15 15/31/15 31/97/15

f 15/27/6 16/26/6 31/37/6

vt -43.3071 100.394
f 29/18/11 43/98/11 30/86/11

vt 7.95808e-13 100.394
f 29/18/11 39/99/11 43/98/11

f 39/99/11 29/18/11 35/28/11

f 34/16/11 35/28/11 29/18/11

vt 133.351 -1.55528e-12
vt 70.6324 -6.45789e-13
f 19/100/5 43/95/5 39/101/5

f 21/94/5 43/95/5 19/100/5

f 21/36/2 22/37/2 7/9/2

f 6/8/2 7/9/2 22/37/2

vt 129.414 81.3472
f 8/58/10 42/102/10 7/94/10

f 8/58/10 38/67/10 42/102/10

f 42/102/10 38/67/10 41/80/10

vt -125.46 -1.3587e-12
f 40/103/8 27/44/8 26/43/8

