# Alias OBJ Model File
# Exported from SketchUp, (c) 2000-2012 Trimble Navigation Limited
# File units = meters

mtllib P13.mtl

g Mesh1 Group1 Model

usemtl FrontColor
v 0.15 2.75 -1.23432
vt 43.1579 -7.87402
vn 1 0 -0
v 0.15 3.2 -0.148113
vt 0.393701 9.84252
v 0.15 2.75 -0.148113
vt 0.393701 -7.87402
f 1/1/1 2/2/1 3/3/1

v 0.15 3.2 -1.23432
vt 43.1579 9.84252
f 2/2/1 1/1/1 4/4/1

vt -5.90551 -7.87402
vn 0 0 -1
v 4.65488e-12 3.2 -1.23432
vt 0 9.84252
vt -5.90551 9.84252
f 1/5/2 5/6/2 4/7/2

v 4.65488e-12 2.75 -1.23432
vt 0 -7.87402
f 5/6/2 1/5/2 6/8/2

vt -5.90551 43.1579
vn 0 -1 1.05009e-13
v 4.65488e-12 2.75 -0.148113
vt 0 0.393701
vt 0 43.1579
f 1/9/3 7/10/3 6/11/3

vt -5.90551 0.393701
f 7/10/3 1/9/3 3/12/3

vt 5.90551 9.84252
vn 0 0 1
vt 5.90551 -7.87402
f 2/13/4 7/8/4 3/14/4

v 4.65488e-12 3.2 -0.148113
f 7/8/4 2/13/4 8/6/4

vt 5.90551 0.393701
vn 0 1 -1.05009e-13
f 2/15/5 5/11/5 8/10/5

vt 5.90551 43.1579
f 5/11/5 2/15/5 4/16/5

vt -43.1579 -7.87402
vn -1 0 -0
vt -0.393701 9.84252
vt -43.1579 9.84252
f 6/17/6 8/18/6 5/19/6

vt -0.393701 -7.87402
f 8/18/6 6/17/6 7/20/6

g Mesh2 Group1 Model

v 1.69406 3.2 -0.148113
vt 66.6954 9.84252
v 1.54406 2.95 -0.148113
vt 60.7899 1.35856e-11
v 1.69406 2.95 -0.148113
vt 66.6954 1.35856e-11
f 9/21/4 10/22/4 11/23/4

v 1.54406 3.2 -0.148113
vt 60.7899 9.84252
f 10/22/4 9/21/4 12/24/4

vt 66.6954 0.393701
v 1.54406 3.2 -1.23432
vt 60.7899 43.1579
vt 60.7899 0.393701
f 9/25/5 13/26/5 12/27/5

v 1.69406 3.2 -1.23432
vt 66.6954 43.1579
f 13/26/5 9/25/5 14/28/5

v 1.69406 2.95 -1.23432
vt 43.1579 9.09495e-12
f 9/2/1 15/29/1 14/4/1

vt 0.393701 1.35856e-11
f 15/29/1 9/2/1 11/30/1

vt -60.7899 0.393701
vt -66.6954 43.1579
vt -66.6954 0.393701
f 10/31/3 15/32/3 11/33/3

v 1.54406 2.95 -1.23432
vt -60.7899 43.1579
f 15/32/3 10/31/3 16/34/3

vt -0.393701 1.35856e-11
vt -43.1579 9.09495e-12
f 10/35/6 13/19/6 16/36/6

f 13/19/6 10/35/6 12/18/6

vt -60.7899 9.84252
vt -66.6954 9.09495e-12
vt -60.7899 9.09495e-12
f 13/37/2 15/38/2 16/39/2

vt -66.6954 9.84252
f 15/38/2 13/37/2 14/40/2

g Mesh3 Group1 Model

v 3.34447 3.2 -0.148113
vt 131.672 9.84252
v 3.19447 2.95 -0.148113
vt 125.767 4.49063e-12
v 3.34447 2.95 -0.148113
vt 131.672 4.49063e-12
f 17/41/4 18/42/4 19/43/4

v 3.19447 3.2 -0.148113
vt 125.767 9.84252
f 18/42/4 17/41/4 20/44/4

vt 131.672 0.393701
v 3.19447 3.2 -1.23432
vt 125.767 43.1579
vt 125.767 0.393701
f 17/45/5 21/46/5 20/47/5

v 3.34447 3.2 -1.23432
vt 131.672 43.1579
f 21/46/5 17/45/5 22/48/5

v 3.34447 2.95 -1.23432
vt 43.1579 0
f 17/2/1 23/49/1 22/4/1

vt 0.393701 4.49063e-12
f 23/49/1 17/2/1 19/50/1

vt -125.767 0.393701
vt -131.672 43.1579
vt -131.672 0.393701
f 18/51/3 23/52/3 19/53/3

v 3.19447 2.95 -1.23432
vt -125.767 43.1579
f 23/52/3 18/51/3 24/54/3

vt -0.393701 4.49063e-12
vt -43.1579 0
f 18/55/6 21/19/6 24/56/6

f 21/19/6 18/55/6 20/18/6

vt -125.767 9.84252
vt -131.672 0
vt -125.767 0
f 21/57/2 23/58/2 24/59/2

vt -131.672 9.84252
f 23/58/2 21/57/2 22/60/2

