# Alias OBJ Model File
# Exported from SketchUp, (c) 2000-2012 Trimble Navigation Limited
# File units = meters

mtllib P14.mtl

g Mesh1 Group1 Model

usemtl FrontColor
v 2.06855 3.35 -1.23432
vt -149.457 106.299
vn -1 -6.73784e-14 8.18909e-15
v 2.06855 2.75 2.56189
vt 2.60678e-26 82.6772
v 2.06855 3.35 2.56189
vt 0 106.299
f 1/1/1 2/2/1 3/3/1

v 2.06855 2.75 -1.23432
vt -149.457 82.6772
f 2/2/1 1/1/1 4/4/1

vn 0 -1.9251e-14 -1
v 2.21855 2.75 -1.23432
vt -5.90551 82.6772
vt 0 82.6772
f 1/3/2 5/5/2 4/6/2

v 2.21855 3.35 -1.23432
vt -5.90551 106.299
f 5/5/2 1/3/2 6/7/2

vt 0 149.457
vn 0 1 -2.45384e-14
v 2.21855 3.35 2.56189
vt 5.90551 -2.60841e-12
vt 5.90551 149.457
f 1/8/3 7/9/3 6/10/3

vt 0 -2.60841e-12
f 7/9/3 1/8/3 3/11/3

vt 3.18323e-12 82.6772
vn 0 0 1
vt 5.90551 106.299
f 2/12/4 7/13/4 3/3/4

v 2.21855 2.75 2.56189
vt 5.90551 82.6772
f 7/13/4 2/12/4 8/14/4

vt -3.18323e-12 -4.83608e-14
vn 2.4926e-32 -1 5.84935e-16
vt -5.90551 149.457
vt -5.90551 -4.83608e-14
f 2/15/5 5/16/5 8/17/5

vt -2.06081e-30 149.457
f 5/16/5 2/15/5 4/18/5

vt 149.457 82.6772
vn 1 0 -0
f 5/19/6 7/3/6 8/6/6

vt 149.457 106.299
f 7/3/6 5/19/6 6/20/6

