# Alias OBJ Model File
# Exported from SketchUp, (c) 2000-2012 Trimble Navigation Limited
# File units = meters

mtllib P15.mtl

g Mesh1 Group1 Model

usemtl FrontColor
v 0.15 0.65 -1.23432
vt 160.021 124.016
vn 5.25151e-16 -8.32031e-15 1
v -0.95 2.55 -1.23432
vt 116.714 198.819
v -0.95 0.65 -1.23432
vt 116.714 124.016
f 1/1/1 2/2/1 3/3/1

v 0.15 2.65 -1.23432
vt 160.021 202.756
f 2/2/1 1/1/1 4/4/1

v 0.15 0.65 -1.38432
vt 13.7795 124.016
vn 1 1.20756e-13 -0
vt 7.87402 202.756
vt 7.87402 124.016
f 5/5/2 4/6/2 1/7/2

v 0.15 2.65 -1.38432
vt 13.7795 202.756
f 4/6/2 5/5/2 6/8/2

vt -160.021 124.016
vn -4.94308e-17 7.32295e-15 -1
v -0.95 2.55 -1.38432
vt -116.714 198.819
vt -160.021 202.756
f 5/9/3 7/10/3 6/11/3

v -0.95 0.65 -1.38432
vt -116.714 124.016
f 7/10/3 5/9/3 8/12/3

vt -160.021 13.7795
vn 1.20756e-13 -1 6.39285e-30
vt -116.714 7.87402
vt -116.714 13.7795
f 5/13/4 3/14/4 8/15/4

vt -160.021 7.87402
f 3/14/4 5/13/4 1/16/4

vt -7.87402 124.016
vn -1 -1.20756e-13 -0
vt -13.7795 198.819
vt -13.7795 124.016
f 3/17/5 7/18/5 8/19/5

vt -7.87402 198.819
f 7/18/5 3/17/5 2/20/5

v -2.08 2.55 -1.23432
vt -72.2262 7.87402
vn 1.20744e-13 -1 -4.81274e-15
f 9/21/6 7/15/6 2/14/6

v -2.08 2.55 -1.38432
vt -72.2262 13.7795
f 7/15/6 9/21/6 10/22/6

v -2.08 -1.6 -1.23432
vt 7.87402 35.4331
vn 1 1.26929e-14 1.13379e-28
vt 13.7795 198.819
vt 7.87402 198.819
f 11/23/7 10/24/7 9/25/7

v -2.08 -1.6 -1.38432
vt 13.7795 35.4331
f 10/24/7 11/23/7 12/26/7

v -3.76454 -1.6 -1.23432
vt -5.90551 7.87402
vn -5.54328e-14 -1 -3.80183e-15
f 13/27/8 12/22/8 11/21/8

v -3.91454 -1.6 -1.38432
vt -7.64331e-13 13.7795
f 13/27/8 14/28/8 12/22/8

v -3.91454 -1.6 -1.03432
vt -7.64331e-13 1.9537e-12
f 14/28/8 13/27/8 15/29/8

v -3.76454 -1.6 -1.03432
vt -5.90551 1.9537e-12
f 16/30/8 15/29/8 13/27/8

vt 5.90551 35.4331
vn 1.96789e-28 -8.88506e-15 1
v -3.91454 3.95 -1.03432
vt 0 253.937
vt 2.72848e-12 35.4331
f 16/31/9 17/32/9 15/33/9

v -3.76454 3.95 -1.03432
vt 5.90551 253.937
f 17/32/9 16/31/9 18/34/9

vt 1.81899e-12 35.4331
vn 1 1.57957e-14 -5.6443e-29
v -3.76454 3.95 -1.23432
vt 7.87402 253.937
vt -3.33325e-28 253.937
f 16/35/10 19/36/10 18/37/10

f 19/36/10 16/35/10 13/23/10

vt 72.2262 198.819
f 13/31/1 9/38/1 19/34/1

vt 72.2262 35.4331
f 9/38/1 13/31/1 11/39/1

f 19/34/1 9/38/1 2/2/1

f 19/34/1 2/2/1 4/4/1

v 4.29042 3.95 -1.23432
vt 323.03 253.937
f 4/4/1 20/40/1 19/34/1

v 3.3871 2.65 -1.23432
vt 287.466 202.756
f 21/41/1 20/40/1 4/4/1

v 3.3871 -1.9 -1.23432
vt 287.466 23.622
f 22/42/1 20/40/1 21/41/1

v 4.29042 -2.5 -1.23432
vt 323.03 7.32413e-12
f 22/42/1 23/43/1 20/40/1

v -0.75 -1.9 -1.23432
vt 124.588 23.622
f 24/44/1 23/43/1 22/42/1

v -0.75 -2.5 -1.23432
vt 124.588 1.69663e-12
f 23/43/1 24/44/1 25/45/1

v -0.75 -1.9 -1.38432
vt -13.7795 23.622
vn -1 0 -0
vt -7.87402 1.76215e-12
vt -7.87402 23.622
f 26/46/11 25/47/11 24/48/11

v -0.75 -2.5 -1.38432
vt -13.7795 1.81899e-12
f 25/47/11 26/46/11 27/49/11

vt -124.588 23.622
v 4.44042 -2.5 -1.38432
vt -328.936 7.45927e-12
vt -124.588 1.71808e-12
f 26/50/3 28/51/3 27/52/3

v 3.3871 -1.9 -1.38432
vt -287.466 23.622
f 28/51/3 26/50/3 29/53/3

vt 124.588 13.7795
vn -2.32241e-14 1 9.62549e-15
vt 287.466 7.87402
vt 287.466 13.7795
f 26/54/12 22/55/12 29/56/12

vt 124.588 7.87402
f 22/55/12 26/54/12 24/57/12

vn -1 -1.63067e-14 4.94761e-29
v 3.3871 2.65 -1.38432
vt -13.7795 202.756
f 22/48/13 30/58/13 29/46/13

vt -7.87402 202.756
f 30/58/13 22/48/13 21/59/13

vn -4.61634e-14 -1 -4.81274e-15
vt -287.466 13.7795
vt -287.466 7.87402
f 4/16/14 30/60/14 21/61/14

f 30/60/14 4/16/14 6/13/14

v 4.44042 3.95 -1.38432
vt -328.936 253.937
vt -287.466 202.756
f 31/62/3 30/63/3 6/11/3

f 31/62/3 29/53/3 30/63/3

f 28/51/3 29/53/3 31/62/3

vt 13.7795 253.937
vn 1 1.57957e-14 8.71702e-30
v 4.44042 -2.5 -1.03432
vt 2.16005e-12 2.30757e-12
vt 13.7795 2.36442e-12
f 31/64/15 32/65/15 28/66/15

v 4.44042 3.95 -1.03432
vt 2.86734e-27 253.937
f 32/65/15 31/64/15 33/67/15

vt 328.936 13.7795
vn -2.2467e-14 1 1.1054e-14
vt 323.03 7.87402
vt 328.936 2.80703e-12
f 31/68/16 20/69/16 33/70/16

vt 5.90551 7.87402
f 31/68/16 19/71/16 20/69/16

v -3.91454 3.95 -1.38432
vt 5.7052e-12 13.7795
f 34/72/16 19/71/16 31/68/16

vt 5.90551 2.80703e-12
f 34/72/16 18/73/16 19/71/16

vt 5.7052e-12 2.80703e-12
f 18/73/16 34/72/16 17/74/16

vt -13.7795 253.937
vn -1 -1.57957e-14 -5.49375e-28
vt -1.81899e-12 35.4331
f 34/75/17 15/76/17 17/32/17

vt -13.7795 35.4331
f 15/76/17 34/75/17 14/77/17

vt -72.2262 198.819
vt -2.72917e-12 35.4331
vt -6.81133e-16 253.937
f 10/78/3 14/79/3 34/80/3

vt -72.2262 35.4331
f 14/79/3 10/78/3 12/81/3

f 10/78/3 34/80/3 7/10/3

f 7/10/3 34/80/3 6/11/3

f 31/62/3 6/11/3 34/80/3

v 4.29042 3.95 -1.03432
vt 323.03 2.80703e-12
f 33/70/16 20/69/16 35/82/16

vt -7.87402 253.937
vn -1 -1.57957e-14 5.6443e-29
v 4.29042 -2.5 -1.03432
vt -2.16005e-12 2.23032e-12
vt 1.82328e-26 253.937
f 20/83/18 36/84/18 35/85/18

vt -7.87402 2.28717e-12
f 36/84/18 20/83/18 23/86/18

vt -323.03 7.87402
vn 2.23779e-14 -1 -5.5984e-15
vt -328.936 13.7795
vt -323.03 2.16005e-12
f 23/87/19 28/88/19 36/89/19

vt -124.588 7.87402
f 25/90/19 28/88/19 23/87/19

vt -124.588 13.7795
f 28/88/19 25/90/19 27/91/19

vt -328.936 2.16005e-12
f 36/89/19 28/88/19 32/92/19

vt 328.936 7.50333e-12
vt 323.03 7.3328e-12
f 32/93/9 35/40/9 36/94/9

vt 328.936 253.937
f 35/40/9 32/93/9 33/95/9

