# Alias OBJ Model File
# Exported from SketchUp, (c) 2000-2012 Trimble Navigation Limited
# File units = meters

mtllib P17.mtl

g Mesh1 Group1 Model

usemtl FrontColor
v 2.21855 2.9 -2.37481
vt 5.90551 0
vn 0 1 -0
v 2.06855 2.9 -2.67481
vt 0 11.811
v 2.06855 2.9 -2.37481
vt 0 0
f 1/1/1 2/2/1 3/3/1

v 2.21855 2.9 -2.67481
vt 5.90551 11.811
f 2/2/1 1/1/1 4/4/1

vt 0 88.5827
vn 1 0 -0
v 2.21855 0.65 -2.67481
vt 11.811 0
vt 11.811 88.5827
f 1/5/2 5/6/2 4/7/2

v 2.21855 0.65 -2.37481
f 5/6/2 1/5/2 6/3/2

vt 5.90551 88.5827
vn 0 0 1
v 2.06855 0.65 -2.37481
f 1/8/3 7/3/3 6/1/3

f 7/3/3 1/8/3 3/5/3

vt -11.811 88.5827
vn -1 0 -0
f 2/9/4 7/3/4 3/5/4

v 2.06855 0.65 -2.67481
vt -11.811 0
f 7/3/4 2/9/4 8/10/4

vn 0 0 -1
vt -5.90551 0
f 2/5/5 5/11/5 8/3/5

vt -5.90551 88.5827
f 5/11/5 2/5/5 4/12/5

vt -5.90551 11.811
vn 0 -1 -0
f 5/13/6 7/3/6 8/2/6

f 7/3/6 5/13/6 6/11/6

