# Alias OBJ Model File
# Exported from SketchUp, (c) 2000-2012 Trimble Navigation Limited
# File units = meters

mtllib P23.mtl

g Mesh1 Group1 Model

usemtl FrontColor
v -2.08 0.65 -2.52481
vt 13.7795 44.901
vn 0 1 -0
v -2.23 0.65 -3.31432
vt 7.87402 75.9843
v -2.23 0.65 -2.52481
vt 7.87402 44.901
f 1/1/1 2/2/1 3/3/1

v -2.08 0.65 -3.31432
vt 13.7795 75.9843
f 2/2/1 1/1/1 4/4/1

vt 44.901 100.394
vn 1 8.3232e-15 9.82295e-15
v -2.08 0.5 -3.31432
vt 75.9843 94.4882
vt 75.9843 100.394
f 1/5/2 5/6/2 4/7/2

v -2.08 0.5 -2.52481
vt 44.901 94.4882
f 5/6/2 1/5/2 6/8/2

vt 13.7795 100.394
vn 0 0 1
v -2.23 0.5 -2.52481
vt 7.87402 94.4882
vt 13.7795 94.4882
f 1/9/3 7/10/3 6/11/3

vt 7.87402 100.394
f 7/10/3 1/9/3 3/12/3

vt -75.9843 100.394
vn -1 1.55471e-15 -3.67852e-14
vt -44.901 94.4882
vt -44.901 100.394
f 2/13/4 7/14/4 3/15/4

v -2.23 0.5 -3.31432
vt -75.9843 94.4882
f 7/14/4 2/13/4 8/16/4

v -2.23 2.75 -5.02432
vt -143.307 183.071
f 2/13/4 9/17/4 8/16/4

v -2.23 2.75 -3.31432
vt -75.9843 183.071
f 9/17/4 2/13/4 10/18/4

v -2.08 2.75 -3.31432
vt 13.7795 183.071
vt 7.87402 183.071
f 2/12/3 11/19/3 10/20/3

f 11/19/3 2/12/3 4/9/3

v -2.08 -1.9 -5.17432
vt 149.213 -1.1469e-13
vt 75.9843 183.071
f 4/7/2 12/21/2 11/22/2

f 5/6/2 12/21/2 4/7/2

v -2.08 -1.6 -3.31432
vt 75.9843 11.811
f 13/23/2 12/21/2 5/6/2

v -2.08 -1.6 -1.38432
vt 1.35356e-13 11.811
f 14/24/2 12/21/2 13/23/2

v -2.08 -1.9 -1.38432
vt 1.35356e-13 -1.1469e-13
f 12/21/2 14/24/2 15/25/2

vt 13.7795 11.811
v -2.43 -1.9 -1.38432
vt 1.81899e-12 0
vt 13.7795 0
f 14/26/3 16/27/3 15/28/3

v -2.43 -1.6 -1.38432
vt 1.81899e-12 11.811
f 16/27/3 14/26/3 17/29/3

v -2.43 -1.6 -5.02432
vt 1.81899e-12 143.307
f 14/28/1 18/30/1 17/27/1

v -2.23 -1.6 -3.31432
f 18/30/1 14/28/1 19/2/1

f 19/2/1 14/28/1 13/4/1

vt 7.87402 11.811
f 5/11/3 19/31/3 13/26/3

f 19/31/3 5/11/3 8/10/3

vt -13.7795 75.9843
vn 0 -1 -0
vt -7.87402 44.901
vt -7.87402 75.9843
f 5/32/5 7/33/5 8/34/5

vt -13.7795 44.901
f 7/33/5 5/32/5 6/35/5

vt -75.9843 11.811
f 8/16/4 9/17/4 19/36/4

v -2.23 -1.6 -5.02432
vt -143.307 11.811
f 19/36/4 9/17/4 20/37/4

f 9/20/3 18/29/3 20/31/3

v -2.43 2.75 -5.02432
vt 0 183.071
f 18/29/3 9/20/3 21/38/3

vt 7.87402 143.307
v -2.43 2.75 -5.17432
vt 0 149.213
vt 0 143.307
f 9/39/1 22/40/1 21/41/1

v -2.08 2.75 -5.17432
vt 13.7795 149.213
f 22/40/1 9/39/1 23/42/1

f 23/42/1 9/39/1 11/4/1

f 11/4/1 9/39/1 10/2/1

vt 149.213 183.071
f 11/22/2 12/21/2 23/43/2

vt -13.7795 0
vn 0 0 -1
vt -13.7795 183.071
f 12/44/6 22/38/6 23/45/6

v -2.43 -1.9 -5.17432
vt 0 0
f 22/38/6 12/44/6 24/46/6

vt -13.7795 149.213
vt -1.81899e-12 0
f 12/47/5 16/48/5 24/40/5

f 16/48/5 12/47/5 15/44/5

vt 8.75582e-27 -1.21619e-26
vn -1 -6.6861e-15 4.81356e-15
vt -149.213 -4.80226e-27
f 16/49/7 18/37/7 24/50/7

vt 8.75582e-27 11.811
f 18/37/7 16/49/7 17/51/7

vt -149.213 183.071
f 24/50/7 18/37/7 22/52/7

f 22/52/7 18/37/7 21/17/7

f 20/39/1 18/30/1 19/2/1

