# Alias OBJ Model File
# Exported from SketchUp, (c) 2000-2012 Trimble Navigation Limited
# File units = meters

mtllib P24.mtl

g Mesh1 Group1 Model

usemtl FrontColor
v -2.08 2.9 -2.37481
vt 5.90551 177.165
vn -2.21386e-13 -7.37954e-15 1
v -2.23 -1.6 -2.37481
vt -6.04049e-25 5.68434e-14
v -2.08 -1.6 -2.37481
vt 5.90551 -9.648e-27
f 1/1/1 2/2/1 3/3/1

v -2.23 2.9 -2.37481
vt 1.81899e-12 177.165
f 2/2/1 1/1/1 4/4/1

vt 5.90551 1.3074e-12
vn 9.62549e-15 1 7.37954e-15
v -2.23 2.9 -2.67481
vt 1.93268e-12 11.811
vt 1.13687e-13 1.3074e-12
f 1/5/2 5/6/2 4/7/2

v -2.08 2.9 -2.67481
vt 5.90551 11.811
f 5/6/2 1/5/2 6/8/2

vt 1.3074e-12 177.165
vn 1 0 2.21386e-13
v -2.08 -1.6 -2.67481
vt 11.811 8.52651e-14
vt 11.811 177.165
f 1/9/3 7/10/3 6/11/3

vt 1.3074e-12 0
f 7/10/3 1/9/3 3/12/3

vt -5.90551 4.19478e-28
vn -9.62549e-15 -1 -7.37954e-15
v -2.23 -1.6 -2.67481
vt -1.81899e-12 11.811
vt -5.90551 11.811
f 3/13/4 8/14/4 7/15/4

vt 5.47146e-28 2.72848e-12
f 8/14/4 3/13/4 2/16/4

vt -2.72848e-12 5.68434e-14
vn -1 1.02672e-14 -2.21386e-13
vt -11.811 177.165
vt -11.811 1.42109e-13
f 2/17/5 5/18/5 8/19/5

vt -4.02699e-25 177.165
f 5/18/5 2/17/5 4/20/5

vt -5.90551 177.165
vn 2.21386e-13 7.37954e-15 -1
vt 7.95808e-13 5.49486e-14
vt -1.02318e-12 177.165
f 6/21/6 8/22/6 5/23/6

vt -5.90551 -1.89478e-15
f 8/22/6 6/21/6 7/24/6

