# Alias OBJ Model File
# Exported from SketchUp, (c) 2000-2012 Trimble Navigation Limited
# File units = meters

mtllib P7.mtl

g Mesh1 Group1 Model

usemtl FrontColor
v -1.1 2.9 2.91189
vt 0 0
vn 0 1 -0
v -0.95 2.9 2.76189
vt 5.90551 5.90551
v -1.1 2.9 -3.61209
vt 0 256.85
f 1/1/1 2/2/1 3/3/1

v -0.75 2.9 2.91189
vt 13.7795 0
f 2/2/1 1/1/1 4/4/1

v -1.1 -1.9 2.91189
vn 0 0 1
vt 13.7795 188.976
vt 0 188.976
f 5/1/2 4/5/2 1/6/2

v -0.75 -1.9 2.91189
f 4/5/2 5/1/2 6/4/2

vn -8.01546e-16 -1 -5.57114e-15
v -0.95 -1.9 2.76189
vt -5.90551 5.90551
vt -13.7795 6.15329e-29
f 5/1/3 7/7/3 6/8/3

v -1.1 -1.9 1.83567
vt -2.72848e-12 42.3708
f 7/7/3 5/1/3 8/9/3

vt -42.3708 2.27374e-13
vn -1 -6.87725e-15 -4.77366e-15
v -1.1 2.55 1.83567
vt -42.3708 175.197
f 8/10/4 5/1/4 9/11/4

f 1/6/4 9/11/4 5/1/4

vt -256.85 188.976
f 9/11/4 1/6/4 3/12/4

v -1.1 2.55 -1.23432
vt -163.237 175.197
f 9/11/4 3/12/4 10/13/4

v -1.1 0.5 -1.43432
vt -171.111 94.4882
f 10/13/4 3/12/4 11/14/4

v -1.1 0.5 -2.37481
vt -208.138 94.4882
f 11/14/4 3/12/4 12/15/4

v -1.1 -1.9 -2.37481
vt -208.138 2.27374e-13
f 12/15/4 3/12/4 13/16/4

v -1.1 -1.9 -3.61209
vt -256.85 8.43228e-27
f 13/16/4 3/12/4 14/17/4

vn 0 0 -1
v -0.95 -1.9 -3.61209
vt -5.90551 0
f 3/6/5 15/18/5 14/1/5

v -0.95 2.9 -3.61209
vt -5.90551 188.976
f 15/18/5 3/6/5 16/19/5

vt 5.90551 256.85
f 16/20/1 3/3/1 2/2/1

vt 5.90551 188.976
vn 1 0 -0
v -0.95 2.55 1.83567
vt 42.3708 175.197
vt 256.85 188.976
f 2/21/6 17/22/6 16/23/6

v -0.95 -1.9 1.83567
vt 42.3708 2.27374e-13
f 2/21/6 18/24/6 17/22/6

vt 5.90551 0
f 18/24/6 2/21/6 7/25/6

v -0.75 -1.9 2.76189
vt -13.7795 0
f 2/19/5 19/26/5 7/18/5

v -0.75 2.9 2.76189
vt -13.7795 188.976
f 19/26/5 2/19/5 20/27/5

vt 13.7795 5.90551
f 2/2/1 4/4/1 20/28/1

f 4/6/6 19/25/6 20/21/6

f 19/25/6 4/6/6 6/1/6

vt -13.7795 5.90551
f 6/8/3 7/7/3 19/29/3

vt -5.90551 42.3708
f 7/7/3 8/9/3 18/30/3

vt -2.72848e-12 175.197
vt -5.90551 2.27374e-13
vt -2.72848e-12 2.27374e-13
f 9/31/5 18/32/5 8/33/5

vt -5.90551 175.197
f 18/32/5 9/31/5 17/34/5

vn 0 -1 -0
v -0.95 2.55 -1.23432
vt -5.90551 163.237
f 9/9/7 21/35/7 17/30/7

vt -2.72848e-12 163.237
f 21/35/7 9/9/7 10/36/7

v -1.1 -1.9 -1.23432
vt 2.72848e-12 2.27374e-13
vt 5.90551 175.197
vt 2.72848e-12 175.197
f 22/37/2 21/38/2 10/39/2

v -0.95 -1.9 -1.23432
vt 5.90551 2.27374e-13
f 21/38/2 22/37/2 23/40/2

v -1.1 -1.9 -1.43432
vt -4.54747e-12 171.111
f 24/41/7 23/35/7 22/36/7

v -0.95 -1.9 -1.43432
vt -5.90551 171.111
f 23/35/7 24/41/7 25/42/7

vt -4.54747e-12 94.4882
vt -4.54747e-12 2.27374e-13
f 11/43/5 25/32/5 24/44/5

v -0.95 0.5 -1.43432
vt -5.90551 94.4882
f 25/32/5 11/43/5 26/45/5

v -0.95 0.5 -2.37481
vt -5.90551 208.138
f 11/41/7 27/46/7 26/42/7

vt -4.54747e-12 208.138
f 27/46/7 11/41/7 12/47/7

vt 4.54747e-12 2.27374e-13
vt 5.90551 94.4882
vt 4.54747e-12 94.4882
f 13/48/2 27/49/2 12/50/2

v -0.95 -1.9 -2.37481
f 27/49/2 13/48/2 28/40/2

vn 1.764e-30 -1 4.66771e-15
vt -5.90551 256.85
f 13/47/8 15/51/8 28/46/8

f 15/51/8 13/47/8 14/3/8

vt 256.85 0
vt 208.138 94.4882
vt 208.138 2.27374e-13
f 15/52/6 27/53/6 28/54/6

f 16/23/6 27/53/6 15/52/6

vt 171.111 94.4882
f 16/23/6 26/55/6 27/53/6

vt 163.237 175.197
f 16/23/6 21/56/6 26/55/6

f 16/23/6 17/22/6 21/56/6

vt 171.111 2.27374e-13
f 26/55/6 21/56/6 25/57/6

vt 163.237 2.27374e-13
f 25/57/6 21/56/6 23/58/6

vt -171.111 2.27374e-13
vt -163.237 2.27374e-13
f 24/59/4 22/60/4 11/14/4

f 10/13/4 11/14/4 22/60/4

