# Alias OBJ Model File
# Exported from SketchUp, (c) 2000-2012 Trimble Navigation Limited
# File units = meters

mtllib P9.mtl

g Mesh1 Group1 Model

usemtl FrontColor
v -3.17641e-14 0.5 1.92568
vt 0 0
vn 1 0 -0
v -3.17641e-14 0.65 1.77568
vt 5.90551 5.90551
v -3.17641e-14 2.9 1.92568
vt 0 94.4882
f 1/1/1 2/2/1 3/3/1

v -3.17641e-14 0.5 -1.38432
vt 130.315 0
f 2/2/1 1/1/1 4/4/1

v -0.95 0.5 1.92568
vt -0.17893 0
vn 0 -1 -0
vt -37.5805 130.315
vt -37.5805 0
f 5/5/2 4/6/2 1/7/2

v -0.95 0.5 -1.38432
vt -0.17893 130.315
f 4/6/2 5/5/2 6/8/2

vn -1 0 -0
v -0.95 0.65 1.77568
vt -5.90551 5.90551
vt -130.315 0
f 5/1/3 7/9/3 6/10/3

v -0.95 2.75 1.77568
vt -5.90551 88.5827
f 7/9/3 5/1/3 8/11/3

v -0.95 2.9 1.92568
f 9/3/3 8/11/3 5/1/3

v -0.95 2.9 0.920677
vt -39.5669 94.4882
f 8/11/3 9/3/3 10/12/3

vt 37.5805 0
vn 0 1 -0
vt 0.17893 39.5669
vt 0.17893 0
f 3/13/4 10/14/4 9/15/4

v -3.17641e-14 2.9 0.920677
vt 37.5805 39.5669
f 10/14/4 3/13/4 11/16/4

v -3.17641e-14 2.75 1.77568
vt 5.90551 88.5827
vt 39.5669 94.4882
f 3/3/1 12/17/1 11/18/1

f 12/17/1 3/3/1 2/2/1

vt -37.5805 5.90551
vn 0 0 -1
vt -0.17893 88.5827
vt -37.5805 88.5827
f 2/19/5 8/20/5 12/21/5

vt -0.17893 5.90551
f 8/20/5 2/19/5 7/22/5

vt 37.5805 5.90551
v -0.95 0.65 -1.38432
vt 0.17893 130.315
vt 0.17893 5.90551
f 2/23/4 13/24/4 7/25/4

v -3.17641e-14 0.65 -1.38432
vt 37.5805 130.315
f 13/24/4 2/23/4 14/26/4

vt 130.315 5.90551
f 2/2/1 4/4/1 14/27/1

f 4/7/5 13/22/5 14/19/5

f 13/22/5 4/7/5 6/5/5

vt -130.315 5.90551
f 6/10/3 7/9/3 13/28/3

v -3.17641e-14 2.75 0.920677
vt -37.5805 39.5669
f 8/22/2 15/29/2 12/19/2

v -0.95 2.75 0.920677
vt -0.17893 39.5669
f 15/29/2 8/22/2 16/30/2

vt -39.5669 88.5827
f 8/11/3 10/12/3 16/31/3

vt -0.17893 94.4882
f 10/32/5 15/21/5 16/20/5

vt -37.5805 94.4882
f 15/21/5 10/32/5 11/33/5

vt 39.5669 88.5827
f 11/18/1 12/17/1 15/34/1

vn 0 0 1
vt 37.5805 94.4882
vt 0.17893 94.4882
f 5/15/6 3/35/6 9/36/6

f 3/35/6 5/15/6 1/13/6

g Mesh2 Group1 Model

v -0.95 2.9 -1.23432
v -3.17641e-14 2.75 -1.23432
v -0.95 2.75 -1.23432
f 17/32/5 18/21/5 19/20/5

v -3.17641e-14 2.9 -1.23432
f 18/21/5 17/32/5 20/33/5

vt 0.17893 124.409
v -3.17641e-14 2.9 0.720677
vt 37.5805 47.4409
vt 37.5805 124.409
f 17/37/4 21/38/4 20/39/4

v -0.95 2.9 0.720677
vt 0.17893 47.4409
f 21/38/4 17/37/4 22/40/4

vt -124.409 94.4882
v -0.95 2.75 0.720677
vt -47.4409 88.5827
vt -47.4409 94.4882
f 17/41/3 23/42/3 22/43/3

vt -124.409 88.5827
f 23/42/3 17/41/3 19/44/3

vt -37.5805 124.409
vt -0.17893 47.4409
vt -0.17893 124.409
f 18/45/2 23/46/2 19/47/2

v -3.17641e-14 2.75 0.720677
vt -37.5805 47.4409
f 23/46/2 18/45/2 24/48/2

vt 124.409 88.5827
vt 47.4409 94.4882
vt 47.4409 88.5827
f 18/49/1 21/50/1 24/51/1

vt 124.409 94.4882
f 21/50/1 18/49/1 20/52/1

vt 0.17893 88.5827
vt 37.5805 88.5827
f 21/35/6 23/53/6 24/54/6

f 23/53/6 21/35/6 22/36/6

