# Alias OBJ Model File
# Exported from SketchUp, (c) 2000-2012 Trimble Navigation Limited
# File units = millimeters

mtllib P10T.mtl

g Mesh1 Group2 Group1 Model

usemtl Translucent_Glass_Gray
v -6112.95 3008 -11285.1
vt 0 118.425
vn 0 0 -1
v 8701.22 0 -11285.1
vt -583.235 0
v -6112.95 0 -11285.1
vt 0 0
f 1/1/1 2/2/1 3/3/1

v 8701.22 3008 -11285.1
vt -583.235 118.425
f 2/2/1 1/1/1 4/4/1

g Mesh2 Group3 Group1 Model

v 9664.92 0 -17704.2
vt 205.521 0
vn 1 0 -0
v 9664.92 3008 -12534
v 9664.92 2.16573e-12 -12534
vt 0 8.52651e-14
f 5/5/2 6/1/2 7/6/2

v 9664.92 3008 -17704.2
vt 205.521 118.425
f 6/1/2 5/5/2 8/7/2

