# Alias OBJ Model File
# Exported from SketchUp, (c) 2000-2012 Trimble Navigation Limited
# File units = millimeters

mtllib P13.mtl

g Mesh1 Group1 Model

usemtl FrontColor
v -6112.95 3629.58 3516.12
vt 290.582 -580.756
vn 0 1 -0
v -13493.7 3629.58 -17496.9
vt 2.27374e-12 246.529
v -13493.7 3629.58 3516.12
vt 2.27374e-12 -580.756
f 1/1/1 2/2/1 3/3/1

v -6112.95 3629.58 -17496.9
vt 290.582 246.529
f 2/2/1 1/1/1 4/4/1

v -6112.95 3008 3293.71
vt -572 1.52185e-11
vn 1 -3.68698e-14 -1.64897e-15
vt 246.529 24.4719
vt -580.756 24.4719
f 5/5/2 4/6/2 1/7/2

v -6112.95 3008 -17496.9
vt 246.529 1.07137e-11
f 4/6/2 5/5/2 6/8/2

v -13493.7 3008 3293.71
vt -2.6148e-12 -572
vn -9.68998e-32 -1 5.50358e-15
vt -290.582 246.529
vt -290.582 -572
f 7/9/3 6/10/3 5/11/3

v -13493.7 3008 -17496.9
vt 0 246.529
f 6/10/3 7/9/3 8/12/3

vt 572 4.50484e-12
vn -1 3.92049e-14 1.58026e-15
vt -246.529 24.4719
vt -246.529 1.52734e-26
f 7/13/4 2/14/4 8/15/4

vt 580.756 24.4719
f 2/14/4 7/13/4 3/16/4

vt 2.61462e-12 192.705
vn 2.89061e-19 -0.336897 0.941542
vt 290.582 218.696
vt 2.27356e-12 218.696
f 7/17/5 1/18/5 3/19/5

vt 290.582 192.705
f 1/18/5 7/17/5 5/20/5

vt -2.27374e-12 24.4719
vn 0 0 -1
vt -290.582 0
vt 0 0
f 2/21/6 6/22/6 8/23/6

vt -290.582 24.4719
f 6/22/6 2/21/6 4/24/6

