# Alias OBJ Model File
# Exported from SketchUp, (c) 2000-2012 Trimble Navigation Limited
# File units = millimeters

mtllib P22.mtl

g Mesh1 Group1 Model

usemtl FrontColor
v -6112.95 7259.17 -2826.41
vt 290.582 -331.05
vn -3.62589e-15 1 -8.99242e-15
v 9416.77 7259.17 -17496.9
vt 901.988 246.529
v -6112.95 7259.17 -17496.9
vt 290.582 246.529
f 1/1/1 2/2/1 3/3/1

v 9416.77 7259.17 -2826.41
vt 901.988 -331.05
f 2/2/1 1/1/1 4/4/1

v -6112.95 6637.58 -2826.41
vt 290.582 0
vn 0 0 1
vt 901.988 24.4719
vt 290.582 24.4719
f 5/5/2 4/6/2 1/7/2

v 9416.77 6637.58 -2826.41
vt 901.988 0
f 4/6/2 5/5/2 6/8/2

v -6112.95 6637.58 -17496.9
vt -290.582 246.529
vn 2.32429e-15 -1 5.76437e-15
vt -901.988 -331.05
vt -290.582 -331.05
f 7/9/3 6/10/3 5/11/3

v 9416.77 6637.58 -17496.9
vt -901.988 246.529
f 6/10/3 7/9/3 8/12/3

vt -290.582 24.4719
vn -2.29423e-16 -6.19414e-15 -1
vt -901.988 1.52704e-12
vt -290.582 -1.31514e-12
f 3/13/4 8/14/4 7/15/4

vt -901.988 24.4719
f 8/14/4 3/13/4 2/16/4

vt -331.05 24.4719
vn 1 0 -0
vt 246.529 0
vt 246.529 24.4719
f 4/17/5 8/18/5 2/19/5

vt -331.05 0
f 8/18/5 4/17/5 6/20/5

vt 331.05 2.02489e-11
vn -1 6.96841e-14 -1.38345e-15
vt -246.529 24.4719
vt -246.529 1.74067e-11
f 5/21/6 3/22/6 7/23/6

vt 331.05 24.4719
f 3/22/6 5/21/6 1/24/6

