# Alias OBJ Model File
# Exported from SketchUp, (c) 2000-2012 Trimble Navigation Limited
# File units = millimeters

mtllib P26.mtl

g Mesh1 Group1 Model

usemtl Color_A03
v -12680.1 0 -17754.2
vt 1.10066e-14 2.05753e-10
vn 8.61696e-15 -2.39997e-14 -1
v -6312.95 3008 -17754.2
vt -250.674 118.425
v -6312.95 -5.22131e-09 -17754.2
vt -250.674 1.88974e-13
f 1/1/1 2/2/1 3/3/1

v -12680.1 3008 -17754.2
vt 1.10066e-14 118.425
f 2/2/1 1/1/1 4/4/1

vt -7.87402 2.05564e-10
vn -1 -4.13609e-28 -8.61696e-15
v -12680.1 3008 -17554.2
vt -5.68434e-12 118.425
vt -7.87402 118.425
f 1/5/2 5/6/2 4/7/2

v -12680.1 4.79995e-12 -17554.2
vt 0 2.05753e-10
f 5/6/2 1/5/2 6/8/2

vt -5.68434e-14 7.87402
vn -8.20042e-13 -1 2.39997e-14
v -6312.95 -5.21651e-09 -17554.2
vt -250.674 6.82121e-13
vt 1.68726e-22 -4.93801e-24
f 1/9/3 7/10/3 6/11/3

vt -250.674 7.87402
f 7/10/3 1/9/3 3/12/3

vt 7.87402 0
vn 1 0 8.61696e-15
v -6312.95 3008 -17554.2
vt 2.84217e-12 118.425
vt 2.84217e-12 1.88974e-13
f 3/13/4 8/14/4 7/15/4

vt 7.87402 118.425
f 8/14/4 3/13/4 2/16/4

vt -9.71558e-11 7.87402
vn 8.20879e-13 1 -2.39997e-14
vt 250.674 -2.16005e-12
vt 250.674 7.87402
f 4/17/5 8/18/5 2/19/5

vt -9.72126e-11 2.84217e-12
f 8/18/5 4/17/5 5/20/5

vn -8.61696e-15 2.39997e-14 1
vt 250.674 118.425
vt -4.89817e-26 118.425
f 6/8/6 8/21/6 5/22/6

vt 250.674 1.88974e-13
f 8/21/6 6/8/6 7/23/6

