# Alias OBJ Model File
# Exported from SketchUp, (c) 2000-2012 Trimble Navigation Limited
# File units = millimeters

mtllib P7.mtl

g Mesh1 Group1 Model

usemtl FrontColor
v 9343.34 -1382.6 3099.53
vt 489.878 14.6296
vn 0 1 -0
v -2727.96 -1382.6 -2041.77
vt 14.6296 217.043
v -2727.96 -1382.6 3099.53
vt 14.6296 14.6296
f 1/1/1 2/2/1 3/3/1

v 9343.34 -1382.6 -2041.77
vt 489.878 217.043
f 2/2/1 1/1/1 4/4/1

vt -14.6296 10.874
vn -1 0 -0
v 9343.34 0 -2041.77
vt -217.043 65.3071
vt -217.043 10.874
f 1/5/2 5/6/2 4/7/2

v 9343.34 0 3099.53
vt -14.6296 65.3071
f 5/6/2 1/5/2 6/8/2

vt -489.878 10.874
vn 0 0 -1
v -2727.96 0 3099.53
vt -489.878 65.3071
f 1/9/3 7/8/3 6/10/3

f 7/8/3 1/9/3 3/5/3

vt 217.043 10.874
vn 1 0 -0
vt 14.6296 65.3071
vt 14.6296 10.874
f 2/11/4 7/12/4 3/13/4

v -2727.96 0 -2041.77
vt 217.043 65.3071
f 7/12/4 2/11/4 8/14/4

vn 0 0 1
vt 489.878 65.3071
f 2/13/5 5/15/5 8/12/5

vt 489.878 10.874
f 5/15/5 2/13/5 4/16/5

v 9714.92 0 -2413.36
vt 504.507 231.673
f 9/17/1 8/2/1 5/4/1

v -3099.55 0 -2413.36
vt 0 231.673
f 10/18/1 8/2/1 9/17/1

f 8/2/1 10/18/1 7/3/1

v -3099.55 0 3471.12
vt 0 0
f 11/19/1 7/3/1 10/18/1

v 9714.92 0 3471.12
vt 504.507 0
f 7/3/1 11/19/1 12/20/1

v -3099.55 -1658.8 3471.12
vt 504.507 65.3071
vt 0 65.3071
f 13/19/5 12/21/5 11/22/5

v 9714.92 -1658.8 3471.12
f 12/21/5 13/19/5 14/20/5

vn 0 -1 -0
v 9714.92 -1658.8 -2413.36
vt -504.507 231.673
vt -504.507 0
f 13/19/6 15/23/6 14/24/6

v -3099.55 -1658.8 -2413.36
f 15/23/6 13/19/6 16/18/6

vt -231.673 65.3071
vt -231.673 0
f 13/19/2 10/25/2 16/26/2

f 10/25/2 13/19/2 11/22/2

f 10/22/3 15/24/3 16/19/3

vt -504.507 65.3071
f 15/24/3 10/22/3 9/27/3

vt 231.673 0
vt 231.673 65.3071
f 12/22/4 15/28/4 9/29/4

f 15/28/4 12/22/4 14/19/4

f 9/17/1 5/4/1 12/20/1

f 6/1/1 12/20/1 5/4/1

f 7/3/1 12/20/1 6/1/1

