# Alias OBJ Model File
# Exported from SketchUp, (c) 2000-2012 Trimble Navigation Limited
# File units = meters

mtllib V15.mtl

g Mesh1 Group1 Model

usemtl FrontColor
v 6.04354 5.75 -1.525
vt 66.9291 0
vn 0 1 -0
v 4.34354 5.75 -3.65
vt 0 83.6614
v 4.34354 5.75 -1.525
vt 0 0
f 1/1/1 2/2/1 3/3/1

v 6.04354 5.75 -3.65
vt 66.9291 83.6614
f 2/2/1 1/1/1 4/4/1

vt 0 11.811
vn 1 0 -0
v 6.04354 5.65 -1.825
vt 11.811 7.87402
vt 83.6614 11.811
f 1/5/2 5/6/2 4/7/2

v 6.04354 5.45 -1.825
vt 11.811 1.11055e-09
f 1/5/2 6/8/2 5/6/2

v 6.04354 5.45 -1.525
vt 0 1.11055e-09
f 6/8/2 1/5/2 7/9/2

vn 0 0 1
vt 66.9291 1.11055e-09
vt 66.9291 11.811
f 3/5/3 7/10/3 1/11/3

v 4.34354 5.45 -1.525
f 7/10/3 3/5/3 8/3/3

vn -1 0 -0
v 4.34354 5.65 -1.825
vt -11.811 7.87402
f 3/5/4 9/12/4 8/3/4

vt -83.6614 11.811
f 9/12/4 3/5/4 2/13/4

v 4.34354 5.65 -3.65
vt -83.6614 7.87402
f 9/12/4 2/13/4 10/14/4

vn 0 0 -1
v 6.04354 5.65 -3.65
vt -66.9291 7.87402
vt 0 7.87402
f 2/5/5 11/15/5 10/16/5

vt -66.9291 11.811
f 11/15/5 2/5/5 4/17/5

vt 83.6614 7.87402
f 4/7/2 5/6/2 11/18/2

vn 0 -1 -0
vt -66.9291 83.6614
f 9/5/6 11/19/6 5/17/6

f 11/19/6 9/5/6 10/2/6

vt -66.9291 1.11055e-09
f 6/20/5 9/16/5 5/15/5

v 4.34354 5.45 -1.825
f 9/16/5 6/20/5 12/3/5

vn 1.65929e-11 -1 -0
f 6/17/7 8/3/7 12/5/7

vt -66.9291 0
f 8/3/7 6/17/7 7/21/7

vt -11.811 0
f 12/22/4 8/3/4 9/12/4

g Mesh2 Group1 Model

v 4.34354 8.75 -1.525
vt 0 129.921
v 4.34354 8.65 -1.825
vt -11.811 125.984
v 4.34354 8.45 -1.525
vt 0 118.11
f 13/23/4 14/24/4 15/25/4

v 4.34354 8.75 -3.65
vt -83.6614 129.921
f 14/24/4 13/23/4 16/26/4

v 6.04354 8.75 -1.525
f 17/1/1 16/2/1 13/3/1

v 6.04354 8.75 -3.65
f 16/2/1 17/1/1 18/4/1

v 6.04354 8.65 -1.825
vt 11.811 125.984
vt 83.6614 129.921
f 17/23/2 19/27/2 18/28/2

v 6.04354 8.45 -1.825
vt 11.811 118.11
f 17/23/2 20/29/2 19/27/2

v 6.04354 8.45 -1.525
f 20/29/2 17/23/2 21/25/2

vt 66.9291 118.11
vt 66.9291 129.921
f 13/23/3 21/30/3 17/31/3

f 21/30/3 13/23/3 15/25/3

vt -1.95979e-09 0
f 15/32/7 20/17/7 21/21/7

v 4.34354 8.45 -1.825
vt -1.95979e-09 11.811
f 20/17/7 15/32/7 22/33/7

vt -11.811 118.11
f 22/34/4 15/25/4 14/24/4

vt 0 125.984
vt -66.9291 118.11
f 14/35/5 20/36/5 22/25/5

vt -66.9291 125.984
f 20/36/5 14/35/5 19/37/5

v 6.04354 8.65 -3.65
f 14/5/6 23/19/6 19/17/6

v 4.34354 8.65 -3.65
f 23/19/6 14/5/6 24/2/6

vt -83.6614 125.984
f 14/24/4 16/26/4 24/38/4

f 16/23/5 23/37/5 24/35/5

vt -66.9291 129.921
f 23/37/5 16/23/5 18/39/5

vt 83.6614 125.984
f 18/28/2 19/27/2 23/40/2

