# Alias OBJ Model File
# Exported from SketchUp, (c) 2000-2012 Trimble Navigation Limited
# File units = meters

mtllib V19.mtl

g Mesh1 Group1 Model

usemtl FrontColor
v 0.243536 8.45 5.05
vt -1.9719e-10 106.299
vn -1 9.18211e-10 1.22706e-09
v 0.243536 5.75 3.2
vt -72.8346 5.42255e-09
v 0.243536 5.75 5.05
vt 2.29177e-16 5.55764e-09
f 1/1/1 2/2/1 3/3/1

v 0.243536 8.45 3.2
vt -72.8346 106.299
f 2/2/1 1/1/1 4/4/1

v 0.393536 8.45 5.05
vt 5.90551 7.24663e-09
vn 9.18211e-10 1 -1.85179e-12
vt 9.73956e-08 72.8346
vt 8.93729e-08 3.4548e-13
f 5/5/2 4/6/2 1/7/2

v 0.393536 8.45 3.2
vt 5.90551 72.8346
f 4/6/2 5/5/2 6/8/2

vt 1.97029e-10 106.299
vn 1 -9.18211e-10 -1.22706e-09
v 0.393536 5.75 3.2
vt 72.8346 5.42253e-09
vt 72.8346 106.299
f 5/9/3 7/10/3 6/11/3

v 0.393536 5.75 5.05
vt -1.04106e-13 5.55765e-09
f 7/10/3 5/9/3 8/12/3

vt 5.90551 106.299
vn 1.22706e-09 1.85492e-12 1
vt 1.86768e-07 5.55764e-09
vt 5.90551 1.35145e-10
f 5/13/4 3/14/4 8/15/4

vt 1.86978e-07 106.299
f 3/14/4 5/13/4 1/16/4

vt -1.86768e-07 -1.0309e-20
vn -9.18211e-10 -1 1.85492e-12
vt -5.90551 72.8346
vt -5.90551 7.24634e-09
f 3/17/5 7/18/5 8/19/5

vt 4.97904e-18 72.8346
f 7/18/5 3/17/5 2/20/5

vt -8.93728e-08 1.46551e-07
vn -1.22706e-09 -1.93766e-09 -1
vt -5.90551 106.299
vt -5.90551 1.41128e-07
f 2/21/6 6/22/6 7/23/6

vt -2.84374e-07 106.299
f 6/22/6 2/21/6 4/24/6

g Mesh2 Group1 Model

v 0.393536 5.75 -3.65
vt -5.90551 342.52
v 0.243536 5.75 -0.9
vt -2.30245e-07 234.252
v 0.243536 5.75 -3.65
vt 4.97904e-18 342.52
f 9/25/5 10/26/5 11/27/5

v 0.393536 5.75 -0.9
vt -5.90551 234.252
f 10/26/5 9/25/5 12/28/5

vt 342.52 5.42251e-09
v 0.393536 8.45 -0.9
vt 234.252 106.299
vt 234.252 5.62336e-09
f 9/29/3 13/30/3 12/31/3

v 0.393536 8.45 -3.65
vt 342.52 106.299
f 13/30/3 9/29/3 14/32/3

vt -4.20294e-07 6.69108e-07
vt -5.90551 6.63685e-07
f 11/33/6 14/22/6 9/34/6

v 0.243536 8.45 -3.65
vt -6.15295e-07 106.299
f 14/22/6 11/33/6 15/35/6

vt -342.52 5.42255e-09
v 0.243536 8.45 -0.9
vt -234.252 106.299
vt -342.52 106.299
f 11/36/1 16/37/1 15/38/1

vt -234.252 5.62338e-09
f 16/37/1 11/36/1 10/39/1

vt 5.17688e-07 6.0579e-09
vt 5.17897e-07 106.299
f 10/40/4 13/13/4 16/41/4

vt 5.90551 6.35374e-10
f 13/13/4 10/40/4 12/42/4

vt 5.90551 342.52
vt 1.3285e-07 234.252
vt 5.90551 234.252
f 14/43/2 16/44/2 13/45/2

vt 9.73956e-08 342.52
f 16/44/2 14/43/2 15/46/2

