# Alias OBJ Model File
# Exported from SketchUp, (c) 2000-2012 Trimble Navigation Limited
# File units = meters

mtllib V2.mtl

g Mesh1 Group1 Model

usemtl FrontColor
v 10.2935 8.45 2.3
vt -246.063 20.0787
vn 4.67707e-10 -1 6.53508e-11
v 9.99354 8.45 5.95
vt -389.764 8.26772
v 9.99354 8.45 2.3
vt -246.063 8.26772
f 1/1/1 2/2/1 3/3/1

v 10.2935 8.45 5.95
vt -389.764 20.0787
f 2/2/1 1/1/1 4/4/1

vt -246.063 236.22
vn 1 3.82801e-10 -2.07821e-10
v 10.2935 8.45 -3.65
vt -11.811 236.22
vt -389.764 236.22
f 1/5/2 5/6/2 4/7/2

v 10.2935 8.45 2
vt -234.252 236.22
f 6/8/2 5/6/2 1/5/2

v 10.2935 8.45 1.19187e-10
vt -155.512 236.22
f 6/8/2 7/9/2 5/6/2

v 10.2935 8.45 0.3
vt -167.323 236.22
f 8/10/2 7/9/2 6/8/2

v 10.2935 5.75 1.08815e-10
vt -155.512 129.921
f 8/10/2 9/11/2 7/9/2

v 10.2935 5.75 0.3
vt -167.323 129.921
f 9/11/2 8/10/2 10/12/2

v 9.99354 8.45 0.3
vt 8.26772 236.22
vn -9.59948e-11 -3.84324e-12 1
vt 20.0787 129.921
vt 20.0787 236.22
f 11/13/3 10/14/3 8/15/3

v 9.99354 5.75 0.3
vt 8.26772 129.921
f 10/14/3 11/13/3 12/16/3

vt 167.323 236.22
vn -1 -7.31705e-10 1.53918e-10
v 9.99354 5.75 2.75335e-11
vt 155.512 129.921
vt 167.323 129.921
f 11/17/4 13/18/4 12/19/4

v 9.99354 8.45 3.79177e-11
vt 155.512 236.22
f 13/18/4 11/17/4 14/20/4

v 9.99354 8.45 2
vt 234.252 236.22
f 14/20/4 11/17/4 15/21/4

vt -167.323 20.0787
vn -3.25302e-23 -1 6.77747e-13
vt -234.252 8.26772
vt -167.323 8.26772
f 8/22/5 15/23/5 11/24/5

vt -234.252 20.0787
f 15/23/5 8/22/5 6/25/5

vt -20.0787 236.22
vn 4.82454e-11 -1.87418e-11 -1
v 9.99354 5.75 2
vt -8.26772 129.921
vt -8.26772 236.22
f 6/26/6 16/27/6 15/28/6

v 10.2935 5.75 2
vt -20.0787 129.921
f 16/27/6 6/26/6 17/29/6

v 10.2935 6.4 2.3
vt -246.063 155.512
vt -234.252 129.921
f 18/30/2 17/31/2 6/8/2

v 10.2935 5.45 2
vt -234.252 118.11
f 18/30/2 19/32/2 17/31/2

v 10.2935 2.75 2.3
vt -246.063 11.811
f 20/33/2 19/32/2 18/30/2

v 10.2935 2.75 2
vt -234.252 11.811
f 19/32/2 20/33/2 21/34/2

v 10.2935 2.75 5.95
vt -389.764 11.811
f 22/35/2 21/34/2 20/33/2

v 10.2935 2.45 -3.95
vt -1.04961e-08 1.21076e-08
f 22/35/2 23/36/2 21/34/2

v 10.2935 2.45 6.25
vt -401.575 1.10957e-08
f 22/35/2 24/37/2 23/36/2

v 10.2935 8.75 6.25
vt -401.575 248.031
f 24/37/2 22/35/2 25/38/2

v 10.2935 6.4 5.95
vt -389.764 155.512
f 25/38/2 22/35/2 26/39/2

v 9.99354 2.75 5.95
vt -8.26772 11.811
vn -1.40929e-11 -5.15123e-11 -1
vt -20.0787 155.512
vt -20.0787 11.811
f 27/40/7 26/41/7 22/42/7

v 9.99354 6.4 5.95
vt -8.26772 155.512
f 26/41/7 27/40/7 28/43/7

vt 389.764 11.811
v 9.99354 8.75 6.25
vt 401.575 248.031
vt 389.764 155.512
f 27/44/4 29/45/4 28/46/4

v 9.99354 2.45 6.25
vt 401.575 -1.34104e-14
f 27/44/4 30/47/4 29/45/4

v 9.99354 2.45 -3.95
vt 4.39576e-09 1.97938e-08
f 30/47/4 27/44/4 31/48/4

v 9.99354 2.75 2.3
vt 246.063 11.811
f 32/49/4 31/48/4 27/44/4

v 9.99354 2.75 2
vt 234.252 11.811
f 33/50/4 31/48/4 32/49/4

v 9.99354 2.75 -3.23186e-11
vt 155.512 11.811
f 34/51/4 31/48/4 33/50/4

v 9.99354 2.75 -3.65169
vt 11.7444 11.811
f 35/52/4 31/48/4 34/51/4

v 9.99354 8.75 -3.95
vt 4.8687e-09 248.031
f 31/48/4 35/52/4 36/53/4

v 9.99354 5.45 -3.65169
vt 11.7444 118.11
f 36/53/4 35/52/4 37/54/4

v 10.2935 2.75 -3.65169
vt 20.0787 11.811
vn -9.59948e-11 -3.63886e-12 1
vt 8.26772 118.11
vt 8.26772 11.811
f 38/55/8 37/56/8 35/57/8

v 10.2935 5.45 -3.65169
vt 20.0787 118.11
f 37/56/8 38/55/8 39/58/8

vt -11.7444 11.811
v 10.2935 8.45 -3.95
vt -8.47243e-09 236.22
vt -11.7444 118.11
f 38/59/2 40/60/2 39/61/2

f 38/59/2 23/36/2 40/60/2

v 10.2935 2.75 -0
vt -155.512 11.811
f 41/62/2 23/36/2 38/59/2

f 23/36/2 41/62/2 21/34/2

v 10.2935 2.75 0.3
vt -167.323 11.811
f 21/34/2 41/62/2 42/63/2

v 10.2935 5.45 0.3
vt -167.323 118.11
f 41/62/2 43/64/2 42/63/2

v 10.2935 5.45 9.81482e-12
vt -155.512 118.11
f 43/64/2 41/62/2 44/65/2

vn 3.82857e-16 3.63673e-12 -1
vt -20.0787 118.11
f 34/40/9 44/66/9 41/42/9

v 9.99354 5.45 -2.25033e-11
vt -8.26772 118.11
f 44/66/9 34/40/9 45/67/9

v 9.99354 5.45 0.3
vt 167.323 118.11
vt 155.512 118.11
f 34/51/4 46/68/4 45/69/4

v 9.99354 2.75 0.3
vt 167.323 11.811
f 46/68/4 34/51/4 47/70/4

f 34/51/4 33/50/4 47/70/4

vt 234.252 8.26772
vn -1.74616e-22 1 3.63801e-12
vt 167.323 20.0787
vt 167.323 8.26772
f 33/71/10 42/72/10 47/73/10

vt 234.252 20.0787
f 42/72/10 33/71/10 21/74/10

vn 6.39967e-11 1.5748e-11 -1
f 33/40/11 19/66/11 21/42/11

v 9.99354 5.45 2
f 19/66/11 33/40/11 48/67/11

v 9.99354 6.4 2.3
vt 246.063 155.512
vt 234.252 118.11
f 33/50/4 49/75/4 48/76/4

f 49/75/4 33/50/4 32/49/4

vn 2.9637e-12 -3.86203e-13 1
vt 20.0787 155.512
vt 8.26772 155.512
f 32/57/12 18/77/12 49/78/12

f 18/77/12 32/57/12 20/55/12

vt 389.764 8.26772
vn -9.35413e-10 1 3.38707e-13
vt 246.063 20.0787
vt 246.063 8.26772
f 27/79/13 20/80/13 32/81/13

vt 389.764 20.0787
f 20/80/13 27/79/13 22/82/13

vn -2.05029e-26 -1 5.35524e-11
f 18/1/14 28/2/14 49/3/14

f 28/2/14 18/1/14 26/4/14

v 10.2935 6.7 2.3
vt -246.063 167.323
f 18/30/2 50/83/2 26/39/2

f 18/30/2 6/8/2 50/83/2

f 50/83/2 6/8/2 1/5/2

vn -3.82857e-16 0 1
vt 20.0787 167.323
f 3/13/15 50/84/15 1/15/15

v 9.99354 6.7 2.3
vt 8.26772 167.323
f 50/84/15 3/13/15 51/85/15

vt 246.063 167.323
vt 246.063 236.22
f 15/21/4 51/86/4 3/87/4

f 15/21/4 49/75/4 51/86/4

vt 234.252 129.921
f 16/88/4 49/75/4 15/21/4

f 48/76/4 49/75/4 16/88/4

f 48/76/4 16/88/4 46/68/4

f 46/68/4 16/88/4 45/69/4

f 45/69/4 16/88/4 37/54/4

f 12/19/4 37/54/4 16/88/4

v 9.99354 5.75 -3.65
vt 11.811 129.921
f 52/89/4 37/54/4 12/19/4

f 36/53/4 37/54/4 52/89/4

v 9.99354 8.45 -3.65
vt 11.811 236.22
f 36/53/4 52/89/4 53/90/4

v 10.2935 5.75 -3.65
vn -9.59948e-11 -9.6582e-28 1
f 54/14/16 53/13/16 52/16/16

f 53/13/16 54/14/16 5/15/16

vt -11.811 129.921
f 54/91/2 40/60/2 5/6/2

f 39/61/2 40/60/2 54/91/2

f 39/61/2 54/91/2 10/12/2

f 10/12/2 54/91/2 9/11/2

vt 11.811 20.0787
vn -3.69053e-22 1 3.84452e-12
vt 155.512 8.26772
vt 155.512 20.0787
f 54/92/17 13/93/17 9/94/17

vt 11.811 8.26772
f 13/93/17 54/92/17 52/95/17

f 52/89/4 12/19/4 13/18/4

vn 9.59948e-11 3.84324e-12 -1
f 13/27/18 7/26/18 9/29/18

f 7/26/18 13/27/18 14/28/18

vt -155.512 8.26772
vn 3.79723e-26 -1 -3.95568e-16
vt -11.811 20.0787
vt -155.512 20.0787
f 14/96/19 5/97/19 7/98/19

vt -11.811 8.26772
f 5/97/19 14/96/19 53/99/19

f 14/20/4 29/45/4 53/90/4

f 15/21/4 29/45/4 14/20/4

f 3/87/4 29/45/4 15/21/4

vt 389.764 236.22
f 2/100/4 29/45/4 3/87/4

v 9.99354 6.7 5.95
vt 389.764 167.323
f 55/101/4 29/45/4 2/100/4

f 28/46/4 29/45/4 55/101/4

f 28/46/4 55/101/4 51/86/4

vn 2.04946e-26 1 -5.35516e-11
f 55/79/20 50/80/20 51/81/20

v 10.2935 6.7 5.95
f 50/80/20 55/79/20 56/82/20

vt -8.26772 167.323
vn -1.40929e-11 1.16161e-10 -1
vt -20.0787 167.323
f 55/102/21 4/26/21 56/103/21

f 4/26/21 55/102/21 2/28/21

vt -389.764 167.323
f 25/38/2 56/104/2 4/7/2

f 25/38/2 26/39/2 56/104/2

f 56/104/2 26/39/2 50/83/2

f 25/38/2 4/7/2 40/60/2

f 4/7/2 5/6/2 40/60/2

v 10.2935 8.75 -3.95
vt -8.47243e-09 248.031
f 25/38/2 40/60/2 57/105/2

vt -8.26772 2.58433e-08
vn 1.33799e-11 -9.27626e-12 -1
vt -20.0787 248.031
f 31/106/22 57/107/22 40/26/22

vt -8.26772 248.031
f 57/107/22 31/106/22 36/108/22

vt 401.575 8.26772
vn -9.35407e-10 1 -3.58127e-25
vt 4.29964e-09 20.0787
vt 3.59614e-09 8.26772
f 29/109/23 57/110/23 36/111/23

vt 401.575 20.0787
f 57/110/23 29/109/23 25/112/23

vt 8.26772 6.04952e-09
vn 2.83453e-11 5.30295e-20 1
vt 20.0787 248.031
vt 8.26772 248.031
f 30/113/24 25/114/24 29/115/24

vt 20.0787 1.87819e-08
f 25/114/24 30/113/24 24/116/24

vt -401.575 8.26772
vn 3.11804e-10 -1 -2.96246e-11
vt -6.32326e-09 20.0787
vt -401.575 20.0787
f 30/117/25 23/118/25 24/119/25

vt -3.1232e-09 8.26772
f 23/118/25 30/117/25 31/120/25

vt -20.0787 1.97938e-08
f 31/106/22 40/26/22 23/121/22

f 36/53/4 53/90/4 29/45/4

f 51/86/4 49/75/4 28/46/4

f 39/61/2 10/12/2 17/31/2

vn -3.69e-22 1 3.84397e-12
f 10/72/26 16/71/26 17/74/26

f 16/71/26 10/72/26 12/73/26

f 17/31/2 44/65/2 39/61/2

f 17/31/2 43/64/2 44/65/2

f 17/31/2 19/32/2 43/64/2

vn 1.74533e-22 -1 -3.63631e-12
f 48/23/27 43/22/27 19/25/27

f 43/22/27 48/23/27 46/24/27

vn -3.82857e-16 -3.63673e-12 1
f 46/56/28 42/55/28 43/58/28

f 42/55/28 46/56/28 47/57/28

vn 1.7467e-22 -1 -3.63912e-12
vt -11.7444 20.0787
f 45/96/29 39/122/29 44/98/29

vt -11.7444 8.26772
f 39/122/29 45/96/29 37/123/29

vt 11.7444 20.0787
vn -1.74726e-22 1 3.64031e-12
f 38/124/30 34/93/30 41/94/30

vt 11.7444 8.26772
f 34/93/30 38/124/30 35/125/30

