# Alias OBJ Model File
# Exported from SketchUp, (c) 2000-2012 Trimble Navigation Limited
# File units = meters

mtllib V20.mtl

g Mesh1 Group1 Model

usemtl FrontColor
v 6.34354 8.45 -3.8
vt -5.90551 106.299
vn -1 -3.03896e-11 -4.00569e-21
v 6.34354 5.75 -3.65
vt -3.24394e-09 1.37707e-07
v 6.34354 8.45 -3.65
vt -9.38342e-19 106.299
f 1/1/1 2/2/1 3/3/1

v 6.34354 5.75 -3.8
vt -5.90551 1.38485e-07
f 2/2/1 1/1/1 4/4/1

vt -234.252 106.299
vn 0 3.05128e-11 -1
v 8.74354 5.75 -3.8
vt -328.74 1.47697e-07
vt -234.252 1.45424e-07
f 1/5/2 5/6/2 4/7/2

v 8.74354 8.45 -3.8
vt -328.74 106.299
f 5/6/2 1/5/2 6/8/2

vt 234.252 5.90551
vn -3.03896e-11 1 3.05128e-11
v 8.74354 8.45 -3.65
vt 328.74 3.33989e-09
vt 328.74 5.90551
f 1/9/3 7/10/3 6/11/3

vt 234.252 3.24349e-09
f 7/10/3 1/9/3 3/12/3

vt 234.252 106.299
vn 4.89745e-12 -3.05128e-11 1
v 8.74354 5.75 -3.65
vt 328.74 1.48295e-07
vt 328.74 106.299
f 3/13/4 8/14/4 7/15/4

vt 234.252 1.44826e-07
f 8/14/4 3/13/4 2/16/4

vt -234.252 3.24394e-09
vn 3.03896e-11 -1 -3.05128e-11
vt -328.74 5.90551
vt -328.74 3.34035e-09
f 2/17/5 5/18/5 8/19/5

vt -234.252 5.90551
f 5/18/5 2/17/5 4/20/5

vt 5.90551 106.299
vn 1 3.03896e-11 -2.15115e-21
vt 3.34035e-09 1.38305e-07
vt 5.90551 1.37887e-07
f 6/21/6 8/22/6 5/23/6

vt 9.64064e-11 106.299
f 8/22/6 6/21/6 7/24/6

g Mesh2 Group1 Model

v 6.04354 5.75 -3.8
vt -222.441 5.90551
vn -1.67585e-11 -1 1.99248e-12
v 4.34354 5.75 -3.65
vt -155.512 2.63856e-09
v 4.34354 5.75 -3.8
vt -155.512 5.90551
f 9/25/7 10/26/7 11/27/7

v 6.04354 5.75 -3.65
vt -222.441 2.53362e-09
f 10/26/7 9/25/7 12/28/7

vt 5.90551 1.37377e-07
vn 1 -1.67585e-11 -7.70039e-14
v 6.04354 7.75 -3.65
vt 2.67338e-09 78.7402
vt 2.5165e-09 1.37388e-07
f 9/29/8 13/30/8 12/31/8

v 6.04354 7.75 -3.8
vt 5.90551 78.7402
f 13/30/8 9/29/8 14/32/8

vt -155.512 1.34782e-07
vn -4.7568e-11 -1.99248e-12 -1
vt -222.441 78.7402
vt -222.441 1.33661e-07
f 11/33/9 14/34/9 9/35/9

v 4.34354 7.75 -3.8
vt -155.512 78.7402
f 14/34/9 11/33/9 15/36/9

vt -5.90551 1.37377e-07
vn -1 1.67585e-11 7.70039e-14
v 4.34354 7.75 -3.65
vt -2.78347e-09 78.7402
vt -5.90551 78.7402
f 11/37/10 16/38/10 15/39/10

vt -2.62658e-09 1.37388e-07
f 16/38/10 11/37/10 10/40/10

vt 155.512 1.34782e-07
vn -1.56782e-12 1.99248e-12 1
vt 222.441 78.7402
vt 155.512 78.7402
f 10/41/11 13/42/11 16/43/11

vt 222.441 1.33661e-07
f 13/42/11 10/41/11 12/44/11

vt 222.441 5.90551
vn 1.67585e-11 1 -1.99248e-12
vt 155.512 2.63856e-09
vt 222.441 2.53362e-09
f 14/45/12 16/46/12 13/47/12

vt 155.512 5.90551
f 16/46/12 14/45/12 15/48/12

g Mesh3 Group1 Model

v 4.04354 5.75 -3.8
vt -143.701 5.90551
vn 2.35748e-18 -1 9.1624e-10
v 3.14354 5.75 -3.65
vt -108.268 1.09503e-07
v 3.14354 5.75 -3.8
vt -108.268 5.90551
f 17/49/13 18/50/13 19/51/13

v 4.04354 5.75 -3.65
vt -143.701 2.50686e-07
f 18/50/13 17/49/13 20/52/13

vt 5.90551 0
vn 1 0 -1.23578e-09
v 4.04354 8.45 -3.65
vt 7.31034e-08 106.299
vt 7.31034e-08 5.41087e-09
f 17/53/14 21/54/14 20/55/14

v 4.04354 8.45 -3.8
f 21/54/14 17/53/14 22/21/14

vt -108.268 1.46404e-07
vn -1.23578e-09 -9.1624e-10 -1
vt -143.701 106.299
vt -143.701 5.41087e-09
f 19/56/15 22/57/15 17/58/15

v 3.14354 8.45 -3.8
vt -108.268 106.299
f 22/57/15 19/56/15 23/59/15

vt -5.90551 -6.85913e-08
vn -1 -1.9358e-09 1.23578e-09
v 3.14354 8.45 -3.65
vt -1.70499e-07 106.299
f 19/60/16 24/61/16 23/1/16

vt 2.42922e-08 -6.31805e-08
f 24/61/16 19/60/16 18/62/16

vt 108.268 1.46404e-07
vn 1.23578e-09 9.1624e-10 1
vt 143.701 106.299
vt 108.268 106.299
f 18/63/17 21/64/17 24/65/17

vt 143.701 5.41087e-09
f 21/64/17 18/63/17 20/66/17

vt 143.701 5.90551
vn 3.12187e-15 1 -9.1624e-10
vt 108.268 2.06899e-07
vt 143.701 1.5329e-07
f 22/67/18 24/68/18 21/69/18

vt 108.268 5.90551
f 24/68/18 22/67/18 23/70/18

g Mesh4 Group1 Model

v 0.393536 5.75 -3.8
vt -2.13072e-07 1.46404e-07
v 1.29354 8.45 -3.8
vt -35.4331 106.299
v 1.29354 5.75 -3.8
vt -35.4331 5.41087e-09
f 25/71/15 26/72/15 27/73/15

v 0.393536 8.45 -3.8
vt -7.29791e-09 106.299
f 26/72/15 25/71/15 28/74/15

vt -5.90551 1.40993e-07
v 0.393536 8.45 -3.65
vt -3.04294e-07 106.299
f 25/75/16 29/76/16 28/1/16

v 0.393536 5.75 -3.65
vt -1.09503e-07 1.46404e-07
f 29/76/16 25/75/16 30/77/16

vt -35.4331 5.90551
vt -2.13072e-07 1.09503e-07
vt -2.05774e-07 5.90551
f 27/78/13 30/79/13 25/80/13

v 1.29354 5.75 -3.65
vt -35.4331 2.50686e-07
f 30/79/13 27/78/13 31/81/13

v 1.29354 8.45 -3.65
vt 2.06898e-07 106.299
vt 2.06898e-07 5.41087e-09
f 27/53/14 32/82/14 31/83/14

f 32/82/14 27/53/14 26/21/14

vt 35.4331 5.90551
vt 7.29745e-09 2.06899e-07
vt 35.4331 1.5329e-07
f 26/84/18 29/85/18 32/86/18

vt -3.31853e-13 5.90551
f 29/85/18 26/84/18 28/87/18

vt 2.13072e-07 1.46404e-07
vt 35.4331 106.299
vt 7.29779e-09 106.299
f 30/88/17 32/89/17 29/90/17

vt 35.4331 5.41087e-09
f 32/89/17 30/88/17 31/91/17

