# Alias OBJ Model File
# Exported from SketchUp, (c) 2000-2012 Trimble Navigation Limited
# File units = meters

mtllib V21.mtl

g Mesh1 Group2 Group1 Model

usemtl FrontColor
v 0.393536 2.75 -0.9
vt -72.8346 5.90551
vn -9.18211e-10 -1 1.85492e-12
v 0.243536 2.75 -2.75
vt -2.13072e-07 -4.95765e-18
v 0.393536 2.75 -2.75
vt -2.05774e-07 5.90551
f 1/1/1 2/2/1 3/3/1

v 0.243536 2.75 -0.9
vt -72.8346 1.87403e-07
f 2/2/1 1/1/1 4/4/1

vt 5.90551 0
vn 1.22706e-09 1.85492e-12 1
v 0.243536 5.45 -0.9
vt 9.73956e-08 106.299
vt 9.73956e-08 5.41087e-09
f 1/5/2 5/6/2 4/7/2

v 0.393536 5.45 -0.9
vt 5.90551 106.299
f 5/6/2 1/5/2 6/8/2

vt -72.8346 5.41087e-09
vn 1 -9.18211e-10 -1.22706e-09
v 0.393536 5.45 -2.75
vt -7.29791e-09 106.299
vt -72.8346 106.299
f 1/9/3 7/10/3 6/11/3

vt -2.13072e-07 5.41087e-09
f 7/10/3 1/9/3 3/12/3

vt -5.90551 -4.12465e-16
vn -1.22706e-09 -1.93766e-09 -1
v 0.243536 5.45 -2.75
vt -1.94791e-07 106.299
vt -5.90551 106.299
f 3/13/4 8/14/4 7/15/4

vt 2.6331e-16 5.41087e-09
f 8/14/4 3/13/4 2/16/4

vt 2.13072e-07 5.41087e-09
vn -1 9.18211e-10 1.22706e-09
vt 72.8346 106.299
vt 7.29779e-09 106.299
f 2/17/5 5/18/5 8/19/5

vt 72.8346 5.41087e-09
f 5/18/5 2/17/5 4/20/5

vt 72.8346 5.90551
vn 9.18211e-10 1 -1.85179e-12
vt 7.29745e-09 9.73956e-08
vt 72.8346 9.00076e-08
f 6/21/6 8/22/6 5/23/6

vt -3.31853e-13 5.90551
f 8/22/6 6/21/6 7/24/6

g Mesh2 Group1 Model

v 0.0935357 2.75 2.3
vt -4.16935e-09 4.51529e-07
vn 2.90141e-11 0 -1
v 0.243536 5.45 2.3
v 0.243536 2.75 2.3
vt -5.90551 4.51298e-07
f 9/25/7 10/15/7 11/26/7

v 0.0935357 5.45 2.3
vt -4.16935e-09 106.299
f 10/15/7 9/25/7 12/27/7

v 0.0935357 2.75 5.95
vt -1.71326e-10 4.51529e-07
vn -1 3.92228e-11 -2.90141e-11
vt -143.701 106.299
vt -143.701 4.51529e-07
f 13/28/8 12/29/8 9/30/8

v 0.0935357 5.45 5.95
vt -1.71326e-10 106.299
f 12/29/8 13/28/8 14/31/8

vt -4.97087e-21 4.51529e-07
vn -2.90141e-11 2.27603e-21 1
v 0.243536 5.45 5.95
vt 8.3387e-09 106.299
f 13/32/9 15/8/9 14/33/9

v 0.243536 2.75 5.95
vt 5.90551 4.51298e-07
f 15/8/9 13/32/9 16/34/9

vt -8.3387e-09 143.701
vn -3.92228e-11 -1 -2.27603e-21
vt -5.90551 1.02769e-27
vt 1.77102e-17 1.71326e-10
f 9/35/10 16/36/10 13/37/10

vt -5.90551 143.701
f 16/36/10 9/35/10 11/38/10

vt 143.701 4.51529e-07
vn 1 -3.92228e-11 2.90141e-11
vt 1.71343e-10 106.299
vt 1.71343e-10 4.51529e-07
f 11/39/11 15/40/11 16/41/11

vt 143.701 106.299
f 15/40/11 11/39/11 10/42/11

vt 4.16935e-09 143.701
vn 3.92228e-11 1 -0
vt 5.90551 143.701
f 12/43/12 15/5/12 10/44/12

vt 4.16935e-09 1.71326e-10
f 15/5/12 12/43/12 14/45/12

