# Alias OBJ Model File
# Exported from SketchUp, (c) 2000-2012 Trimble Navigation Limited
# File units = meters

mtllib V22.mtl

g Mesh1 Group1 Model

usemtl FrontColor
v 0.893536 2.75 -3.65
vt 1.84275e-08 4.02574e-09
vn 1 -4.62947e-11 -6.10219e-21
v 0.893536 4.75 -3.8
vt 5.90551 78.7402
v 0.893536 4.75 -3.65
vt 1.47651e-08 78.7402
f 1/1/1 2/2/1 3/3/1

v 0.893536 2.75 -3.8
vt 5.90551 4.80415e-09
f 2/2/1 1/1/1 4/4/1

v 0.393536 2.75 -3.65
vt 1.31005e-19 1.85239e-08
vn -3.03896e-11 -1 -3.05128e-11
vt -19.685 5.90551
vt -19.685 1.84275e-08
f 5/5/2 4/6/2 1/7/2

v 0.393536 2.75 -3.8
vt 1.18302e-19 5.90551
f 4/6/2 5/5/2 6/8/2

vt -1.85239e-08 4.31086e-09
vn -1 4.63005e-11 -3.27741e-21
v 0.393536 4.75 -3.8
vt -5.90551 78.7402
vt -5.90551 3.89284e-09
f 5/9/3 7/10/3 6/11/3

v 0.393536 4.75 -3.65
vt -1.48615e-08 78.7402
f 7/10/3 5/9/3 8/12/3

vt -9.07198e-20 4.31086e-09
vn -4.89745e-12 -4.65128e-11 1
vt 19.685 78.7402
vt 3.64571e-09 78.7402
f 5/13/4 3/14/4 8/15/4

vt 19.685 3.11442e-09
f 3/14/4 5/13/4 1/16/4

vt 19.685 1.71677e-08
vn 3.03896e-11 1 3.05128e-11
vt 1.25283e-09 5.90551
vt 1.25283e-09 1.72641e-08
f 3/17/5 7/18/5 8/19/5

vt 19.685 5.90551
f 7/18/5 3/17/5 2/20/5

vt -19.685 3.61815e-09
vn 1.58302e-27 4.65128e-11 -1
vt -3.64571e-09 78.7402
vt -19.685 78.7402
f 4/21/6 7/22/6 2/23/6

vt 9.34853e-27 3.61815e-09
f 7/22/6 4/21/6 6/24/6

g Mesh2 Group1 Model

v 1.84354 2.75 -3.8
vt -57.0866 3.61815e-09
vn 1.09205e-21 4.65128e-11 -1
v 4.04354 4.75 -3.8
vt -143.701 78.7402
v 4.04354 2.75 -3.8
vt -143.701 1.58458e-09
f 9/25/7 10/26/7 11/27/7

v 1.84354 4.75 -3.8
vt -57.0866 78.7402
f 10/26/7 9/25/7 12/28/7

v 1.84354 2.75 -3.65
vt -1.85239e-08 6.954e-09
vt -5.90551 6.53598e-09
f 13/29/3 12/10/3 9/30/3

v 1.84354 4.75 -3.65
f 12/10/3 13/29/3 14/12/3

vt 57.0866 4.31086e-09
vn -1.11306e-12 -4.65128e-11 1
v 4.04354 4.75 -3.65
vt 143.701 78.7402
vt 57.0866 78.7402
f 13/31/8 15/32/8 14/33/8

v 4.04354 2.75 -3.65
vt 143.701 1.08085e-09
f 15/32/8 13/31/8 16/34/8

vt -57.0866 1.85239e-08
vn -3.03853e-11 -1 -3.05128e-11
vt -143.701 5.90551
vt -143.701 1.84275e-08
f 13/35/9 11/36/9 16/37/9

vt -57.0866 5.90551
f 11/36/9 13/35/9 9/38/9

vn 1 -4.63063e-11 -6.10372e-21
vt 1.84275e-08 7.7351e-09
vt 5.90551 8.51351e-09
f 10/2/10 16/39/10 11/40/10

f 16/39/10 10/2/10 15/3/10

vt 57.0866 5.90551
vn 3.03853e-11 1 3.05128e-11
vt 143.701 1.71677e-08
vt 143.701 5.90551
f 12/41/11 15/42/11 10/43/11

vt 57.0866 1.72641e-08
f 15/42/11 12/41/11 14/44/11

g Mesh3 Group1 Model

v 4.34354 2.75 -3.8
vt -155.512 1.8504e-09
vn -4.7568e-11 -1.99248e-12 -1
v 6.04354 4.75 -3.8
vt -222.441 78.7402
v 6.04354 2.75 -3.8
vt -222.441 7.28761e-10
f 17/45/12 18/46/12 19/47/12

v 4.34354 4.75 -3.8
vt -155.512 78.7402
f 18/46/12 17/45/12 20/48/12

vt -5.90551 4.44478e-09
vn -1 1.67585e-11 7.70039e-14
v 4.34354 4.75 -3.65
vt -4.59848e-09 78.7402
f 17/49/13 21/50/13 20/10/13

v 4.34354 2.75 -3.65
vt -4.44159e-09 4.45655e-09
f 21/50/13 17/49/13 22/51/13

vt -222.441 5.90551
vn -1.67585e-11 -1 1.99248e-12
vt -155.512 4.45357e-09
vt -155.512 5.90551
f 19/52/14 22/53/14 17/54/14

v 6.04354 2.75 -3.65
vt -222.441 4.34864e-09
f 22/53/14 19/52/14 23/55/14

vt 5.90551 4.44478e-09
vn 1 -1.67585e-11 -7.70039e-14
v 6.04354 4.75 -3.65
vt 4.48839e-09 78.7402
vt 4.33151e-09 4.45655e-09
f 19/56/15 24/57/15 23/58/15

f 24/57/15 19/56/15 18/2/15

vt 222.441 5.90551
vn 1.67585e-11 1 -1.99248e-12
vt 155.512 4.45357e-09
vt 222.441 4.34864e-09
f 18/59/16 21/60/16 24/61/16

vt 155.512 5.90551
f 21/60/16 18/59/16 20/62/16

vt 155.512 1.8504e-09
vn -1.56782e-12 1.99248e-12 1
vt 222.441 78.7402
vt 155.512 78.7402
f 22/63/17 24/64/17 21/65/17

vt 222.441 7.28761e-10
f 24/64/17 22/63/17 23/66/17

g Mesh4 Group1 Model

v 7.79354 2.75 -3.8
vt -291.339 2.53731e-09
v 9.99354 4.75 -3.8
vt -377.953 78.7402
v 9.99354 2.75 -3.8
vt -377.953 5.03732e-10
f 25/67/7 26/68/7 27/69/7

v 7.79354 4.75 -3.8
vt -291.339 78.7402
f 26/68/7 25/67/7 28/70/7

v 7.79354 2.75 -3.65
vt -3.75883e-09 1.67191e-08
vt -5.90551 1.63011e-08
f 29/71/3 28/10/3 25/72/3

v 7.79354 4.75 -3.65
vt -9.64064e-11 78.7402
f 28/10/3 29/71/3 30/73/3

vt 291.339 3.23001e-09
v 9.99354 4.75 -3.65
vt 377.953 78.7402
vt 291.339 78.7402
f 29/74/8 31/75/8 30/76/8

v 9.99354 2.75 -3.65
vt 377.953 -1.89916e-19
f 31/75/8 29/74/8 32/77/8

vt -291.339 3.75883e-09
vt -377.953 5.90551
vt -377.953 3.66242e-09
f 29/78/9 27/79/9 32/80/9

vt -291.339 5.90551
f 27/79/9 29/78/9 25/81/9

vt 3.66242e-09 1.75016e-08
vt 5.90551 1.828e-08
f 26/2/10 32/82/10 27/83/10

vt -2.30692e-18 78.7402
f 32/82/10 26/2/10 31/84/10

vt 291.339 5.90551
vt 377.953 2.40258e-09
vt 377.953 5.90551
f 28/85/11 31/86/11 26/87/11

vt 291.339 2.49899e-09
f 31/86/11 28/85/11 30/88/11

g Mesh5 Group1 Model

v 6.84354 4.75 -3.65
vt 253.937 2.40258e-09
v 6.34354 4.75 -3.8
vt 234.252 5.90551
v 6.34354 4.75 -3.65
vt 234.252 2.49899e-09
f 33/89/5 34/90/5 35/91/5

v 6.84354 4.75 -3.8
vt 253.937 5.90551
f 34/90/5 33/89/5 36/92/5

v 6.84354 2.75 -3.65
vt 3.66242e-09 1.37895e-08
vn 1 -4.62947e-11 -6.10222e-21
vt -1.54958e-18 78.7402
f 37/93/18 36/2/18 33/94/18

v 6.84354 2.75 -3.8
vt 5.90551 1.45679e-08
f 36/2/18 37/93/18 38/95/18

v 6.34354 2.75 -3.65
vt -234.252 3.75883e-09
vt -253.937 5.90551
vt -253.937 3.66242e-09
f 39/96/2 38/97/2 37/98/2

v 6.34354 2.75 -3.8
vt -234.252 5.90551
f 38/97/2 39/96/2 40/99/2

vt -3.75883e-09 1.4076e-08
vt -5.90551 1.3658e-08
f 39/100/3 34/10/3 40/101/3

f 34/10/3 39/100/3 35/73/3

vt 234.252 3.23001e-09
vt 253.937 78.7402
vt 234.252 78.7402
f 39/102/4 33/103/4 35/104/4

vt 253.937 2.03357e-09
f 33/103/4 39/102/4 37/105/4

vt -234.252 78.7402
vn 1.58205e-27 4.65128e-11 -1
vt -253.937 2.53731e-09
vt -234.252 2.53731e-09
f 34/106/19 38/107/19 40/108/19

vt -253.937 78.7402
f 38/107/19 34/106/19 36/109/19

