# Alias OBJ Model File
# Exported from SketchUp, (c) 2000-2012 Trimble Navigation Limited
# File units = meters

mtllib V23.mtl

g Mesh1 Group1 Model

usemtl FrontColor
v 10.1435 5.45 -1.27
vt 5.90551 50
vn 0 1 3.63915e-12
v 9.99354 5.45 -2.807
vt 0 110.512
v 9.99354 5.45 -1.27
vt 0 50
f 1/1/1 2/2/1 3/3/1

v 10.1435 5.45 -2.807
vt 5.90551 110.512
f 2/2/1 1/1/1 4/4/1

vt 50 106.299
vn 1 0 -0
v 10.1435 2.75 -2.807
vt 110.512 1.6866e-07
vt 110.512 106.299
f 1/5/2 5/6/2 4/7/2

v 10.1435 2.75 -1.27
vt 50 2.84912e-07
f 5/6/2 1/5/2 6/8/2

vt 5.90551 106.299
vn 0 0 1
v 9.99354 2.75 -1.27
vt 0 2.84912e-07
vt 5.90551 2.84912e-07
f 1/9/3 7/10/3 6/11/3

vt 0 106.299
f 7/10/3 1/9/3 3/12/3

vt -110.512 106.299
vn -1 0 -0
vt -50 2.84912e-07
vt -50 106.299
f 2/13/4 7/14/4 3/15/4

v 9.99354 2.75 -2.807
vt -110.512 1.6866e-07
f 7/14/4 2/13/4 8/16/4

vn 0 0 -1
vt -5.90551 1.6866e-07
vt 0 1.6866e-07
f 2/12/5 5/17/5 8/18/5

vt -5.90551 106.299
f 5/17/5 2/12/5 4/19/5

vt -5.90551 110.512
vn 0 -1 1.92114e-09
f 5/20/6 7/3/6 8/2/6

vt -5.90551 50
f 7/3/6 5/20/6 6/21/6

g Mesh2 Group1 Model

v 9.99354 5.45 -0.427
vt -16.811 106.299
v 9.99354 2.75 5.77529e-15
vt 0 1.16252e-07
v 9.99354 5.45 5.77529e-15
f 9/22/4 10/23/4 11/12/4

v 9.99354 2.75 -0.427
vt -16.811 0
f 10/23/4 9/22/4 12/24/4

vt -1.16588e-07 106.299
v 10.1435 2.75 -0.427
vt -5.90551 0
vt -1.16588e-07 0
f 9/25/5 13/26/5 12/27/5

v 10.1435 5.45 -0.427
f 13/26/5 9/25/5 14/19/5

vt 1.16588e-07 16.811
v 10.1435 5.45 5.77529e-15
vt 5.90551 3.86839e-10
vt 5.90551 16.811
f 9/28/1 15/29/1 14/30/1

vt 1.16588e-07 3.86839e-10
f 15/29/1 9/28/1 11/31/1

vt 1.16588e-07 1.16252e-07
vt 1.16588e-07 106.299
f 10/32/3 15/9/3 11/33/3

v 10.1435 2.75 5.77529e-15
vt 5.90551 1.16252e-07
f 15/9/3 10/32/3 16/34/3

vt -1.16588e-07 -2.23336e-16
vt -5.90551 16.811
vt -5.90551 -2.23336e-16
f 10/35/6 13/36/6 16/37/6

vt -1.16588e-07 16.811
f 13/36/6 10/35/6 12/38/6

vt 16.811 0
f 13/39/2 15/12/2 16/23/2

vt 16.811 106.299
f 15/12/2 13/39/2 14/40/2

