# Alias OBJ Model File
# Exported from SketchUp, (c) 2000-2012 Trimble Navigation Limited
# File units = meters

mtllib V24.mtl

g Mesh1 Group1 Model

usemtl FrontColor
v 9.99354 8.45 -2.38
vt -3.55703e-08 106.299
vn 0 0 -1
v 10.1435 5.75 -2.38
vt -5.90551 2.85864e-07
v 9.99354 5.75 -2.38
vt -3.55703e-08 2.85864e-07
f 1/1/1 2/2/1 3/3/1

v 10.1435 8.45 -2.38
vt -5.90551 106.299
f 2/2/1 1/1/1 4/4/1

vt 3.55703e-08 172.441
vn 0 1 -3.63915e-12
v 10.1435 8.45 -0.843
vt 5.90551 111.929
vt 5.90551 172.441
f 1/5/2 5/6/2 4/7/2

v 9.99354 8.45 -0.843
vt 3.55703e-08 111.929
f 5/6/2 1/5/2 6/8/2

vt -172.441 106.299
vn -1 0 -0
v 9.99354 5.75 -0.843
vt -111.929 1.69612e-07
vt -111.929 106.299
f 1/9/3 7/10/3 6/11/3

vt -172.441 2.85864e-07
f 7/10/3 1/9/3 3/12/3

vt -5.90551 172.441
vn 0 -1 -1.92114e-09
vt -3.55703e-08 111.929
vt -3.55703e-08 172.441
f 2/13/4 7/14/4 3/15/4

v 10.1435 5.75 -0.843
vt -5.90551 111.929
f 7/14/4 2/13/4 8/16/4

vt 172.441 2.85864e-07
vn 1 0 -0
vt 111.929 106.299
vt 111.929 1.69612e-07
f 2/17/5 5/18/5 8/19/5

vt 172.441 106.299
f 5/18/5 2/17/5 4/20/5

vt 5.90551 106.299
vn 0 0 1
vt 3.55703e-08 1.69612e-07
vt 5.90551 1.69612e-07
f 5/21/6 7/22/6 8/23/6

vt 3.55703e-08 106.299
f 7/22/6 5/21/6 6/24/6

g Mesh2 Group1 Model

v 10.1435 8.45 -3.223
vt 5.90551 205.63
v 9.99354 8.45 -3.65
vt 1.52158e-07 222.441
v 9.99354 8.45 -3.223
vt 1.52158e-07 205.63
f 9/25/2 10/26/2 11/27/2

v 10.1435 8.45 -3.65
vt 5.90551 222.441
f 10/26/2 9/25/2 12/28/2

vt 205.63 106.299
v 10.1435 5.75 -3.65
vt 222.441 1.17204e-07
vt 222.441 106.299
f 9/29/5 13/30/5 12/31/5

v 10.1435 5.75 -3.223
vt 205.63 9.52127e-10
f 13/30/5 9/29/5 14/32/5

v 9.99354 5.75 -3.223
vt 1.52158e-07 9.52127e-10
vt 5.90551 9.52127e-10
f 9/21/6 15/33/6 14/34/6

vt 1.52158e-07 106.299
f 15/33/6 9/21/6 11/35/6

vt -222.441 106.299
vt -205.63 9.52127e-10
vt -205.63 106.299
f 10/36/3 15/37/3 11/38/3

v 9.99354 5.75 -3.65
vt -222.441 1.17204e-07
f 15/37/3 10/36/3 16/39/3

vt -1.52158e-07 106.299
vt -5.90551 1.17204e-07
vt -1.52158e-07 1.17204e-07
f 10/40/1 13/41/1 16/42/1

f 13/41/1 10/40/1 12/4/1

vt -5.90551 222.441
vt -1.52158e-07 205.63
vt -1.52158e-07 222.441
f 13/43/4 15/44/4 16/45/4

vt -5.90551 205.63
f 15/44/4 13/43/4 14/46/4

g Mesh3 Group1 Model

v 10.1435 5.75 0.3
vt 66.9291 2.5724e-10
vn 1 9.0745e-11 5.07105e-11
v 10.1435 6.7 2
vt 2.99471e-10 37.4016
v 10.1435 5.75 2
vt 2.99471e-10 -3.29123e-14
f 17/47/7 18/48/7 19/49/7

v 10.1435 6.7 0.3
vt 66.9291 37.4016
f 18/48/7 17/47/7 20/50/7

vt -5.90551 -3.16112e-09
vn 5.07105e-11 5.90812e-11 -1
v 9.99354 6.7 0.3
vt 3.39401e-09 37.4016
vt -5.90551 37.4016
f 17/51/8 21/52/8 20/53/8

v 9.99354 5.75 0.3
vt -3.39401e-09 -3.69698e-09
f 21/52/8 17/51/8 22/54/8

vt -5.90551 -1.26514e-25
vn 9.0745e-11 -1 -3.84397e-12
vt -6.78801e-09 66.9291
vt -5.90551 66.9291
f 19/55/9 22/56/9 17/57/9

v 9.99354 5.75 2
vt 0 2.99679e-10
f 22/56/9 19/55/9 23/58/9

vt 5.90551 5.35863e-10
vn -5.07105e-11 0 1
v 9.99354 6.7 2
vt -1.51968e-20 37.4016
vt -1.51968e-20 0
f 19/59/10 24/60/10 23/61/10

vt 5.90551 37.4016
f 24/60/10 19/59/10 18/62/10

vt 5.90551 0
vn -9.0745e-11 1 -0
vt 3.39401e-09 66.9291
vt 3.39401e-09 2.99679e-10
f 18/63/11 21/64/11 24/65/11

vt 5.90551 66.9291
f 21/64/11 18/63/11 20/66/11

vt -66.9291 37.4016
vn -1 -9.0745e-11 -5.07105e-11
vt -2.99679e-10 1.37904e-30
vt -2.99679e-10 37.4016
f 21/67/12 23/68/12 24/69/12

vt -66.9291 2.57273e-10
f 23/68/12 21/67/12 22/70/12

