# Alias OBJ Model File
# Exported from SketchUp, (c) 2000-2012 Trimble Navigation Limited
# File units = meters

mtllib V26.mtl

g Mesh1 Group1 Model

usemtl FrontColor
v 4.04354 2.75 5.95
vt -108.268 5.90551
vn 2.35748e-18 -1 9.1624e-10
v 3.14354 2.75 6.1
vt -72.8346 9.00075e-08
v 3.14354 2.75 5.95
vt -72.8346 5.90551
f 1/1/1 2/2/1 3/3/1

v 4.04354 2.75 6.1
vt -108.268 2.31191e-07
f 2/2/1 1/1/1 4/4/1

vt 5.90551 0
vn 1 0 -1.23578e-09
v 4.04354 5.45 6.1
vt 9.73956e-08 106.299
vt 9.73956e-08 5.41087e-09
f 1/5/2 5/6/2 4/7/2

v 4.04354 5.45 5.95
vt 5.90551 106.299
f 5/6/2 1/5/2 6/8/2

vt -72.8346 1.46404e-07
vn -1.23578e-09 -9.1624e-10 -1
vt -108.268 106.299
vt -108.268 5.41087e-09
f 3/9/3 6/10/3 1/11/3

v 3.14354 5.45 5.95
vt -72.8346 106.299
f 6/10/3 3/9/3 7/12/3

vt -5.90551 2.37939e-14
vn -1 -1.9358e-09 1.23578e-09
v 3.14354 5.45 6.1
vt -1.94791e-07 106.299
vt -5.90551 106.299
f 3/13/4 8/14/4 7/15/4

vt 5.72658e-14 5.41089e-09
f 8/14/4 3/13/4 2/16/4

vt 72.8346 1.46404e-07
vn 1.23578e-09 9.1624e-10 1
vt 108.268 106.299
vt 72.8346 106.299
f 2/17/5 5/18/5 8/19/5

vt 108.268 5.41087e-09
f 5/18/5 2/17/5 4/20/5

vt 108.268 5.90551
vn 3.12187e-15 1 -9.1624e-10
vt 72.8346 1.87403e-07
vt 108.268 1.33795e-07
f 6/21/6 8/22/6 5/23/6

vt 72.8346 5.90551
f 8/22/6 6/21/6 7/24/6

g Mesh2 Group1 Model

v 0.393536 5.45 6.1
vt -3.28586e-07 106.299
v 0.393536 2.75 5.95
vt -5.90551 2.09585e-07
v 0.393536 2.75 6.1
vt -1.33795e-07 2.14996e-07
f 9/25/4 10/26/4 11/27/4

v 0.393536 5.45 5.95
f 10/26/4 9/25/4 12/15/4

vt -35.4331 1.87403e-07
v 1.29354 5.45 5.95
vt -6.36331e-08 5.90551
vt -35.4331 5.90551
f 9/28/6 13/29/6 12/30/6

v 1.29354 5.45 6.1
vt -5.63353e-08 1.33795e-07
f 13/29/6 9/28/6 14/31/6

vt -35.4331 1.46404e-07
vt -5.6335e-08 106.299
vt -35.4331 106.299
f 11/32/5 14/33/5 9/34/5

v 1.29354 2.75 6.1
vt -5.6335e-08 5.41087e-09
f 14/33/5 11/32/5 15/35/5

vt 35.4331 9.00075e-08
v 1.29354 2.75 5.95
vt 6.36328e-08 5.90551
vt 5.6335e-08 2.31191e-07
f 11/36/1 16/37/1 15/38/1

vt 35.4331 5.90551
f 16/37/1 11/36/1 10/39/1

vt 35.4331 1.46404e-07
vt 5.63349e-08 106.299
vt 5.63349e-08 5.41087e-09
f 10/40/3 13/41/3 16/42/3

vt 35.4331 106.299
f 13/41/3 10/40/3 12/43/3

vt 2.31191e-07 106.299
f 14/44/2 16/5/2 13/8/2

vt 2.31191e-07 5.41087e-09
f 16/5/2 14/44/2 15/45/2

