# Alias OBJ Model File
# Exported from SketchUp, (c) 2000-2012 Trimble Navigation Limited
# File units = meters

mtllib V29.mtl

g Mesh1 Group1 Model

usemtl FrontColor
v 10.2735 8.41801 2.74499
vt -126.181 67.638
vn -1 5.35748e-11 4.19054e-13
v 10.2735 7.92 2.70499
vt -127.756 48.0316
v 10.2735 7.9 2.74499
vt -126.181 47.2442
f 1/1/1 2/2/1 3/3/1

v 10.2735 8.41801 2.70499
vt -127.756 67.638
f 2/2/1 1/1/1 4/4/1

v 10.2735 8.438 2.3
vt -143.701 68.4253
f 5/5/1 4/4/1 1/1/1

v 10.2735 8.418 2.32
vt -142.913 67.6379
f 5/5/1 6/6/1 4/4/1

v 10.2735 7.92 2.32
vt -142.913 48.0316
f 5/5/1 7/7/1 6/6/1

v 10.2735 7.88 2.32
vt -142.913 46.4568
f 5/5/1 8/8/1 7/7/1

v 10.2735 6.72 2.32
vt -142.913 0.787402
f 5/5/1 9/9/1 8/8/1

v 10.2735 6.7 2.3
vt -143.701 1.01063e-14
f 10/10/1 9/9/1 5/5/1

v 10.2735 6.72 4.92
vt -40.5512 0.787402
f 9/9/1 10/10/1 11/11/1

v 10.2735 6.72 5.93
vt -0.787402 0.787402
f 11/11/1 10/10/1 12/12/1

v 10.2735 6.7 5.95
vt -5.04741e-31 1.01063e-14
f 13/13/1 12/12/1 10/10/1

v 10.2735 8.438 5.95
vt -5.04741e-31 68.4253
f 12/12/1 13/13/1 14/14/1

v 10.2935 6.7 5.95
vt -1.59162e-12 -1.52126e-86
vn 4.19054e-13 5.35516e-11 1
vt -0.787402 68.4253
vt -0.787402 2.84217e-14
f 15/15/2 14/16/2 13/17/2

v 10.2935 8.438 5.95
vt 0 68.4253
f 14/16/2 15/15/2 16/18/2

vt 1.02026e-42 -3.7022e-26
vn 1 -5.35748e-11 -4.19054e-13
v 10.2935 6.72 5.93
vt 0.787402 0.787402
f 15/19/3 17/20/3 16/18/3

v 10.2935 6.72 4.92
vt 40.5512 0.787402
f 17/20/3 15/19/3 18/21/3

v 10.2935 6.72 2.32
vt 142.913 0.787402
f 15/19/3 19/22/3 18/21/3

v 10.2935 6.7 2.3
vt 143.701 -3.7022e-26
f 20/23/3 19/22/3 15/19/3

v 10.2935 8.438 2.3
vt 143.701 68.4253
f 19/22/3 20/23/3 21/24/3

vt 1.59162e-12 -2.14266e-42
vn -4.19054e-13 -5.35516e-11 -1
vt 0.787402 68.4253
vt -9.21152e-29 68.4253
f 20/25/4 5/26/4 21/27/4

vt 0.787402 2.84217e-14
f 5/26/4 20/25/4 10/28/4

vt 0 1.59162e-12
vn -5.35748e-11 -1 5.35516e-11
vt -143.701 0.787402
vt -143.701 1.59162e-12
f 15/29/5 10/30/5 20/31/5

vt 0 0.787402
f 10/30/5 15/29/5 13/32/5

vn 5.35748e-11 1 -5.35516e-11
vt 143.701 1.59162e-12
vt 143.701 0.787402
f 14/32/6 21/33/6 5/34/6

f 21/33/6 14/32/6 16/29/6

v 10.2935 8.41801 3.12999
vt 111.024 67.638
f 16/18/3 22/35/3 21/24/3

v 10.2935 8.41801 3.16999
vt 109.449 67.638
f 16/18/3 23/36/3 22/35/3

v 10.2935 8.418 3.48001
vt 97.2436 67.6379
f 16/18/3 24/37/3 23/36/3

v 10.2935 8.418 5.93
vt 0.787402 67.6379
f 16/18/3 25/38/3 24/37/3

v 10.2935 8.108 5.93
vt 0.787402 55.4332
f 16/18/3 26/39/3 25/38/3

v 10.2935 8.068 5.93
vt 0.787402 53.8584
f 16/18/3 27/40/3 26/39/3

f 16/18/3 17/20/3 27/40/3

vt 1.59162e-12 0.787402
v 10.2735 8.068 5.93
vt 1.42109e-12 53.8584
f 17/41/4 28/40/4 27/42/4

f 28/40/4 17/41/4 12/20/4

v 10.2935 6.72 5.62
vt 12.9921 1.66677e-12
vt 0.787402 1.60993e-12
f 29/43/6 12/20/6 17/44/6

v 10.2735 6.72 5.62
vt 12.9921 0.787402
f 12/20/6 29/43/6 30/45/6

vt -1.64846e-12 0.787402
v 10.2735 7.613 5.62
vt -0.787402 35.9449
f 29/46/2 31/47/2 30/12/2

v 10.2935 7.613 5.62
vt -1.53477e-12 35.9449
f 31/47/2 29/46/2 32/48/2

v 10.2935 7.593 5.58
vt 14.567 35.1575
vt 12.9921 35.9449
f 29/45/3 33/49/3 32/50/3

v 10.2935 6.72 5.58
vt 14.567 0.787402
f 33/49/3 29/45/3 34/51/3

f 17/20/3 34/51/3 29/45/3

f 17/20/3 18/21/3 34/51/3

vt 40.5512 1.60993e-12
v 10.2735 6.72 5.58
vt 14.567 1.60993e-12
f 18/52/6 35/51/6 34/53/6

f 35/51/6 18/52/6 11/21/6

vt -1.59162e-12 0.787402
v 10.2735 7.25 4.92
vt -0.787402 21.6536
f 18/54/2 36/55/2 11/12/2

v 10.2935 7.25 4.92
vt -1.59162e-12 21.6536
f 36/55/2 18/54/2 37/56/2

v 10.2935 6.72 4.88
vt 42.1261 0.787407
vt 40.5512 21.6536
f 18/21/3 38/57/3 37/58/3

v 10.2935 6.72 2.70499
vt 127.756 0.787402
f 38/57/3 18/21/3 39/59/3

f 39/59/3 18/21/3 19/22/3

vt 142.913 1.60993e-12
vn 5.35748e-11 1 -1.8572e-10
v 10.2735 6.72 2.70499
vt 127.756 1.60993e-12
f 19/60/7 40/59/7 39/61/7

f 40/59/7 19/60/7 9/22/7

vt -0.787402 46.4568
f 19/54/2 8/62/2 9/12/2

v 10.2935 7.88 2.32
vt -1.59162e-12 46.4568
f 8/62/2 19/54/2 41/63/2

vt 142.913 46.4568
f 19/22/3 21/24/3 41/64/3

v 10.2935 7.92 2.32
vt 142.913 48.0316
f 41/64/3 21/24/3 42/65/3

v 10.2935 8.418 2.32
vt 142.913 67.6379
f 42/65/3 21/24/3 43/66/3

v 10.2935 8.41801 2.70499
vt 127.756 67.638
f 43/66/3 21/24/3 44/67/3

v 10.2935 8.41801 2.74499
vt 126.181 67.638
f 44/67/3 21/24/3 45/68/3

f 45/68/3 21/24/3 22/35/3

vt -111.024 1.97121e-12
vt -126.181 0.787402
vt -126.181 1.97121e-12
f 22/69/5 1/70/5 45/71/5

v 10.2735 8.41801 3.12999
vt -111.024 0.787402
f 1/70/5 22/69/5 46/72/5

v 10.2935 7.9 3.12999
vt 1.02318e-12 47.2442
vt 0.787402 67.638
vt 3.97904e-13 67.638
f 47/73/4 46/74/4 22/75/4

v 10.2735 7.9 3.12999
vt 0.787402 47.2442
f 46/74/4 47/73/4 48/76/4

v 10.2935 7.145 3.12999
vt 1.87583e-12 17.5198
f 49/77/4 48/76/4 47/73/4

v 10.2735 7.145 3.12999
vt 0.787402 17.5198
f 48/76/4 49/77/4 50/78/4

v 10.2935 7.145 2.74499
vt 126.181 2.28336e-12
vt 111.024 0.787402
vt 111.024 2.28336e-12
f 51/79/6 50/80/6 49/81/6

v 10.2735 7.145 2.74499
vt 126.181 0.787402
f 50/80/6 51/79/6 52/82/6

vt -1.87583e-12 17.5198
vt -0.787402 47.2442
vt -0.787402 17.5198
f 51/83/2 3/84/2 52/85/2

v 10.2935 7.9 2.74499
vt -1.02318e-12 47.2442
f 3/84/2 51/83/2 53/86/2

vt 126.181 17.5198
v 10.2935 7.88 2.70499
vt 127.756 46.4568
vt 126.181 47.2442
f 51/87/3 54/88/3 53/89/3

v 10.2935 7.125 2.70499
vt 127.756 16.7324
f 51/87/3 55/90/3 54/88/3

v 10.2935 7.125 3.16999
vt 109.449 16.7324
f 56/91/3 55/90/3 51/87/3

v 10.2935 7.105 3.12999
vt 111.024 15.945
f 56/91/3 57/92/3 55/90/3

v 10.2935 6.72 3.16999
vt 109.449 0.787539
f 58/93/3 57/92/3 56/91/3

v 10.2935 6.72 3.12999
vt 111.024 0.787533
f 58/93/3 59/94/3 57/92/3

v 10.2935 6.72 4.37
vt 62.2048 0.787534
f 60/95/3 59/94/3 58/93/3

v 10.2935 6.72 2.74499
vt 126.181 0.787408
f 60/95/3 61/96/3 59/94/3

f 61/96/3 60/95/3 38/57/3

vt 62.2048 1.60993e-12
vn 5.35749e-11 1 6.36695e-06
v 10.2735 6.72 4.88
vt 42.1261 0.787402
vt 42.1261 1.60993e-12
f 60/97/8 62/98/8 38/99/8

v 10.2735 6.72 4.37
vt 62.2048 0.787402
f 62/98/8 60/97/8 63/100/8

vt -1.59162e-12 0.787535
vn 4.19054e-13 4.45283e-09 1
v 10.2735 7.23 4.37
vt -0.787402 20.8662
vt -0.787402 0.787535
f 60/101/9 64/102/9 63/103/9

v 10.2935 7.23 4.37
vt -1.59162e-12 20.8662
f 64/102/9 60/101/9 65/104/9

v 10.2935 6.72 4.33
vt 63.7796 0.787539
vt 62.2048 20.8662
f 60/95/3 66/105/3 65/106/3

f 66/105/3 60/95/3 58/93/3

vt 109.449 1.60993e-12
v 10.2735 6.72 4.33
vt 63.7796 0.787402
vt 63.7796 1.60993e-12
f 58/107/6 67/108/6 66/109/6

v 10.2735 6.72 3.16999
vt 109.449 0.787402
f 67/108/6 58/107/6 68/110/6

vt -1.59162e-12 0.787539
v 10.2735 7.125 3.16999
vt -0.787402 16.7324
vt -0.787402 0.787539
f 58/111/2 69/112/2 68/113/2

vt -1.59162e-12 16.7324
f 69/112/2 58/111/2 56/114/2

v 10.2735 7.88 3.16999
f 56/114/2 70/62/2 69/112/2

v 10.2935 7.88 3.16999
f 70/62/2 56/114/2 71/63/2

vt 111.024 17.5198
vt 109.449 46.4568
f 56/91/3 49/115/3 71/116/3

f 49/115/3 56/91/3 51/87/3

vt 111.024 47.2442
f 71/116/3 49/115/3 47/117/3

v 10.2935 7.88 3.50001
vt 96.4562 46.4568
f 71/116/3 47/117/3 72/118/3

v 10.2935 7.88 4.33
vt 63.7796 46.4568
f 72/118/3 47/117/3 73/119/3

v 10.2935 7.9 4.37
vt 62.2048 47.2442
f 73/119/3 47/117/3 74/120/3

v 10.2935 7.92 4.33
vt 63.7796 48.0316
f 74/120/3 47/117/3 75/121/3

v 10.2935 7.92 3.16999
vt 109.449 48.0316
f 75/121/3 47/117/3 76/122/3

f 22/35/3 76/122/3 47/117/3

f 76/122/3 22/35/3 23/36/3

v 10.2735 8.41801 3.16999
vt -0.787402 67.638
vt -1.53477e-12 48.0316
vt -5.68434e-14 67.638
f 77/123/2 76/124/2 23/125/2

v 10.2735 7.92 3.16999
vt -0.787402 48.0316
f 76/124/2 77/123/2 78/126/2

vt -111.024 67.638
vt -109.449 48.0316
vt -109.449 67.638
f 46/127/1 78/128/1 77/129/1

vt -111.024 47.2442
f 48/130/1 78/128/1 46/127/1

v 10.2735 7.92 4.33
vt -63.7796 48.0316
f 78/128/1 48/130/1 79/131/1

v 10.2735 7.9 4.37
vt -62.2048 47.2442
f 48/130/1 80/132/1 79/131/1

vt -109.449 46.4568
f 48/130/1 70/133/1 80/132/1

vt -111.024 17.5198
f 50/134/1 70/133/1 48/130/1

vt -109.449 16.7324
f 50/134/1 69/135/1 70/133/1

v 10.2735 7.125 2.70499
vt -127.756 16.7324
f 81/136/1 69/135/1 50/134/1

v 10.2735 7.105 2.74499
vt -126.181 15.945
f 81/136/1 82/137/1 69/135/1

v 10.2735 6.72 2.74499
vt -126.181 0.787408
f 81/136/1 83/138/1 82/137/1

vt -127.756 0.787402
f 40/139/1 83/138/1 81/136/1

vt -42.1261 0.787407
f 83/138/1 40/139/1 62/140/1

f 40/139/1 11/11/1 62/140/1

f 11/11/1 40/139/1 9/9/1

vt -40.5512 21.6536
f 62/140/1 11/11/1 36/141/1

v 10.2735 7.23 4.88
vt -42.1261 20.8662
f 62/140/1 36/141/1 84/142/1

vt -62.2048 20.8662
f 84/142/1 36/141/1 64/143/1

v 10.2735 7.25 4.33
vt -63.7796 21.6536
f 85/144/1 64/143/1 36/141/1

vt -63.7796 0.787539
f 67/145/1 64/143/1 85/144/1

vt -62.2048 0.787534
f 64/143/1 67/145/1 63/146/1

vt -109.449 0.787539
f 68/147/1 63/146/1 67/145/1

v 10.2735 6.72 3.12999
vt -111.024 0.787533
f 86/148/1 63/146/1 68/147/1

f 83/138/1 63/146/1 86/148/1

f 63/146/1 83/138/1 62/140/1

vn 5.35748e-11 1 -8.23958e-06
vt 126.181 1.60996e-12
f 86/80/10 61/149/10 83/82/10

vt 111.024 1.60996e-12
f 61/149/10 86/80/10 59/150/10

vt 0.787402 0.787533
vt 1.59162e-12 15.945
vt 1.59162e-12 0.787533
f 86/151/4 57/152/4 59/153/4

v 10.2735 7.105 3.12999
vt 0.787402 15.945
f 57/152/4 86/151/4 87/154/4

vt -111.024 15.945
f 86/148/1 68/147/1 87/155/1

f 87/155/1 68/147/1 69/135/1

f 87/155/1 69/135/1 82/137/1

vt -111.024 1.96251e-12
f 82/70/5 57/156/5 87/72/5

v 10.2935 7.105 2.74499
vt -126.181 1.96251e-12
f 57/156/5 82/70/5 88/157/5

vt -0.787402 15.945
vt -1.59162e-12 0.787408
vt -1.59162e-12 15.945
f 82/158/2 61/159/2 88/160/2

vt -0.787402 0.787408
f 61/159/2 82/158/2 83/161/2

vt 126.181 15.945
f 61/96/3 55/90/3 88/162/3

f 61/96/3 39/59/3 55/90/3

f 39/59/3 61/96/3 38/57/3

vt 1.59162e-12 16.7324
f 40/20/4 55/163/4 39/41/4

vt 0.787402 16.7324
f 55/163/4 40/20/4 81/164/4

vt 1.59162e-12 46.4568
f 81/164/4 54/165/4 55/163/4

v 10.2735 7.88 2.70499
vt 0.787402 46.4568
f 54/165/4 81/164/4 89/166/4

vt -126.181 17.5198
vt -127.756 46.4568
f 81/136/1 52/167/1 89/168/1

f 52/167/1 81/136/1 50/134/1

f 89/168/1 52/167/1 3/3/1

f 89/168/1 3/3/1 8/8/1

f 7/7/1 8/8/1 3/3/1

f 7/7/1 3/3/1 2/2/1

vt 142.913 2.65202e-12
f 2/59/6 42/169/6 7/22/6

v 10.2935 7.92 2.70499
vt 127.756 2.65202e-12
f 42/169/6 2/59/6 90/170/6

vt 1.53477e-12 48.0316
vt 0.787402 48.0316
f 4/74/4 90/171/4 2/172/4

vt 5.68434e-14 67.638
f 90/171/4 4/74/4 44/173/4

vn -5.35748e-11 -1 8.23988e-06
vt -127.756 1.63017e-12
f 6/9/11 44/174/11 4/139/11

vt -142.913 1.63017e-12
f 44/174/11 6/9/11 43/175/11

vt -0.787402 67.6379
vt -5.68434e-14 67.6379
f 6/176/2 42/124/2 43/177/2

f 42/124/2 6/176/2 7/126/2

vt 127.756 48.0316
f 45/68/3 90/178/3 44/67/3

f 53/89/3 90/178/3 45/68/3

f 90/178/3 53/89/3 42/65/3

f 54/88/3 42/65/3 53/89/3

f 41/64/3 42/65/3 54/88/3

vt -127.756 2.67223e-12
vt -142.913 2.67223e-12
f 54/179/5 8/9/5 41/180/5

f 8/9/5 54/179/5 89/139/5

vt -3.97904e-13 67.638
f 1/123/2 53/86/2 45/181/2

f 53/86/2 1/123/2 3/84/2

f 88/162/3 55/90/3 57/92/3

v 10.2935 7.25 4.33
vt 1.59162e-12 21.6536
vn -4.19054e-13 -4.45283e-09 -1
vt 0.787402 0.78754
vt 0.787402 21.6536
f 91/182/12 67/183/12 85/184/12

vt 1.59162e-12 0.78754
f 67/183/12 91/182/12 66/185/12

vt 63.7796 21.6536
f 65/106/3 66/105/3 91/186/3

v 10.2935 7.23 4.88
vt 42.1261 20.8662
f 65/106/3 91/186/3 92/187/3

f 92/187/3 91/186/3 37/58/3

v 10.2935 7.27 4.88
vt 42.1261 22.441
f 37/58/3 91/186/3 93/188/3

v 10.2935 7.27 4.37
vt 62.2048 22.441
f 93/188/3 91/186/3 94/189/3

f 73/119/3 94/189/3 91/186/3

f 94/189/3 73/119/3 74/120/3

vn 4.19053e-13 -3.66889e-09 1
vt -1.87583e-12 22.441
f 80/84/13 94/190/13 74/86/13

v 10.2735 7.27 4.37
vt -0.787402 22.441
f 94/190/13 80/84/13 95/191/13

v 10.2735 7.88 4.33
vt -63.7796 46.4568
vt -62.2048 22.441
f 96/192/1 95/193/1 80/132/1

f 85/144/1 95/193/1 96/192/1

v 10.2735 7.27 4.88
vt -42.1261 22.441
f 95/193/1 85/144/1 97/194/1

f 85/144/1 36/141/1 97/194/1

v 10.2735 7.593 4.92
vt -40.5512 35.1575
f 97/194/1 36/141/1 98/195/1

vt -0.787402 35.1575
f 37/56/2 98/196/2 36/55/2

v 10.2935 7.593 4.92
vt -1.59162e-12 35.1575
f 98/196/2 37/56/2 99/197/2

vt 40.5512 35.1575
f 37/58/3 93/188/3 99/198/3

v 10.2935 7.613 4.88
vt 42.1261 35.9449
f 99/198/3 93/188/3 100/199/3

vt 1.76215e-12 22.441
v 10.2735 7.613 4.88
vt 0.787402 35.9449
vt 1.3074e-12 35.9449
f 93/200/4 101/201/4 100/202/4

vt 0.787402 22.441
f 101/201/4 93/200/4 97/203/4

vt 62.2048 2.39782e-12
vt 42.1261 2.28414e-12
f 94/204/6 97/98/6 93/205/6

f 97/98/6 94/204/6 95/100/6

vt -42.1261 35.9449
f 97/194/1 98/195/1 101/206/1

vt -12.9921 35.9449
f 101/206/1 98/195/1 31/207/1

v 10.2735 7.593 5.58
vt -14.567 35.1575
f 102/208/1 31/207/1 98/195/1

vt -14.567 0.787402
f 35/209/1 31/207/1 102/208/1

vt -12.9921 0.787402
f 31/207/1 35/209/1 30/210/1

f 11/11/1 30/210/1 35/209/1

f 11/11/1 12/12/1 30/210/1

vt 1.59162e-12 35.1575
vt 0.787402 35.1575
f 33/211/4 35/20/4 102/212/4

f 35/20/4 33/211/4 34/41/4

vt -14.567 2.4094e-12
f 98/11/5 33/213/5 102/209/5

vt -40.5512 2.4094e-12
f 33/213/5 98/11/5 99/214/5

f 99/198/3 100/199/3 33/49/3

f 32/50/3 33/49/3 100/199/3

v 10.2935 7.633 4.92
vt 40.5512 36.7323
f 32/50/3 100/199/3 103/215/3

v 10.2935 8.418 4.88
vt 42.1261 67.6379
f 103/215/3 100/199/3 104/216/3

v 10.2735 8.418 4.88
vt 2.27374e-13 67.6379
f 100/202/4 105/38/4 104/217/4

f 105/38/4 100/202/4 101/201/4

v 10.2735 7.633 4.92
vt -40.5512 36.7323
vt -42.1261 67.6379
f 101/206/1 106/218/1 105/219/1

v 10.2735 7.633 5.58
vt -14.567 36.7323
f 106/218/1 101/206/1 107/220/1

f 101/206/1 31/207/1 107/220/1

v 10.2735 8.068 5.62
vt -12.9921 53.8584
f 107/220/1 31/207/1 108/221/1

vt -0.787402 53.8584
f 32/48/2 108/222/2 31/47/2

v 10.2935 8.068 5.62
vt -1.47793e-12 53.8584
f 108/222/2 32/48/2 109/223/2

v 10.2935 7.633 5.58
vt 14.567 36.7323
vt 12.9921 53.8584
f 32/50/3 110/224/3 109/225/3

f 110/224/3 32/50/3 103/215/3

vt 40.5512 2.33235e-12
vt 14.567 2.55972e-12
f 103/226/6 107/51/6 110/227/6

f 107/51/6 103/226/6 106/21/6

vt -1.47793e-12 36.7323
v 10.2735 8.418 4.92
vt -0.787402 36.7323
f 103/228/2 111/176/2 106/229/2

v 10.2935 8.418 4.92
vt 2.59942e-29 67.6379
f 111/176/2 103/228/2 112/230/2

vt 40.5512 67.6379
f 103/215/3 104/216/3 112/231/3

f 104/216/3 24/37/3 112/231/3

v 10.2935 8.418 4.37
vt 62.2048 67.6379
f 113/232/3 24/37/3 104/216/3

v 10.2935 8.418 4.33
vt 63.7796 67.6379
f 114/233/3 24/37/3 113/232/3

v 10.2935 8.418 3.52001
vt 95.6688 67.6379
f 115/234/3 24/37/3 114/233/3

v 10.2935 7.92 3.52001
vt 95.6688 48.0316
f 116/235/3 24/37/3 115/234/3

v 10.2935 7.92 3.48001
vt 97.2436 48.0316
f 24/37/3 116/235/3 117/236/3

f 75/121/3 117/236/3 116/235/3

f 75/121/3 76/122/3 117/236/3

vt 109.449 2.65202e-12
v 10.2735 7.92 3.48001
vt 97.2436 0.787402
vt 97.2436 2.65202e-12
f 76/237/6 118/238/6 117/239/6

f 118/238/6 76/237/6 78/110/6

v 10.2735 7.92 3.52001
vt -95.6688 48.0316
vt -97.2436 48.0316
f 78/128/1 119/240/1 118/241/1

f 78/128/1 79/131/1 119/240/1

vt 95.6688 2.65202e-12
vt 95.6688 0.787402
f 79/108/6 116/242/6 119/243/6

vt 63.7796 2.65202e-12
f 116/242/6 79/108/6 75/244/6

v 10.2735 8.418 4.33
vn -4.19054e-13 -4.55092e-09 -1
f 120/38/14 75/171/14 79/172/14

vt 5.68434e-14 67.6379
f 75/171/14 120/38/14 114/245/14

v 10.2735 8.418 3.52001
vt -95.6688 0.787402
vt -63.7796 1.63014e-12
vt -63.7796 0.787402
f 121/246/5 114/247/5 120/248/5

vt -95.6688 1.63014e-12
f 114/247/5 121/246/5 115/249/5

f 121/176/2 116/124/2 115/177/2

f 116/124/2 121/176/2 119/126/2

vt -95.6688 67.6379
f 121/250/1 118/241/1 119/240/1

v 10.2735 8.418 3.48001
vt -97.2436 67.6379
f 118/241/1 121/250/1 122/251/1

f 121/250/1 14/14/1 122/251/1

vt -63.7796 67.6379
f 120/252/1 14/14/1 121/250/1

v 10.2735 8.418 4.37
vt -62.2048 67.6379
f 123/253/1 14/14/1 120/252/1

f 105/219/1 14/14/1 123/253/1

vt -40.5512 67.6379
f 111/254/1 14/14/1 105/219/1

v 10.2735 8.418 5.58
vt -14.567 67.6379
f 124/255/1 14/14/1 111/254/1

v 10.2735 8.418 5.62
vt -12.9921 67.6379
f 125/256/1 14/14/1 124/255/1

v 10.2735 8.418 5.93
f 126/176/1 14/14/1 125/256/1

v 10.2735 8.108 5.93
vt -0.787402 55.4332
f 127/257/1 14/14/1 126/176/1

f 28/222/1 14/14/1 127/257/1

f 12/12/1 14/14/1 28/222/1

f 28/222/1 127/257/1 108/221/1

v 10.2735 8.088 5.58
vt -14.567 54.6458
f 108/221/1 127/257/1 128/258/1

v 10.2735 8.108 5.62
vt -12.9921 55.4332
f 129/259/1 128/258/1 127/257/1

f 128/258/1 129/259/1 124/255/1

f 124/255/1 129/259/1 125/256/1

v 10.2935 8.108 5.62
vt -1.3074e-12 55.4332
f 130/260/2 125/176/2 129/257/2

v 10.2935 8.418 5.62
vt 8.32824e-30 67.6379
f 125/176/2 130/260/2 131/261/2

vt 12.9921 55.4332
v 10.2935 8.418 5.58
vt 14.567 67.6379
vt 12.9921 67.6379
f 130/262/3 132/263/3 131/264/3

v 10.2935 8.088 5.58
vt 14.567 54.6458
f 132/263/3 130/262/3 133/265/3

f 26/39/3 133/265/3 130/262/3

f 26/39/3 27/40/3 133/265/3

f 109/225/3 133/265/3 27/40/3

f 109/225/3 110/224/3 133/265/3

vt 1.7053e-12 36.7323
vt 0.787402 54.6458
vt 8.52651e-13 54.6458
f 110/266/4 128/267/4 133/268/4

vt 0.787402 36.7323
f 128/267/4 110/266/4 107/269/4

f 107/220/1 108/221/1 128/258/1

f 124/38/4 133/268/4 128/267/4

f 133/268/4 124/38/4 132/217/4

vt -14.567 1.80067e-12
f 111/11/5 132/270/5 124/209/5

vt -40.5512 1.5733e-12
f 132/270/5 111/11/5 112/271/5

f 112/231/3 24/37/3 132/263/3

f 132/263/3 24/37/3 131/264/3

f 131/264/3 24/37/3 25/38/3

vt -0.787402 1.5733e-12
vt -12.9921 1.5733e-12
f 25/272/5 125/210/5 131/273/5

f 125/210/5 25/272/5 126/12/5

vt 1.3074e-12 55.4332
vt -5.04741e-31 67.6379
f 26/274/4 126/38/4 25/275/4

f 126/38/4 26/274/4 127/39/4

vt 12.9921 2.59681e-12
vt 0.787402 2.59681e-12
f 130/276/6 127/20/6 26/277/6

f 127/20/6 130/276/6 129/45/6

vt -0.787402 2.67386e-12
vt -12.9921 2.73071e-12
f 27/278/5 108/210/5 109/279/5

f 108/210/5 27/278/5 28/12/5

f 105/219/1 106/218/1 111/254/1

vt -62.2048 0.787402
vt -42.1261 1.80067e-12
vt -42.1261 0.787402
f 123/280/5 104/281/5 105/282/5

vt -62.2048 1.91436e-12
f 104/281/5 123/280/5 113/283/5

vn 4.19054e-13 4.55092e-09 1
vt -3.41061e-13 67.6379
f 123/176/15 74/86/15 113/284/15

f 74/86/15 123/176/15 80/84/15

f 79/131/1 80/132/1 123/253/1

f 79/131/1 123/253/1 120/252/1

f 74/120/3 75/121/3 113/232/3

f 113/232/3 75/121/3 114/233/3

f 122/251/1 14/14/1 77/129/1

f 77/129/1 14/14/1 46/127/1

f 46/127/1 14/14/1 1/1/1

f 5/5/1 1/1/1 14/14/1

vt -109.45 0.787402
vn -5.35749e-11 -1 -1.00047e-05
vt -97.2443 1.63012e-12
vt -97.2443 0.787402
f 77/285/16 24/286/16 122/287/16

vt -109.45 1.63012e-12
f 24/286/16 77/285/16 23/288/16

f 117/171/4 122/38/4 24/245/4

f 122/38/4 117/171/4 118/172/4

vn -4.19053e-13 3.66889e-09 -1
f 73/165/17 85/184/17 96/166/17

f 85/184/17 73/165/17 91/182/17

v 10.2735 7.88 3.50001
vt -96.4562 0.787402
vt -63.7796 2.67223e-12
f 134/289/5 73/290/5 96/248/5

vt -96.4562 2.67223e-12
f 73/290/5 134/289/5 72/291/5

vt -109.449 0.787402
f 70/292/5 72/291/5 134/289/5

vt -109.449 2.67223e-12
f 72/291/5 70/292/5 71/293/5

vt -96.4562 46.4568
f 134/294/1 80/132/1 70/133/1

f 96/192/1 80/132/1 134/294/1

f 37/58/3 38/57/3 92/187/3

vt 0.787402 0.787407
vt 1.59162e-12 20.8662
vt 1.59162e-12 0.787407
f 62/295/4 92/296/4 38/297/4

vt 0.787402 20.8662
f 92/296/4 62/295/4 84/298/4

vt -42.1261 2.07698e-12
f 64/280/5 92/299/5 84/282/5

vt -62.2048 2.07698e-12
f 92/299/5 64/280/5 65/300/5

