# Alias OBJ Model File
# Exported from SketchUp, (c) 2000-2012 Trimble Navigation Limited
# File units = meters

mtllib V5.mtl

g Mesh1 Group1 Model

usemtl FrontColor
v 4.64354 11.6252 0.3
vt 148.938 121.607
vn 0.707107 -5.76904e-09 -0.707107
v 9.99354 8.75 5.65
vt -148.938 8.41022
v 9.99354 8.73866 5.65
vt -148.938 7.96366
f 1/1/1 2/2/1 3/3/1

v 10.2935 8.75 5.95
vt -165.641 8.41022
f 2/2/1 1/1/1 4/4/1

v 4.64354 12.012 0.3
vt 148.938 136.837
f 4/4/1 1/1/1 5/5/1

vt 23.622 121.607
vn -3.39917e-10 -9.84179e-10 1
v 10.2935 8.75 0.3
vt 246.063 8.41022
vt 23.622 136.837
f 1/6/2 6/7/2 5/8/2

v 9.99354 8.75 0.3
vt 234.252 8.41022
f 1/6/2 7/9/2 6/7/2

v 9.99354 8.53638 0.3
vt 234.252 -1.64457e-07
f 7/9/2 1/6/2 8/10/2

vt -234.252 40.3463
vn -0.5 -0.866025 -1.64141e-09
v 9.99354 8.53638 8.41038e-09
vt -246.063 -202.868
vt -234.252 -202.868
f 1/11/3 9/12/3 8/13/3

v 4.34354 11.7984 9.89767e-09
vt -246.063 53.9845
f 1/11/3 10/14/3 9/12/3

v 4.34354 11.7984 0.3
vt -234.252 53.9845
f 10/14/3 1/11/3 11/15/3

vt -232.208 27.2489
vn -0.499732 -0.865562 0.0327258
v 9.99354 8.75 5.95
vt 3.52183 -198.782
vt -232.979 40.8653
f 1/16/4 12/17/4 11/18/4

vt -8.26395 -199.674
f 12/17/4 1/16/4 3/19/4

vt 23.622 8.41022
vn 1 1.71272e-23 2.32737e-09
vt 11.811 8.41022
vt 23.622 7.96366
f 2/20/5 12/21/5 3/22/5

v 9.99354 8.75 6.25
vt -234.252 1.91112e-10
vn 1.32227e-10 -1 6.09237e-11
vt -234.252 11.811
vt -234.252 23.622
f 13/23/6 12/24/6 2/25/6

v 9.69354 8.75 5.95
vt -222.441 11.811
f 12/24/6 13/23/6 14/26/6

v 4.34354 12.012 0.6
vt -148.938 136.837
vn -0.707107 5.30012e-09 0.707107
vt 148.938 8.41022
vt 165.641 8.41022
f 15/27/7 14/28/7 13/29/7

v 4.34354 11.6252 0.6
vt -148.938 121.607
f 14/28/7 15/27/7 16/30/7

vt 222.441 136.837
vn 1 8.33746e-10 3.80928e-10
v 4.34354 8.53638 5.95
vt 11.811 -4.21054e-10
vt 222.441 121.607
f 15/31/8 17/32/8 16/33/8

v 4.34354 8.75 5.95
f 15/31/8 18/21/8 17/32/8

v 4.34354 8.75 6.25
vt 1.06006e-07 8.41022
f 18/21/8 15/31/8 19/34/8

v 4.34354 12.1852 0.3
vt 11.811 274.696
vn -4.36647e-10 0.866025 0.5
vt 11.811 4.20511
vt 11.811 261.058
f 20/35/9 19/36/9 15/37/9

v 4.04354 8.75 6.25
vt 3.31752e-08 4.20511
f 20/35/9 21/38/9 19/36/9

v 4.04354 12.1852 0.3
vt -2.02023e-07 274.696
f 21/38/9 20/35/9 22/39/9

vt -11.811 128.426
vn 3.51099e-10 2.36334e-10 -1
vt 7.96973e-08 143.656
vt -11.811 143.656
f 11/40/10 22/41/10 20/42/10

v 4.04354 11.7984 0.3
vt 8.22457e-08 128.426
f 22/41/10 11/40/10 23/43/10

vt -11.811 267.081
vn 8.68717e-10 -0.866025 -0.5
v 4.04354 8.53638 5.95
vt -1.0843e-08 10.2286
vt 4.06997e-07 267.081
f 11/44/11 24/45/11 23/46/11

vt -11.811 10.2286
f 24/45/11 11/44/11 17/47/11

vt -11.811 253.443
f 17/47/11 11/44/11 16/48/11

vt -232.979 27.6629
vn 0.0327258 -0.865562 -0.499732
vt 2.75002 253.694
vt 3.52183 267.31
f 12/49/12 16/50/12 11/51/12

v 9.69354 8.73866 5.95
vt -221.194 26.7712
f 16/50/12 12/49/12 25/52/12

vt 222.441 8.41022
vn -4.74544e-09 2.28363e-23 1
vt 222.441 7.96366
f 14/53/13 25/54/13 12/9/13

vt 148.938 7.96366
f 16/30/7 25/55/7 14/28/7

vt 11.811 -9.51806e-09
vn -3.51072e-10 -1.60396e-09 1
v 4.04354 8.75 5.95
vt 2.89982e-08 8.41022
vt 2.72174e-08 -1.89444e-08
f 17/56/14 26/57/14 24/58/14

f 26/57/14 17/56/14 18/21/14

vt -11.811 11.811
vn 7.98099e-10 -1 -2.54707e-10
vt -3.98874e-08 1.07796e-07
vt -3.98569e-08 11.811
f 18/59/15 21/60/15 26/61/15

vt -11.811 1.03649e-07
f 21/60/15 18/59/15 19/62/15

vt -234.252 143.656
vn -1 -7.98099e-10 -3.51072e-10
vt -11.811 8.41022
vt -1.05653e-07 8.41022
f 22/63/16 26/64/16 21/65/16

vt -11.811 -2.17222e-17
f 26/64/16 22/63/16 24/66/16

vt -234.252 128.426
f 24/66/16 22/63/16 23/67/16

v 4.34354 12.1852 9.91484e-09
vt -246.063 143.656
vn -1 7.44559e-11 -5.57013e-09
f 27/68/17 11/67/17 20/63/17

vt -246.063 128.426
f 11/67/17 27/68/17 10/69/17

v 10.2935 8.75 8.4096e-09
vt -246.063 8.41022
vn 3.51071e-10 1.00982e-09 -1
f 28/70/18 10/40/18 27/42/18

v 9.99354 8.75 8.41038e-09
vt -234.252 8.41022
f 29/71/18 10/40/18 28/70/18

vt -234.252 -1.70463e-07
f 10/40/18 29/71/18 9/72/18

vn 1 -1.34923e-09 3.51071e-10
vt 246.063 3.94075e-07
f 7/9/19 9/73/19 29/7/19

vt 234.252 3.82148e-07
f 9/73/19 7/9/19 8/74/19

vt -234.252 246.063
vn 2.40637e-14 -1 -1.00982e-09
vt -246.063 234.252
vt -234.252 234.252
f 29/75/20 6/76/20 7/77/20

vt -246.063 246.063
f 6/76/20 29/75/20 28/78/20

vt 246.063 -208.892
vn 0.5 0.866025 -2.13335e-10
vt 234.252 47.961
vt 234.252 -208.892
f 28/79/21 5/80/21 6/81/21

vt 246.063 61.5992
f 5/80/21 28/79/21 27/82/21

v 10.2935 8.75 6.25
vt -1.04988e-07 -208.892
f 27/82/21 30/83/21 5/80/21

vt 234.252 61.5992
f 30/83/21 27/82/21 20/84/21

vt 246.063 4.20511
f 15/37/9 30/85/9 20/35/9

vt 234.252 4.20511
f 30/85/9 15/37/9 13/86/9

vt -246.063 -5.12382e-10
f 13/23/6 2/25/6 30/87/6

vt -246.063 11.811
f 30/87/6 2/25/6 4/88/6

vt 11.811 -208.892
f 5/80/21 30/83/21 4/89/21

