# Alias OBJ Model File
# Exported from SketchUp, (c) 2000-2012 Trimble Navigation Limited
# File units = meters

mtllib V6.mtl

g Mesh1 Group1 Model

usemtl FrontColor
v -0.806464 2.45 6.25
vt 5.90551 1.08389e-09
vn 7.14105e-10 1.88697e-09 1
v -0.956464 3.615 6.25
vt 2.03249e-08 45.8661
v -0.956464 2.45 6.25
vt 3.29796e-07 -4.44399e-25
f 1/1/1 2/2/1 3/3/1

v -0.806464 2.615 6.25
vt 5.90551 6.49606
f 2/2/1 1/1/1 4/4/1

vn -1.58086e-10 -8.62286e-10 1
v 0.0935357 2.615 6.25
vt 41.3386 6.49606
f 1/1/2 5/5/2 4/4/2

v 0.0935357 2.45 6.25
vt 41.3386 -5.63507e-18
f 5/5/2 1/1/2 6/6/2

vt -5.90551 1.12029e-08
vn -2.41229e-12 -1 -9.76133e-14
v 0.0935357 2.45 6.47225e-09
vt -41.3386 246.063
vt -41.3386 9.73405e-24
f 1/7/3 7/8/3 6/9/3

vt -3.29796e-07 7.76576e-32
f 3/10/3 7/8/3 1/7/3

v -0.956464 2.45 6.19079e-09
vt -1.83131e-08 246.063
f 7/8/3 3/10/3 8/11/3

vt 1.13887e-16 -1.01043e-16
vn -1 -3.06381e-10 3.45324e-10
v -0.956464 2.75 3
vt -127.953 11.811
vt -246.063 1.37987e-11
f 3/12/4 9/13/4 8/14/4

vt -8.1541e-08 45.8661
f 9/13/4 3/12/4 2/15/4

v -0.956464 3.38 4.14998
vt -82.678 36.6142
f 9/13/4 2/15/4 10/16/4

v -0.956464 3.97672 4.14998
vt -82.678 60.1069
f 10/16/4 2/15/4 11/17/4

v -0.956464 6.75 2
vt -167.323 169.291
f 12/18/4 11/17/4 2/15/4

v -0.956464 3.97672 3.55
vt -106.299 60.1069
f 11/17/4 12/18/4 13/19/4

v -0.956464 4.70292 3
vt -127.953 88.6977
f 13/19/4 12/18/4 14/20/4

v -0.956464 4.70292 2.3
vt -155.512 88.6977
f 14/20/4 12/18/4 15/21/4

v -0.956464 2.75 2.3
vt -155.512 11.811
f 15/21/4 12/18/4 16/22/4

f 8/14/4 16/22/4 12/18/4

f 8/14/4 9/13/4 16/22/4

vt 7.41617e-08 127.953
vn -3.25853e-10 1 1.26896e-20
v -0.806464 2.75 2.3
vt 5.90551 155.512
vt 7.28598e-08 155.512
f 9/23/5 17/24/5 16/25/5

v -0.806464 2.75 3
vt 5.90551 127.953
f 17/24/5 9/23/5 18/26/5

vt -4.69839e-08 88.6977
vn -1.94714e-11 -6.72396e-21 -1
vt -5.90551 11.811
vt -7.28045e-08 11.811
f 14/27/6 18/28/6 9/29/6

v -0.806464 4.70292 3
vt -5.90551 88.6977
f 18/28/6 14/27/6 19/30/6

vt -7.36259e-08 155.512
vn 3.25853e-10 -1 -0
vt -5.90551 127.953
vt -7.33949e-08 127.953
f 15/31/7 19/32/7 14/33/7

v -0.806464 4.70292 2.3
vt -5.90551 155.512
f 19/32/7 15/31/7 20/34/7

vt 4.77515e-08 88.6977
vn 1.94714e-11 5.96569e-21 1
vt 5.90551 11.811
vt 5.90551 88.6977
f 15/35/8 17/36/8 20/37/8

vt 7.20391e-08 11.811
f 17/36/8 15/35/8 16/38/8

vn -1 -3.25854e-10 1.9438e-11
f 18/13/9 20/21/9 17/22/9

f 20/21/9 18/13/9 19/20/9

v -0.956464 3.38 3.55
vt -106.299 36.6142
f 9/13/4 21/39/4 14/20/4

f 9/13/4 10/16/4 21/39/4

v -0.806464 3.38 4.14998
vt 5.90551 82.678
vn -3.06382e-10 1 -0
vt 1.01058e-07 106.299
vt 1.01058e-07 82.678
f 22/40/10 21/41/10 10/42/10

v -0.806464 3.38 3.55
vt 5.90551 106.299
f 21/41/10 22/40/10 23/43/10

vn -1 -3.06382e-10 -0
v -0.806464 3.97672 3.55
f 22/16/11 24/19/11 23/39/11

v -0.806464 3.97672 4.14998
f 24/19/11 22/16/11 25/17/11

vt -5.90551 36.6142
vn 5.79062e-30 1.77414e-39 -1
vt -8.26426e-08 60.1069
vt -5.90551 60.1069
f 22/44/12 11/45/12 25/46/12

vt -8.98403e-08 36.6142
f 11/45/12 22/44/12 10/47/12

vt -1.01058e-07 82.678
vn 3.06382e-10 -1 -0
vt -5.90551 106.299
vt -5.90551 82.678
f 11/48/13 24/49/13 25/50/13

vt -1.01058e-07 106.299
f 24/49/13 11/48/13 13/51/13

vt 8.26426e-08 60.1069
vn -5.79062e-30 -1.77414e-39 1
vt 5.90551 36.6142
vt 5.90551 60.1069
f 13/52/14 23/53/14 24/54/14

vt 8.98403e-08 36.6142
f 23/53/14 13/52/14 21/55/14

f 13/19/4 14/20/4 21/39/4

v -0.956464 6.10085 0.64946
vt -220.494 143.734
f 8/14/4 12/18/4 26/56/4

v -0.956464 6.60085 0.64946
vt -220.494 163.419
f 26/56/4 12/18/4 27/57/4

v -0.956464 6.75 6.20416e-09
vt -246.063 169.291
f 28/58/4 27/57/4 12/18/4

v -0.956464 6.60085 0.14946
vt -240.179 163.419
f 27/57/4 28/58/4 29/59/4

v -0.956464 6.10085 0.14946
vt -240.179 143.734
f 29/59/4 28/58/4 30/60/4

f 8/14/4 30/60/4 28/58/4

f 8/14/4 26/56/4 30/60/4

v -0.806464 6.10085 0.64946
vt 5.90551 220.494
vt 5.00683e-08 240.179
vt 5.00683e-08 220.494
f 31/61/10 30/62/10 26/63/10

v -0.806464 6.10085 0.14946
vt 5.90551 240.179
f 30/62/10 31/61/10 32/64/10

vt 220.494 143.734
vn 1 -5.54631e-11 -6.95591e-10
v -0.806464 5.77 6.47237e-09
vt 246.063 130.709
vt 240.179 143.734
f 31/65/15 33/66/15 32/67/15

v -0.806464 6.75 2
vt 167.323 169.291
f 34/68/15 33/66/15 31/65/15

v -0.806464 5.77 2
vt 167.323 130.709
f 34/68/15 35/69/15 33/66/15

v -0.806464 5.585 2.223
vt 158.543 123.425
f 34/68/15 36/70/15 35/69/15

v -0.806464 5.42 2.446
vt 149.764 116.929
f 34/68/15 37/71/15 36/70/15

v -0.806464 5.255 2.669
vt 140.984 110.433
f 34/68/15 38/72/15 37/71/15

v -0.806464 5.09 2.892
vt 132.205 103.937
f 34/68/15 39/73/15 38/72/15

v -0.806464 4.925 3.115
vt 123.425 97.4409
f 34/68/15 40/74/15 39/73/15

v -0.806464 4.76 3.338
vt 114.646 90.9449
f 34/68/15 41/75/15 40/74/15

v -0.806464 4.595 3.561
vt 105.866 84.4488
f 34/68/15 42/76/15 41/75/15

v -0.806464 4.43 3.784
vt 97.0866 77.9528
f 34/68/15 43/77/15 42/76/15

v -0.806464 4.265 4.007
vt 88.3071 71.4567
f 34/68/15 44/78/15 43/77/15

v -0.806464 4.1 4.23
vt 79.5276 64.9606
f 34/68/15 45/79/15 44/78/15

v -0.806464 3.935 4.453
vt 70.748 58.4646
f 34/68/15 46/80/15 45/79/15

v -0.806464 3.77 4.676
vt 61.9685 51.9685
f 34/68/15 47/81/15 46/80/15

v -0.806464 3.605 4.899
vt 53.189 45.4724
f 34/68/15 48/82/15 47/81/15

v -0.806464 3.44 5.122
vt 44.4094 38.9764
f 34/68/15 49/83/15 48/82/15

v -0.806464 3.275 5.345
vt 35.6299 32.4803
f 34/68/15 50/84/15 49/83/15

v -0.806464 3.11 5.568
vt 26.8504 25.9843
f 34/68/15 51/85/15 50/84/15

v -0.806464 2.945 5.791
vt 18.0709 19.4882
f 34/68/15 52/86/15 51/85/15

v -0.806464 2.78 6.014
vt 9.29134 12.9921
f 34/68/15 53/87/15 52/86/15

v -0.806464 3.615 6.25
vt 8.86361e-08 45.8661
f 54/88/15 53/87/15 34/68/15

v -0.806464 2.615 6.014
vt 9.29134 6.49606
f 54/88/15 55/89/15 53/87/15

vt -4.10782e-09 6.49606
f 55/89/15 54/88/15 4/90/15

vt 5.90551 45.8661
f 2/2/1 4/4/1 54/91/1

vt 5.90551 27.227
vn 8.20294e-10 0.804746 0.593619
vt 2.5154e-07 235.147
vt 2.03249e-08 27.227
f 54/92/16 12/93/16 2/94/16

vt 5.90551 235.147
f 12/93/16 54/92/16 34/95/16

vt 5.90551 167.323
vn 1.89134e-10 1 -0
vt -1.06415e-08 246.063
vt -1.16937e-08 167.323
f 34/96/17 28/97/17 12/98/17

v -0.806464 6.75 6.18689e-09
vt 5.90551 246.063
f 28/97/17 34/96/17 56/99/17

v -0.806464 6.60085 0.64946
vt 220.494 163.419
vt 246.063 169.291
f 34/68/15 57/100/15 56/101/15

f 57/100/15 34/68/15 31/65/15

vt -5.90551 143.734
vn 1.55939e-26 4.77769e-36 -1
vt 3.43836e-24 163.419
vt -5.90551 163.419
f 31/102/18 27/103/18 57/104/18

vt -6.03086e-09 143.734
f 27/103/18 31/102/18 26/105/18

vt -5.00686e-08 220.494
v -0.806464 6.60085 0.14946
vt -5.90551 240.179
vt -5.90551 220.494
f 27/106/13 58/107/13 57/108/13

vt -5.00686e-08 240.179
f 58/107/13 27/106/13 29/109/13

vt -3.74533e-24 163.419
vn -1.55939e-26 -4.77769e-36 1
vt 5.90551 143.734
vt 5.90551 163.419
f 29/110/19 32/111/19 58/112/19

vt 6.03086e-09 143.734
f 32/111/19 29/110/19 30/113/19

vt 240.179 163.419
f 32/67/15 33/66/15 58/114/15

f 56/101/15 58/114/15 33/66/15

f 56/101/15 57/100/15 58/114/15

vt -5.90551 130.709
vn 2.47718e-10 1.11417e-11 -1
vt 3.95771e-08 169.291
vt -5.90551 169.291
f 33/115/20 28/116/20 56/117/20

vt 4.26411e-08 -2.72776e-09
f 33/115/20 8/118/20 28/116/20

vt -41.3386 -2.14874e-09
f 8/118/20 33/115/20 7/119/20

v 0.0935357 5.77 6.47237e-09
vt -41.3386 130.709
f 59/120/20 7/119/20 33/115/20

v 0.0935357 5.77 2
vn 1 0 -0
vt 246.063 5.9282e-10
f 60/69/21 7/121/21 59/66/21

v 0.0935357 5.75 2
vt 167.323 129.921
f 61/122/21 7/121/21 60/69/21

v 0.0935357 5.585 2
vt 167.323 123.425
f 62/123/21 7/121/21 61/122/21

v 0.0935357 5.585 2.223
f 63/70/21 7/121/21 62/123/21

v 0.0935357 5.42 2.223
vt 158.543 116.929
f 64/124/21 7/121/21 63/70/21

v 0.0935357 5.42 2.446
f 65/71/21 7/121/21 64/124/21

v 0.0935357 5.255 2.446
vt 149.764 110.433
f 66/125/21 7/121/21 65/71/21

v 0.0935357 5.255 2.669
f 67/72/21 7/121/21 66/125/21

v 0.0935357 5.09 2.669
vt 140.984 103.937
f 68/126/21 7/121/21 67/72/21

v 0.0935357 5.09 2.892
f 69/73/21 7/121/21 68/126/21

v 0.0935357 4.925 2.892
vt 132.205 97.4409
f 70/127/21 7/121/21 69/73/21

v 0.0935357 4.925 3.115
f 71/74/21 7/121/21 70/127/21

v 0.0935357 4.76 3.115
vt 123.425 90.9449
f 72/128/21 7/121/21 71/74/21

v 0.0935357 4.76 3.338
f 73/75/21 7/121/21 72/128/21

v 0.0935357 4.595 3.338
vt 114.646 84.4488
f 74/129/21 7/121/21 73/75/21

v 0.0935357 4.595 3.561
f 75/76/21 7/121/21 74/129/21

v 0.0935357 4.43 3.561
vt 105.866 77.9528
f 76/130/21 7/121/21 75/76/21

v 0.0935357 4.43 3.784
f 77/77/21 7/121/21 76/130/21

v 0.0935357 4.265 3.784
vt 97.0866 71.4567
f 78/131/21 7/121/21 77/77/21

v 0.0935357 4.265 4.007
f 79/78/21 7/121/21 78/131/21

v 0.0935357 4.1 4.007
vt 88.3071 64.9606
f 80/132/21 7/121/21 79/78/21

v 0.0935357 4.1 4.23
f 81/79/21 7/121/21 80/132/21

v 0.0935357 3.935 4.23
vt 79.5276 58.4646
f 82/133/21 7/121/21 81/79/21

v 0.0935357 3.935 4.453
f 83/80/21 7/121/21 82/133/21

v 0.0935357 3.77 4.453
vt 70.748 51.9685
f 84/134/21 7/121/21 83/80/21

v 0.0935357 3.77 4.676
f 85/81/21 7/121/21 84/134/21

v 0.0935357 3.605 4.676
vt 61.9685 45.4724
f 86/135/21 7/121/21 85/81/21

v 0.0935357 3.605 4.899
f 87/82/21 7/121/21 86/135/21

v 0.0935357 3.44 4.899
vt 53.189 38.9764
f 88/136/21 7/121/21 87/82/21

v 0.0935357 3.44 5.122
f 89/83/21 7/121/21 88/136/21

v 0.0935357 3.275 5.122
vt 44.4094 32.4803
f 90/137/21 7/121/21 89/83/21

v 0.0935357 3.275 5.345
f 91/84/21 7/121/21 90/137/21

v 0.0935357 3.11 5.345
vt 35.6299 25.9843
f 92/138/21 7/121/21 91/84/21

v 0.0935357 3.11 5.568
f 93/85/21 7/121/21 92/138/21

v 0.0935357 2.945 5.568
vt 26.8504 19.4882
f 94/139/21 7/121/21 93/85/21

v 0.0935357 2.945 5.791
f 95/86/21 7/121/21 94/139/21

v 0.0935357 2.78 5.791
vt 18.0709 12.9921
f 96/140/21 7/121/21 95/86/21

v 0.0935357 2.78 6.014
f 97/87/21 7/121/21 96/140/21

v 0.0935357 2.615 6.014
f 98/89/21 7/121/21 97/87/21

vt 0 6.49606
f 5/141/21 7/121/21 98/89/21

vt 0 0
f 7/121/21 5/141/21 6/142/21

vt 5.90551 9.29134
vn 0 1 -0
vt 41.3386 0
vt 41.3386 9.29134
f 55/143/22 5/144/22 98/145/22

vt 5.90551 0
f 5/144/22 55/143/22 4/146/22

vt 41.3386 12.9921
vn 0 0 1
f 97/147/23 55/4/23 98/5/23

vt 5.90551 12.9921
f 55/4/23 97/147/23 53/148/23

v -0.806464 2.78 5.791
vt 5.90551 18.0709
f 97/145/22 99/149/22 53/143/22

vt 41.3386 18.0709
f 99/149/22 97/145/22 96/150/22

vt 41.3386 19.4882
f 95/151/23 99/148/23 96/147/23

vt 5.90551 19.4882
f 99/148/23 95/151/23 52/152/23

v -0.806464 2.945 5.568
vt 5.90551 26.8504
f 95/150/22 100/153/22 52/149/22

vt 41.3386 26.8504
f 100/153/22 95/150/22 94/154/22

vt 41.3386 25.9843
f 93/155/23 100/152/23 94/151/23

vt 5.90551 25.9843
f 100/152/23 93/155/23 51/156/23

v -0.806464 3.11 5.345
vt 5.90551 35.6299
f 93/154/22 101/157/22 51/153/22

vt 41.3386 35.6299
f 101/157/22 93/154/22 92/158/22

vt 41.3386 32.4803
f 91/159/23 101/156/23 92/155/23

vt 5.90551 32.4803
f 101/156/23 91/159/23 50/160/23

v -0.806464 3.275 5.122
vt 5.90551 44.4094
f 91/158/22 102/161/22 50/157/22

vt 41.3386 44.4094
f 102/161/22 91/158/22 90/162/22

vt 41.3386 38.9764
f 89/163/23 102/160/23 90/159/23

vt 5.90551 38.9764
f 102/160/23 89/163/23 49/164/23

v -0.806464 3.44 4.899
vt 5.90551 53.189
f 89/162/22 103/165/22 49/161/22

vt 41.3386 53.189
f 103/165/22 89/162/22 88/166/22

vt 41.3386 45.4724
f 87/167/23 103/164/23 88/163/23

vt 5.90551 45.4724
f 103/164/23 87/167/23 48/168/23

v -0.806464 3.605 4.676
vt 5.90551 61.9685
f 87/166/22 104/169/22 48/165/22

vt 41.3386 61.9685
f 104/169/22 87/166/22 86/170/22

vt 41.3386 51.9685
f 85/171/23 104/168/23 86/167/23

vt 5.90551 51.9685
f 104/168/23 85/171/23 47/172/23

v -0.806464 3.77 4.453
vt 5.90551 70.748
f 85/170/22 105/173/22 47/169/22

vt 41.3386 70.748
f 105/173/22 85/170/22 84/174/22

vt 41.3386 58.4646
f 83/175/23 105/172/23 84/171/23

vt 5.90551 58.4646
f 105/172/23 83/175/23 46/176/23

v -0.806464 3.935 4.23
vt 5.90551 79.5276
f 83/174/22 106/177/22 46/173/22

vt 41.3386 79.5276
f 106/177/22 83/174/22 82/178/22

vt 41.3386 64.9606
f 81/179/23 106/176/23 82/175/23

vt 5.90551 64.9606
f 106/176/23 81/179/23 45/180/23

v -0.806464 4.1 4.007
vt 5.90551 88.3071
f 81/178/22 107/181/22 45/177/22

vt 41.3386 88.3071
f 107/181/22 81/178/22 80/182/22

vt 41.3386 71.4567
f 79/183/23 107/180/23 80/179/23

vt 5.90551 71.4567
f 107/180/23 79/183/23 44/184/23

v -0.806464 4.265 3.784
vt 5.90551 97.0866
f 79/182/22 108/185/22 44/181/22

vt 41.3386 97.0866
f 108/185/22 79/182/22 78/186/22

vt 41.3386 77.9528
f 77/187/23 108/184/23 78/183/23

vt 5.90551 77.9528
f 108/184/23 77/187/23 43/188/23

v -0.806464 4.43 3.561
vt 5.90551 105.866
f 77/186/22 109/189/22 43/185/22

vt 41.3386 105.866
f 109/189/22 77/186/22 76/190/22

vt 41.3386 84.4488
f 75/191/23 109/188/23 76/187/23

vt 5.90551 84.4488
f 109/188/23 75/191/23 42/192/23

v -0.806464 4.595 3.338
vt 5.90551 114.646
f 75/190/22 110/193/22 42/189/22

vt 41.3386 114.646
f 110/193/22 75/190/22 74/194/22

vt 41.3386 90.9449
f 73/195/23 110/192/23 74/191/23

vt 5.90551 90.9449
f 110/192/23 73/195/23 41/196/23

v -0.806464 4.76 3.115
vt 5.90551 123.425
f 73/194/22 111/197/22 41/193/22

vt 41.3386 123.425
f 111/197/22 73/194/22 72/198/22

vt 41.3386 97.4409
f 71/199/23 111/196/23 72/195/23

vt 5.90551 97.4409
f 111/196/23 71/199/23 40/200/23

v -0.806464 4.925 2.892
vt 5.90551 132.205
f 71/198/22 112/201/22 40/197/22

vt 41.3386 132.205
f 112/201/22 71/198/22 70/202/22

vt 41.3386 103.937
f 69/203/23 112/200/23 70/199/23

vt 5.90551 103.937
f 112/200/23 69/203/23 39/204/23

v -0.806464 5.09 2.669
vt 5.90551 140.984
f 69/202/22 113/205/22 39/201/22

vt 41.3386 140.984
f 113/205/22 69/202/22 68/206/22

vt 41.3386 110.433
f 67/207/23 113/204/23 68/203/23

vt 5.90551 110.433
f 113/204/23 67/207/23 38/208/23

v -0.806464 5.255 2.446
vt 5.90551 149.764
f 67/206/22 114/209/22 38/205/22

vt 41.3386 149.764
f 114/209/22 67/206/22 66/210/22

vt 41.3386 116.929
f 65/211/23 114/208/23 66/207/23

vt 5.90551 116.929
f 114/208/23 65/211/23 37/212/23

v -0.806464 5.42 2.223
vt 5.90551 158.543
f 65/210/22 115/213/22 37/209/22

vt 41.3386 158.543
f 115/213/22 65/210/22 64/214/22

f 63/198/23 115/212/23 64/211/23

f 115/212/23 63/198/23 36/197/23

v -0.806464 5.585 2
f 63/214/22 116/96/22 36/213/22

vt 41.3386 167.323
f 116/96/22 63/214/22 62/215/22

vt 41.3386 129.921
vn -7.73485e-10 2.44801e-09 1
f 61/216/24 116/197/24 62/198/24

vt 5.90551 130.709
f 116/197/24 61/216/24 35/217/24

vt 41.3386 130.709
f 35/217/24 61/216/24 60/218/24

vn 0 1 2.95984e-14
f 60/215/25 33/99/25 35/96/25

vt 41.3386 246.063
f 33/99/25 60/215/25 59/219/25

f 35/69/15 36/70/15 116/123/15

f 36/70/15 37/71/15 115/124/15

f 37/71/15 38/72/15 114/125/15

f 38/72/15 39/73/15 113/126/15

f 39/73/15 40/74/15 112/127/15

f 40/74/15 41/75/15 111/128/15

f 41/75/15 42/76/15 110/129/15

f 42/76/15 43/77/15 109/130/15

f 43/77/15 44/78/15 108/131/15

f 44/78/15 45/79/15 107/132/15

f 45/79/15 46/80/15 106/133/15

f 46/80/15 47/81/15 105/134/15

f 47/81/15 48/82/15 104/135/15

f 48/82/15 49/83/15 103/136/15

f 49/83/15 50/84/15 102/137/15

f 50/84/15 51/85/15 101/138/15

f 51/85/15 52/86/15 100/139/15

f 52/86/15 53/87/15 99/140/15

