# Alias OBJ Model File
# Exported from SketchUp, (c) 2000-2012 Trimble Navigation Limited
# File units = meters

mtllib V9.mtl

g Mesh1 Group1 Model

usemtl FrontColor
v 0.393536 8.45 6.18689e-09
vt -11.811 1.34688e-08
vn -1 9.30557e-11 7.71089e-12
v 0.393536 8.45 0.3
vt 1.03512e-20 1.42622e-08
v 0.393536 8.65 6.19162e-09
vt -11.811 7.87402
f 1/1/1 2/2/1 3/3/1

v 4.04354 8.45 6.08817e-09
vt -143.701 11.811
vn -8.66096e-11 -1 6.71761e-11
vt -1.34241e-09 -9.58082e-19
vt 1.16653e-18 11.811
f 4/4/2 2/5/2 1/6/2

v 4.34354 8.45 0.3
vt -155.512 4.20596e-09
f 2/5/2 4/4/2 5/7/2

v 4.34354 8.45 -3.65
vt -155.512 155.512
f 5/7/2 4/4/2 6/8/2

v 4.04354 8.45 -3.65
vt -143.701 155.512
f 6/8/2 4/4/2 7/9/2

vt -11.811 2.72957e-08
vn -1 1.82829e-10 2.70442e-11
v 4.04354 8.65 -3.65
vt -155.512 7.87402
vt -155.512 2.72957e-08
f 4/10/3 8/11/3 7/12/3

v 4.04354 8.65 6.0929e-09
f 8/11/3 4/10/3 9/3/3

vt -3.19438e-10 1.34289e-08
vn -2.70458e-11 3.38061e-12 -1
vt -143.701 7.87402
vt -143.701 9.83026e-10
f 1/13/4 9/14/4 4/15/4

vt -2.21073e-09 7.87402
f 9/14/4 1/13/4 3/16/4

vt -1.5814e-09 11.811
vn -3.93568e-11 -1 4.72528e-11
f 3/17/5 8/9/5 9/4/5

v 0.393536 8.65 -3.65
vt 1.58484e-07 155.512
f 8/9/5 3/17/5 10/18/5

v 0.393536 8.75 6.18689e-09
vt -11.811 11.811
vn -1 3.9272e-11 1.11388e-09
f 11/19/6 10/11/6 3/3/6

v 0.393536 8.75 -3.65
vt -155.512 11.811
f 10/11/6 11/19/6 12/20/6

v 4.04354 8.75 -3.65
vt 143.701 155.512
vn 6.49773e-11 1 2.25316e-11
vt -1.58787e-07 155.512
vt 1.27846e-09 11.811
f 13/21/7 12/22/7 11/23/7

vn -5.15425e-12 -4.73285e-11 -1
vt 1.57218e-07 11.811
f 8/14/8 12/24/8 13/4/8

vt 1.57372e-07 7.87402
f 12/24/8 8/14/8 10/25/8

v 4.34354 8.75 -3.65
vn -3.22107e-11 1.72104e-12 -1
f 14/20/9 8/14/9 13/4/9

vt -143.701 7.55313e-10
f 14/20/9 7/26/9 8/14/9

vt -155.512 -2.67642e-10
f 7/26/9 14/20/9 6/27/9

v 4.34354 8.75 0.3
vt -2.65278e-13 11.811
vn 1 -8.66101e-11 -2.70476e-11
vt 155.512 1.34689e-08
vt 155.512 11.811
f 15/28/10 6/29/10 14/30/10

vt -2.65278e-13 1.42623e-08
f 6/29/10 15/28/10 5/31/10

vn 2.70476e-11 0 1
vt 1.34241e-09 1.42622e-08
vt 155.512 7.9342e-10
f 15/30/11 2/32/11 5/33/11

v 0.393536 8.75 0.3
vt 1.34241e-09 11.811
f 2/32/11 15/30/11 16/34/11

vt 155.512 4.47208e-09
vt 5.74966e-10 2.66122e-10
f 15/35/7 11/23/7 16/36/7

f 11/23/7 15/35/7 13/21/7

vt 155.512 155.512
f 13/21/7 15/35/7 14/37/7

vt 1.03512e-20 11.811
f 11/19/1 2/2/1 16/38/1

f 2/2/1 11/19/1 3/3/1

