# Alias OBJ Model File
# Exported from SketchUp, (c) 2000-2012 Trimble Navigation Limited
# File units = meters

mtllib P12.mtl

g Mesh1 Model

usemtl Color_E02
v 66.9061 68.7309 106.098
vt 2634.1 -4177.09
vn -1.37203e-12 1 -1.75938e-11
v 71.6503 68.7309 87.4665
vt 2820.88 -3443.56
v 65.5454 68.7309 87.9235
vt 2580.53 -3461.56
f 1/1/1 2/2/1 3/3/1

v 73.011 68.7309 105.641
vt 2874.45 -4159.1
f 2/2/1 1/1/1 4/4/1

v 93.1487 0.118899 104.133
vt 3350.97 4.68108
vn 0.0746565 3.1131e-10 0.997209
vt 2555.92 2705.94
vt 2314.9 2705.94
f 5/5/2 4/6/2 1/7/2

v 93.1487 99.7609 104.133
vt 3350.97 3927.6
f 4/6/2 5/5/2 6/8/2

v 91.7881 0.118899 85.9589
vt -3644.55 4.68108
vn 0.997209 -1.85266e-10 -0.0746565
vt -4362.09 3927.6
vt -4362.09 4.68108
f 7/9/3 6/10/3 5/11/3

v 91.7881 99.7609 85.9589
vt -3644.55 3927.6
f 6/10/3 7/9/3 8/12/3

v 62.8647 0.118899 88.1242
vt -2209.06 4.68108
vn -0.0746565 -3.1131e-10 -0.997209
vt -3350.97 3927.6
vt -3350.97 4.68108
f 9/13/4 8/14/4 7/15/4

vt -2555.92 2705.94
f 8/14/4 9/13/4 2/16/4

vt -2314.9 2705.94
f 2/16/4 9/13/4 3/17/4

v 62.8647 99.7609 88.1242
vt -2209.06 3927.6
f 10/18/4 3/17/4 9/13/4

v 65.5454 99.7609 87.9235
vt -2314.9 3927.6
f 3/17/4 10/18/4 11/19/4

v 64.2253 99.7609 106.299
vt 2528.56 -4184.99
vn -1.37529e-12 1 -1.75932e-11
vt 2474.99 -3469.46
f 12/20/5 11/3/5 10/21/5

v 66.9061 99.7609 106.098
f 11/3/5 12/20/5 13/1/5

vt 2209.06 3927.6
vt 2314.9 3927.6
f 12/22/2 1/7/2 13/23/2

v 64.2253 0.118899 106.299
vt 2209.06 4.68108
f 14/24/2 1/7/2 12/22/2

f 1/7/2 14/24/2 5/5/2

vt -2528.56 -4184.99
vn -1.6143e-10 -1 3.25559e-10
vt -3613.7 -3384.21
vt -3667.27 -4099.74
f 14/25/6 7/26/6 5/27/6

vt -2474.99 -3469.46
f 7/26/6 14/25/6 9/28/6

vt 4362.09 3927.6
vn -0.997209 1.85266e-10 0.0746565
vt 3644.55 4.68108
vt 4362.09 4.68108
f 12/29/7 9/30/7 14/31/7

vt 3644.55 3927.6
f 9/30/7 12/29/7 10/32/7

vt -3644.55 2705.94
vn 0.997209 4.93558e-14 -0.0746565
vt -4362.09 2705.94
f 3/33/8 13/10/8 1/34/8

f 13/10/8 3/33/8 11/12/8

v 71.6503 99.7609 87.4665
vt -2555.92 3927.6
f 8/14/4 2/16/4 15/35/4

vt 3644.55 2705.94
vn -0.997209 -4.93549e-14 0.0746565
v 73.011 99.7609 105.641
f 2/36/9 16/29/9 15/32/9

vt 4362.09 2705.94
f 16/29/9 2/36/9 4/37/9

vt 2555.92 3927.6
f 4/6/2 6/8/2 16/38/2

vt 3613.7 -3384.21
vn 2.42065e-10 1 -3.31596e-10
vt 3667.27 -4099.74
f 8/39/10 16/4/10 6/40/10

f 16/4/10 8/39/10 15/2/10

