# Alias OBJ Model File
# Exported from SketchUp, (c) 2000-2012 Trimble Navigation Limited
# File units = meters

mtllib P13.mtl

g Mesh1 Model

usemtl Color_E02
v 100.763 56.9537 85.2869
vt 3705.3 2242.27
vn 0.0746565 1.57483e-15 0.997209
v 71.6503 68.7309 87.4665
vt 2555.92 2705.94
v 71.6503 56.9537 87.4665
vt 2555.92 2242.27
f 1/1/1 2/2/1 3/3/1

v 100.763 68.7309 85.2869
vt 3705.3 2705.94
f 2/2/1 1/1/1 4/4/1

vt -3644.55 2242.27
vn 0.997209 5.50624e-14 -0.0746565
v 99.945 68.7309 74.3609
vt -3213.19 2705.94
vt -3644.55 2705.94
f 1/5/2 5/6/2 4/7/2

v 99.945 56.9537 74.3609
vt -3213.19 2242.27
f 5/6/2 1/5/2 6/8/2

vt -2820.88 -3443.56
vn 6.3521e-14 -1 -2.11262e-15
vt -3934.84 -2927.6
vt -3967.05 -3357.75
f 3/9/3 6/10/3 1/11/3

v 70.8324 56.9537 76.5405
vt -2788.68 -3013.4
f 6/10/3 3/9/3 7/12/3

vt 3644.55 2242.27
vn -0.997209 -5.49176e-14 0.0746565
v 70.8324 68.7309 76.5405
vt 3213.19 2705.94
vt 3213.19 2242.27
f 3/13/4 8/14/4 7/15/4

vt 3644.55 2705.94
f 8/14/4 3/13/4 2/16/4

vt 2820.88 -3443.56
vn -6.3521e-14 1 2.11262e-15
vt 3934.84 -2927.6
vt 2788.68 -3013.4
f 2/17/5 5/18/5 8/19/5

vt 3967.05 -3357.75
f 5/18/5 2/17/5 4/20/5

vt -3705.3 2242.27
vn -0.0746565 -7.82717e-16 -0.997209
vt -2555.92 2705.94
vt -3705.3 2705.94
f 6/21/6 8/22/6 5/23/6

vt -2555.92 2242.27
f 8/22/6 6/21/6 7/24/6

