<svg xmlns="http://www.w3.org/2000/svg" viewBox="0 0 370.07 318.67"><defs><style>.cls-1,.cls-2,.cls-4,.cls-5{fill:none;stroke-miterlimit:10;}.cls-1,.cls-2,.cls-4{stroke:#707071;stroke-width:9px;}.cls-2{stroke-dasharray:18.34 13.75;}.cls-3{fill:#707071;}.cls-4{stroke-dasharray:18.16 13.62;}.cls-5{stroke:#231f20;stroke-width:18px;}</style></defs><g id="Layer_3" data-name="Layer 3"><line class="cls-1" x1="337.78" y1="130.26" x2="334.04" y2="120.99"/><line class="cls-2" x1="328.89" y1="108.23" x2="307.46" y2="55.09"/><line class="cls-1" x1="304.88" y1="48.71" x2="301.14" y2="39.43"/><polygon class="cls-3" points="329.4 47.12 304.05 46.65 286.13 64.57 287.07 4.56 329.4 47.12"/></g><g id="Layer_4" data-name="Layer 4"><line class="cls-1" x1="358.11" y1="181.69" x2="337.78" y2="130.26"/><line class="cls-1" x1="32.59" y1="193.67" x2="36.78" y2="202.75"/><line class="cls-4" x1="42.47" y1="215.12" x2="66.21" y2="266.67"/><line class="cls-1" x1="69.06" y1="272.86" x2="73.24" y2="281.94"/><polygon class="cls-3" points="44.65 275.63 69.98 274.87 87.03 256.11 88.97 316.1 44.65 275.63"/><line class="cls-1" x1="10.07" y1="142.33" x2="32.59" y2="193.67"/></g><g id="Layer_2" data-name="Layer 2"><path class="cls-5" d="M10,141.74s35,103.43,117.92,16c43.26-45.63,57.48-3,58.08,8.3s11.26,51,52.74,7.7c46.22-48.2,93.63-58.07,122.07,15.41"/></g></svg>