# Alias OBJ Model File
# Exported from SketchUp, (c) 2000-2012 Trimble Navigation Limited
# File units = meters

mtllib P10.mtl

g Mesh1 Model

usemtl Color_E02
v 2.5227 69.0044 -90.0555
vt 3545.49 2716.71
vn 1 -1.14267e-13 -1.8003e-10
v 2.5227 71.9834 -99.8368
vt 3930.58 2833.99
v 2.5227 71.9834 -90.0555
vt 3545.49 2833.99
f 1/1/1 2/2/1 3/3/1

v 2.5227 69.0044 -99.8368
vt 3930.58 2716.71
f 2/2/1 1/1/1 4/4/1

v 2.5227 57.3149 -101.8
vt 4007.89 2256.49
f 4/4/1 1/1/1 5/5/1

vt -99.3188 -596.523
vn -1.27102e-10 0.708779 -0.70543
v 10.6447 57.3149 -101.8
vt -419.083 -1248.91
vt -99.3188 -1248.91
f 1/6/2 6/7/2 5/8/2

v 10.6447 69.0044 -90.0555
vt -419.083 -596.523
f 6/7/2 1/6/2 7/9/2

vt -99.3188 2833.99
vn -1.80173e-10 1.5509e-14 -1
vt -419.083 2716.71
vt -99.3188 2716.71
f 3/10/3 7/11/3 1/12/3

v 10.6447 71.9834 -90.0555
vt -419.083 2833.99
f 7/11/3 3/10/3 8/13/3

vt 99.3188 3545.49
vn 0 1 -0
v 13.0087 71.9834 -61.9245
vt 512.153 2437.97
vt 419.083 3545.49
f 3/14/4 9/15/4 8/16/4

v -4.51023 71.9834 -101.8
vt -177.568 4007.89
f 10/17/4 9/15/4 3/14/4

v -16.595 71.9834 -61.9245
vt -653.348 2437.97
f 10/17/4 11/18/4 9/15/4

v -16.595 71.9834 -73.2265
vt -653.348 2882.93
f 11/18/4 10/17/4 12/19/4

vt -3622.16 2833.99
vn -0.921015 0 -0.389526
v -16.595 44.2484 -73.2265
vt -2400.73 1742.06
vt -2400.73 2833.99
f 10/20/5 13/21/5 12/22/5

v -4.51023 44.2484 -101.8
vt -3622.16 1742.06
f 13/21/5 10/20/5 14/23/5

v 2.5227 52.8149 -101.8
vt -99.3188 2079.33
vn -1.80193e-10 -3.35676e-15 -1
vt 177.568 1742.06
vt 177.568 2833.99
f 15/24/6 14/25/6 10/26/6

v 2.5227 11.3149 -101.8
vt -99.3188 445.468
f 16/27/6 14/25/6 15/24/6

v -16.595 44.2484 -101.8
vt 653.348 1742.06
f 16/27/6 17/28/6 14/25/6

v -16.595 0.118899 -101.8
vt 653.348 4.68108
f 16/27/6 18/29/6 17/28/6

v 13.0087 0.118899 -101.8
vt -512.153 4.68108
f 18/29/6 16/27/6 19/30/6

v 4.5227 11.3149 -101.8
vt -178.059 445.468
f 20/31/6 19/30/6 16/27/6

v 13.0087 71.9834 -101.8
vt -512.153 2833.99
f 19/30/6 20/31/6 21/32/6

vt -419.083 2256.49
f 21/32/6 20/31/6 6/33/6

v 4.5227 52.8149 -101.8
vt -178.059 2079.33
f 6/33/6 20/31/6 22/34/6

v 4.5227 11.3149 -99.3005
vt -3909.47 445.468
vn -1 0 -0
vt -4007.89 2079.33
vt -4007.89 445.468
f 23/35/7 22/36/7 20/37/7

v 4.5227 52.8149 -99.3005
vt -3909.47 2079.33
f 22/36/7 23/35/7 24/38/7

vn 0 0 -1
v 2.5227 52.8149 -99.3005
f 23/31/8 25/24/8 24/34/8

v 2.5227 11.3149 -99.3005
f 25/24/8 23/31/8 26/27/8

vt 178.059 3909.47
vt 99.3188 4007.89
vt 99.3188 3909.47
f 23/39/4 16/40/4 26/41/4

vt 178.059 4007.89
f 16/40/4 23/39/4 20/42/4

vt 4007.89 445.468
vn 1 0 -0
vt 3909.47 2079.33
vt 3909.47 445.468
f 16/43/9 25/44/9 26/45/9

vt 4007.89 2079.33
f 25/44/9 16/43/9 15/46/9

vt -178.059 4007.89
vn 0 -1 -0
vt -99.3188 3909.47
vt -99.3188 4007.89
f 22/47/10 25/48/10 15/49/10

vt -178.059 3909.47
f 25/48/10 22/47/10 24/50/10

f 15/24/6 10/26/6 22/34/6

vt -99.3188 2256.49
f 22/34/6 10/26/6 5/51/6

v 2.5227 69.0044 -101.8
f 5/51/6 10/26/6 27/12/6

v 10.6447 69.0044 -101.8
f 27/12/6 10/26/6 28/11/6

f 21/32/6 28/11/6 10/26/6

f 21/32/6 6/33/6 28/11/6

vt -4007.89 2256.49
vn -1 1.52236e-13 1.80034e-10
v 10.6447 69.0044 -99.8368
vt -3930.58 2716.71
vt -4007.89 2716.71
f 6/52/11 29/53/11 28/54/11

vt -3545.49 2716.71
f 7/55/11 29/53/11 6/52/11

v 10.6447 71.9834 -99.8368
vt -3930.58 2833.99
f 7/55/11 30/56/11 29/53/11

vt -3545.49 2833.99
f 30/56/11 7/55/11 8/57/11

vt 512.153 4007.89
vt 419.083 3930.58
f 21/58/4 30/59/4 8/16/4

vt 99.3188 3930.58
f 21/58/4 2/60/4 30/59/4

f 2/60/4 21/58/4 10/17/4

f 10/17/4 3/14/4 2/60/4

vt 99.3188 2716.71
vn 1.80202e-10 -4.65269e-14 1
vt 419.083 2833.99
vt 99.3188 2833.99
f 4/61/12 30/62/12 2/63/12

vt 419.083 2716.71
f 30/62/12 4/61/12 29/64/12

vt -99.3188 3930.58
vt -419.083 4007.89
vt -419.083 3930.58
f 4/65/10 28/66/10 29/67/10

f 28/66/10 4/65/10 27/49/10

vt 4007.89 2716.71
f 4/4/1 5/5/1 27/68/1

f 8/16/4 9/15/4 21/58/4

vt 2437.97 2833.99
vn 1 0 -1.80191e-10
vt 4007.89 4.68108
vt 4007.89 2833.99
f 9/69/13 19/70/13 21/71/13

v 13.0087 0.118899 -61.9245
vt 2437.97 4.68108
f 19/70/13 9/69/13 31/72/13

v 10.7587 38.4834 -61.9245
vt 423.57 1515.1
vn 1.80185e-10 0 1
vt 512.153 4.68108
vt 512.153 2833.99
f 32/73/14 31/74/14 9/75/14

v -16.595 0.118899 -61.9245
vt -653.348 4.68108
f 31/74/14 32/73/14 33/76/14

v -1.09504 36.2334 -61.9245
vt -43.1119 1426.51
f 33/76/14 32/73/14 34/77/14

v -1.09504 38.4834 -61.9245
vt -43.1119 1515.1
f 35/78/14 34/77/14 32/73/14

v -1.09504 38.4834 -58.2725
vt 2294.19 1515.1
vn 1 0 -1.80179e-10
vt 2437.97 1426.51
vt 2437.97 1515.1
f 36/79/15 34/80/15 35/81/15

v -1.09504 36.2334 -58.2725
vt 2294.19 1426.51
f 34/80/15 36/79/15 37/82/15

vn 1.80196e-10 0 1
v -14.345 36.2334 -58.2725
vt -564.765 1426.51
f 36/78/16 38/83/16 37/77/16

v -14.345 38.4834 -58.2725
vt -564.765 1515.1
f 38/83/16 36/78/16 39/84/16

vt -43.1119 2437.97
vt -564.765 2294.19
vt -43.1119 2294.19
f 35/85/4 39/86/4 36/87/4

v -14.345 38.4834 -61.9245
vt -564.765 2437.97
f 39/86/4 35/85/4 40/88/4

vt -43.1119 2674.81
vn 1.44157e-10 0.599958 0.800031
v 7.14383 58.0342 -76.586
vt 281.253 3636.91
vt -564.765 2674.81
f 35/89/17 41/90/17 40/91/17

vt 423.57 2674.81
f 41/90/17 35/89/17 32/92/17

vt -2265.69 1515.1
vn -0.970925 -1.36648e-17 0.239385
v 7.14383 66.5842 -76.586
vt -2860.2 2621.43
vt -2860.2 2284.81
f 32/93/18 42/94/18 41/95/18

v 10.7587 69.7334 -61.9245
vt -2265.69 2745.41
f 42/94/18 32/93/18 43/96/18

vt 423.57 2745.41
f 32/73/14 9/75/14 43/97/14

v -14.345 69.7334 -61.9245
vt -564.765 2745.41
f 43/97/14 9/75/14 44/98/14

vt -653.348 2833.99
f 11/99/14 44/98/14 9/75/14

f 11/99/14 40/84/14 44/98/14

v -14.345 36.2334 -61.9245
f 11/99/14 45/83/14 40/84/14

f 33/76/14 45/83/14 11/99/14

f 45/83/14 33/76/14 34/77/14

vt 43.1119 2437.97
vt 564.765 2294.19
vt 564.765 2437.97
f 34/100/10 38/101/10 45/102/10

vt 43.1119 2294.19
f 38/101/10 34/100/10 37/103/10

vt -2294.19 1426.51
vn -1 0 1.80179e-10
vt -2437.97 1515.1
vt -2437.97 1426.51
f 38/104/19 40/105/19 45/106/19

vt -2294.19 1515.1
f 40/105/19 38/104/19 39/107/19

vt -2882.93 2833.99
vn -1 -2.3149e-27 1.80222e-10
vt -2437.97 4.68108
vt -2437.97 2833.99
f 12/108/20 33/109/20 11/110/20

v -16.595 0.118899 -73.2265
vt -2882.93 4.68108
f 33/109/20 12/108/20 46/111/20

vt -2882.93 1742.06
f 46/111/20 12/108/20 13/112/20

vt -4007.89 1742.06
vn -1 -8.90661e-15 1.80168e-10
f 17/113/21 46/111/21 13/112/21

v -16.595 0.118899 -91.6113
vt -3606.74 4.68108
f 46/111/21 17/113/21 47/114/21

vt -4007.89 4.68108
f 47/114/21 17/113/21 18/115/21

vt -512.153 4007.89
vt 653.348 3606.74
vt 653.348 4007.89
f 19/116/10 47/117/10 18/118/10

vt 653.348 2882.93
f 47/117/10 19/116/10 46/119/10

vt 653.348 2437.97
f 46/119/10 19/116/10 33/120/10

vt -512.153 2437.97
f 33/120/10 19/116/10 31/121/10

vt -653.348 4007.89
f 14/17/4 17/122/4 13/19/4

v 4.61337 58.0342 -76.586
vt 1988.24 2284.81
vn 0.611756 7.99012e-17 0.791046
vt 1044.69 2745.41
vt 1044.69 1515.1
f 48/123/22 44/124/22 40/125/22

v 4.61337 66.5842 -76.586
vt 1988.24 2621.43
f 44/124/22 48/123/22 49/126/22

vt 181.629 2284.81
vn 1.80065e-10 0 1
vt 281.253 2621.43
vt 181.629 2621.43
f 48/127/23 42/128/23 49/129/23

vt 281.253 2284.81
f 42/128/23 48/127/23 41/130/23

vt 181.629 3636.91
f 40/91/17 41/90/17 48/131/17

vt 423.57 -1807.06
vn 3.78405e-11 -0.9777 0.210005
vt 181.629 -2397.45
vt 281.253 -2397.45
f 43/132/24 49/133/24 42/134/24

vt -564.765 -1807.06
f 49/133/24 43/132/24 44/135/24

f 6/33/6 22/34/6 5/51/6

