# Alias OBJ Model File
# Exported from SketchUp, (c) 2000-2012 Trimble Navigation Limited
# File units = meters

mtllib P11.mtl

g Mesh1 Model

usemtl Color_E02
v 64.0533 41.0274 104.001
vt 2209.06 1615.25
vn 0.0746565 -7.46647e-13 0.997209
v 54.0812 37.2024 104.747
vt 1815.36 1464.66
v 64.0533 37.2024 104.001
vt 2209.06 1464.66
f 1/1/1 2/2/1 3/3/1

v 54.0812 41.0274 104.747
vt 1815.36 1615.25
f 2/2/1 1/1/1 4/4/1

v 56.5321 41.0274 90.6039
vt 2225.67 -3567.08
vn 1.20879e-12 1 6.52304e-13
vt 2129.18 -4123.91
vt 2521.78 -4094.52
f 5/5/2 4/6/2 1/7/2

v 56.3828 41.0274 88.6095
vt 2219.8 -3488.56
f 6/8/2 4/6/2 5/5/2

v 53.4839 41.0274 96.7698
vt 2105.67 -3809.83
f 6/8/2 7/9/2 4/6/2

v 52.8926 41.0274 88.8708
vt 2082.38 -3498.85
f 7/9/2 6/8/2 8/10/2

v 52.8926 37.2024 88.8708
vt -1815.36 1464.66
vn -0.0746565 3.16984e-13 -0.997209
vt -1815.36 1615.25
vt -1953.16 1615.25
f 9/11/3 8/12/3 6/13/3

v 50.3996 58.6938 89.0574
vt -1716.94 2310.78
f 9/11/3 10/14/3 8/12/3

v 52.8926 21.0969 88.8708
vt -1815.36 830.587
f 11/15/3 10/14/3 9/11/3

v 50.3996 17.2719 89.0574
vt -1716.94 679.997
f 11/15/3 12/16/3 10/14/3

v 56.3828 21.0969 88.6095
vt -1953.16 830.587
f 12/16/3 11/15/3 13/17/3

v 53.4839 21.0969 96.7698
vn 1.14538e-12 1 6.47923e-13
f 14/9/4 13/8/4 11/10/4

v 54.0812 21.0969 104.747
f 13/8/4 14/9/4 15/6/4

vt 3956.4 830.587
vn -0.997209 1.15538e-12 0.0746565
v 54.0812 17.2719 104.747
vt 4271.36 679.997
vt 4271.36 830.587
f 14/18/5 16/19/5 15/20/5

v 53.4839 17.2719 96.7698
vt 3956.4 679.997
f 16/19/5 14/18/5 17/21/5

v 50.9909 58.6938 96.9564
vt 1716.94 2310.78
vn 0.0746565 -8.43458e-14 0.997209
vt 1815.36 679.997
vt 1815.36 830.587
f 18/22/6 17/23/6 14/24/6

v 50.9909 17.2719 96.9564
vt 1716.94 679.997
f 17/23/6 18/22/6 19/25/6

vt 3644.55 2310.78
vn -0.997209 -5.10108e-14 0.0746565
vt 3956.4 2310.78
f 10/26/7 19/21/7 18/27/7

vt 3644.55 679.997
f 19/21/7 10/26/7 12/28/7

v 62.8647 17.2719 88.1242
vt -2474.99 -3469.46
vn -9.90716e-13 -1 -5.83505e-13
vt -2007.52 -3817.18
vt -1984.23 -3506.2
f 20/29/8 19/30/8 12/31/8

vt -2105.67 -3809.83
f 19/30/8 20/29/8 17/32/8

vt -2129.18 -4123.91
f 17/32/8 20/29/8 16/33/8

v 64.0533 17.2719 104.001
vt -2521.78 -4094.52
f 16/33/8 20/29/8 21/34/8

v 63.014 21.0969 90.1186
vt -3723.29 830.587
vn 0.997209 -1.10071e-12 -0.0746565
vt -4271.36 679.997
vt -3644.55 679.997
f 22/35/9 21/36/9 20/37/9

v 64.0533 21.0969 104.001
vt -4271.36 830.587
f 21/36/9 22/35/9 23/38/9

v 56.5321 21.0969 90.6039
vt 2480.87 -3547.98
f 24/5/4 23/7/4 22/39/4

f 24/5/4 15/6/4 23/7/4

f 13/8/4 15/6/4 24/5/4

vt 3723.29 830.587
vn -0.997209 1.09525e-12 0.0746565
v 56.3828 37.2024 88.6095
vt 3644.55 1464.66
vt 3644.55 830.587
f 24/40/10 25/41/10 13/42/10

v 56.5321 37.2024 90.6039
vt 3723.29 1464.66
f 25/41/10 24/40/10 26/43/10

vt 1953.16 830.587
vn 0.0746565 -7.41776e-13 0.997209
v 63.014 37.2024 90.1186
vt 1953.16 1464.66
f 24/44/11 27/3/11 26/45/11

vt 2209.06 830.587
f 27/3/11 24/44/11 22/46/11

v 62.8647 37.2024 88.1242
vt -3644.55 1464.66
vt -3723.29 1464.66
f 28/47/9 27/48/9 22/35/9

v 63.014 41.0274 90.1186
vt -3723.29 1615.25
vn 0.997209 -2.11433e-10 -0.0746565
f 29/49/12 27/48/12 28/47/12

vt -4271.36 1464.66
f 29/49/12 3/50/12 27/48/12

vt -4271.36 1615.25
f 3/50/12 29/49/12 1/51/12

f 5/5/2 1/7/2 29/39/2

v 63.014 58.6938 90.1186
vt 2209.06 2310.78
vn 0.0746565 -7.48334e-13 0.997209
vt 1953.16 1615.25
f 30/52/13 5/53/13 29/1/13

v 56.5321 58.6938 90.6039
vt 1953.16 2310.78
f 5/53/13 30/52/13 31/54/13

v 63.568 58.6938 97.519
vt -2502.68 -3839.33
vn -4.69724e-12 -1 9.41657e-13
vt -2225.67 -3567.08
vt -2480.87 -3547.98
f 32/55/14 31/56/14 30/57/14

v 53.4839 58.6938 96.7698
f 32/55/14 33/32/14 31/56/14

f 32/55/14 18/30/14 33/32/14

v 44.621 58.6938 98.9375
vt -1756.73 -3895.18
f 34/58/14 18/30/14 32/55/14

f 34/58/14 10/31/14 18/30/14

v 43.9177 58.6938 89.5427
vt -1729.04 -3525.3
f 10/31/14 34/58/14 35/59/14

v 44.621 0.118899 98.9375
vt -4015.46 4.68108
vn 0.997209 6.26428e-11 -0.0746565
vt -3644.55 2310.78
vt -4015.46 2310.78
f 36/60/15 35/61/15 34/62/15

v 43.9177 0.118899 89.5427
vt -3644.55 4.68108
f 35/61/15 36/60/15 37/63/15

v 41.6294 0.118899 99.1614
vt -1638.95 -3903.99
vn 3.12061e-11 -1 -3.05871e-12
f 38/64/16 37/59/16 36/58/16

v 40.9261 0.118899 89.7667
vt -1611.26 -3534.12
f 37/59/16 38/64/16 39/65/16

vt 4015.46 4.68108
vn -0.997209 -5.38714e-14 0.0746565
v 40.9261 68.7309 89.7667
vt 3644.55 2705.94
vt 3644.55 4.68108
f 38/66/17 40/67/17 39/68/17

v 41.6294 68.7309 99.1614
vt 4015.46 2705.94
f 40/67/17 38/66/17 41/69/17

vt 1461.03 4.68108
vn 0.0746565 -4.32395e-13 0.997209
vt 1342.92 2705.94
vt 1342.92 4.68108
f 36/70/18 41/71/18 38/72/18

vt 1461.03 2310.78
f 41/71/18 36/70/18 34/73/18

v 63.568 68.7309 97.519
vt 2209.06 2705.94
f 34/73/18 42/74/18 41/71/18

f 42/74/18 34/73/18 32/52/18

vt -3723.29 2310.78
vn 0.997209 -4.82775e-10 -0.0746565
vt -4015.46 2705.94
f 30/75/19 42/76/19 32/62/19

v 62.8647 68.7309 88.1242
vt -3644.55 2705.94
f 42/76/19 30/75/19 43/77/19

v 62.8647 58.6938 88.1242
f 43/77/19 30/75/19 44/61/19

f 29/49/12 44/61/12 30/75/12

f 44/61/12 29/49/12 28/47/12

vt -2209.06 1464.66
vt -1953.16 1464.66
vt -2209.06 2310.78
f 28/78/3 25/79/3 44/80/3

f 28/78/3 13/17/3 25/79/3

vt -2209.06 679.997
f 20/81/3 13/17/3 28/78/3

f 13/17/3 20/81/3 12/16/3

f 22/35/9 20/37/9 28/47/9

f 44/80/3 25/79/3 6/13/3

f 6/13/3 25/79/3 9/11/3

vt -2219.8 -3488.56
vn -1.20719e-12 -1 -6.30576e-13
v 53.4839 37.2024 96.7698
vt -2082.38 -3498.85
f 25/82/20 45/32/20 9/83/20

f 45/32/20 25/82/20 2/33/20

f 2/33/20 25/82/20 26/56/20

f 2/33/20 26/56/20 3/34/20

f 3/34/20 26/56/20 27/57/20

vt 4271.36 1464.66
vn -0.997209 1.15583e-12 0.0746565
vt 3956.4 1615.25
vt 3956.4 1464.66
f 2/84/21 7/85/21 45/86/21

vt 4271.36 1615.25
f 7/85/21 2/84/21 4/87/21

f 18/22/6 45/2/6 7/4/6

f 18/22/6 14/24/6 45/2/6

vt -3644.55 830.587
vn 0.997209 -3.65188e-10 -0.0746565
vt -3956.4 1464.66
vt -3956.4 830.587
f 11/88/22 45/89/22 14/90/22

f 45/89/22 11/88/22 9/47/22

vt 1815.36 2310.78
f 18/22/6 7/4/6 33/91/6

vt -3956.4 1615.25
vn 0.997209 3.33553e-10 -0.0746565
v 52.8926 58.6938 88.8708
vt -3956.4 2310.78
f 7/92/23 46/61/23 33/93/23

vt -3644.55 1615.25
f 46/61/23 7/92/23 8/94/23

vt -1815.36 2310.78
f 8/12/3 10/14/3 46/95/3

vt -1461.03 2310.78
f 46/95/3 10/14/3 35/96/3

f 46/95/3 35/96/3 44/80/3

vt -2209.06 2705.94
f 44/80/3 35/96/3 43/97/3

vt -1342.92 2705.94
f 43/97/3 35/96/3 40/98/3

vt -1461.03 4.68108
f 37/99/3 40/98/3 35/96/3

vt -1342.92 4.68108
f 40/98/3 37/99/3 39/100/3

vt 1638.95 -3903.99
vn -4.13722e-16 1 7.22344e-13
vt 2474.99 -3469.46
vt 1611.26 -3534.12
f 41/101/24 43/102/24 40/103/24

vt 2502.68 -3839.33
f 43/102/24 41/101/24 42/104/24

v 56.3828 58.6938 88.6095
vt -1953.16 2310.78
f 44/80/3 47/105/3 46/95/3

f 44/80/3 6/13/3 47/105/3

vt 3723.29 1615.25
vn -0.997209 1.09801e-12 0.0746565
vt 3644.55 1615.25
f 5/106/25 47/26/25 6/107/25

vt 3723.29 2310.78
f 47/26/25 5/106/25 31/108/25

f 31/56/14 33/32/14 47/82/14

f 47/82/14 33/32/14 46/83/14

vn 0.0746565 -7.46632e-13 0.997209
f 16/23/26 23/46/26 15/24/26

vt 2209.06 679.997
f 23/46/26 16/23/26 21/109/26

