# Alias OBJ Model File
# Exported from SketchUp, (c) 2000-2012 Trimble Navigation Limited
# File units = meters

mtllib P14.mtl

g Mesh1 Model

usemtl Color_E02
v 82.6795 50.0539 -35.7078
vt -3255.1 1405.82
vn 7.13871e-09 -1 -1.26851e-09
v 80.8487 50.0539 73.785
vt -3183.02 -2904.92
v 72.7074 50.0539 -34.9613
vt -2862.49 1376.43
f 1/1/1 2/2/1 3/3/1

v 90.8208 50.0539 73.0384
vt -3575.62 -2875.53
f 2/2/1 1/1/1 4/4/1

v 82.6795 58.6938 -35.7078
vt 1158.88 2310.78
vn 0.997209 -9.01519e-11 -0.0746565
vt -3134.45 1970.63
vt 1158.88 1970.63
f 5/5/2 4/6/2 1/7/2

v 91.7881 58.6938 85.9589
vt -3644.55 2310.78
f 6/8/2 4/6/2 5/5/2

v 91.7881 0.118899 85.9589
vt -3644.55 4.68108
f 4/6/2 6/8/2 7/9/2

vt 3350.97 2310.78
vn 0.0746565 -3.73321e-11 0.997209
v 52.8926 0.118899 88.8708
vt 1815.36 4.68108
vt 3350.97 4.68108
f 6/10/3 8/11/3 7/12/3

v 52.8926 58.6938 88.8708
vt 1815.36 2310.78
f 8/11/3 6/10/3 9/13/3

vt 3255.1 1405.82
vn 2.7991e-12 1 3.81182e-11
vt 2082.38 -3498.85
vt 3613.7 -3384.21
f 5/14/4 9/15/4 6/16/4

v 43.7839 58.6938 -32.7959
vt 1723.78 1291.18
f 9/15/4 5/14/4 10/17/4

vt -3350.97 1970.63
vn -0.0746565 1.86281e-11 -0.997209
vt -1815.36 2310.78
vt -3350.97 2310.78
f 1/18/5 10/19/5 5/20/5

vt -2957.27 1970.63
f 3/21/5 10/19/5 1/18/5

v 72.7074 20.1189 -34.9613
vt -2957.27 792.083
f 11/22/5 10/19/5 3/21/5

v 43.7839 0.118899 -32.7959
vt -1815.36 4.68108
f 11/22/5 12/23/5 10/19/5

v 82.6795 20.1189 -35.7078
vt -3350.97 792.083
f 13/24/5 12/23/5 11/22/5

v 82.6795 0.118899 -35.7078
vt -3350.97 4.68108
f 12/23/5 13/24/5 14/25/5

v 90.8208 20.1189 73.0384
vt -3134.45 792.083
vt 1158.88 4.68108
vt 1158.88 792.083
f 15/26/2 14/27/2 13/28/2

f 14/27/2 15/26/2 7/9/2

f 4/6/2 7/9/2 15/26/2

vn -0.0746565 -1.43134e-10 -0.997209
f 15/24/6 2/21/6 4/18/6

v 80.8487 20.1189 73.785
f 2/21/6 15/24/6 16/22/6

vn 2.38731e-10 1 4.20622e-11
vt 3183.02 -2904.92
vt 3575.62 -2875.53
f 13/14/7 16/29/7 15/30/7

vt 2862.49 1376.43
f 16/29/7 13/14/7 11/31/7

vn 0.997209 1.17907e-09 -0.0746565
f 11/28/8 2/6/8 16/26/8

f 2/6/8 11/28/8 3/7/8

vt -2082.38 -3498.85
vn -1.8433e-10 -1 -2.4527e-11
vt -3613.7 -3384.21
f 8/32/9 14/1/9 7/33/9

vt -1723.78 1291.18
f 14/1/9 8/32/9 12/34/9

vt 3644.55 4.68108
vn -0.997209 1.19717e-10 0.0746565
vt -1158.88 2310.78
vt -1158.88 4.68108
f 8/35/10 10/36/10 12/37/10

vt 3644.55 2310.78
f 10/36/10 8/35/10 9/38/10

