# Alias OBJ Model File
# Exported from SketchUp, (c) 2000-2012 Trimble Navigation Limited
# File units = meters

mtllib P16.mtl

g Mesh1 Model

usemtl Color_E02
v 90.8208 20.1189 73.0384
vt 3575.62 -2875.53
vn -4.13245e-09 1 9.21022e-10
v 96.6404 20.1189 -36.753
vt 3804.74 1446.97
v 82.6795 20.1189 -35.7078
vt 3255.1 1405.82
f 1/1/1 2/2/1 3/3/1

v 91.7881 20.1189 85.9589
vt 3613.7 -3384.21
f 2/2/1 1/1/1 4/4/1

vt 3134.45 792.083
vn -0.997209 1.37767e-08 0.0746565
v 91.7881 17.1189 85.9589
vt 3644.55 673.972
vt 3644.55 792.083
f 1/5/2 5/6/2 4/7/2

v 90.8208 17.1189 73.0384
vt 3134.45 673.972
f 5/6/2 1/5/2 6/8/2

v 82.6795 17.1189 -35.7078
vt -1158.88 673.972
f 1/5/2 7/9/2 6/8/2

vt -1158.88 792.083
f 7/9/2 1/5/2 3/10/2

vt -3350.97 792.083
vn -0.0746565 8.24796e-10 -0.997209
v 96.6404 17.1189 -36.753
vt -3902.15 673.972
vt -3350.97 673.972
f 3/11/3 8/12/3 7/13/3

vt -3902.15 792.083
f 8/12/3 3/11/3 2/14/3

vt 1158.88 792.083
vn 0.997209 3.77606e-09 -0.0746565
v 104.782 17.1189 71.9932
vt -3134.45 673.972
vt 1158.88 673.972
f 2/15/4 9/16/4 8/17/4

v 104.782 20.1189 71.9932
vt -3134.45 792.083
f 9/16/4 2/15/4 10/18/4

vt 4125.26 -2834.38
v 99.7957 20.1189 72.3665
vt 3928.96 -2849.08
f 10/19/1 2/2/1 11/20/1

f 2/2/1 4/4/1 11/20/1

v 100.763 20.1189 85.2869
vt 3967.05 -3357.75
f 11/20/1 4/4/1 12/21/1

vt 3350.97 792.083
vn 0.0746565 -8.24788e-10 0.997209
v 100.763 17.1189 85.2869
vt 3705.3 673.972
vt 3705.3 792.083
f 4/22/5 13/23/5 12/24/5

vt 3350.97 673.972
f 13/23/5 4/22/5 5/25/5

vt -3613.7 -3384.21
vn 3.69953e-09 -1 -8.66928e-10
v 99.7957 17.1189 72.3665
vt -3928.96 -2849.08
vt -3967.05 -3357.75
f 5/26/6 14/27/6 13/28/6

vt -3804.74 1446.97
f 5/26/6 8/29/6 14/27/6

vt -3575.62 -2875.53
f 6/30/6 8/29/6 5/26/6

vt -3255.1 1405.82
f 8/29/6 6/30/6 7/31/6

vt -4125.26 -2834.38
f 9/32/6 14/27/6 8/29/6

vt 3902.15 673.972
vn 0.0746565 -8.24811e-10 0.997209
f 9/33/7 11/24/7 14/23/7

vt 3902.15 792.083
f 11/24/7 9/33/7 10/34/7

vn 0.997209 3.776e-09 -0.0746565
vt -3644.55 673.972
f 11/18/8 13/35/8 14/16/8

vt -3644.55 792.083
f 13/35/8 11/18/8 12/36/8

