# Alias OBJ Model File
# Exported from SketchUp, (c) 2000-2012 Trimble Navigation Limited
# File units = meters

mtllib P18.mtl

g Mesh1 Model

usemtl Color_E02
v 103.218 37.9949 31.8666
vt -3973.27 1495.86
vn -0.0651942 1.46842e-11 -0.997873
v 109.181 43.5129 31.477
vt -4208.52 1713.11
v 109.181 37.9949 31.477
vt -4208.52 1495.86
f 1/1/1 2/2/1 3/3/1

v 103.218 43.5129 31.8666
vt -3973.27 1713.11
f 2/2/1 1/1/1 4/4/1

vt 1535.34 1495.86
vn -0.997558 3.66925e-10 0.0698418
v 103.27 43.5129 32.6093
vt 1564.66 1713.11
vt 1535.34 1713.11
f 1/5/2 5/6/2 4/7/2

v 103.27 37.9949 32.6093
vt 1564.66 1495.86
f 5/6/2 1/5/2 6/8/2

vt 4063.71 -1254.59
vn 3.67159e-10 1 -9.40823e-12
v 88.0172 37.9949 33.6058
vt 3465.24 -1323.06
vt 4065.76 -1283.83
f 1/9/3 7/10/3 6/11/3

v 101.96 37.9949 12.593
vt 4014.19 -495.788
f 8/12/3 7/10/3 1/9/3

v 87.9652 37.9949 32.8631
vt 3463.2 -1293.82
f 8/12/3 9/13/3 7/10/3

v 86.7074 37.9949 13.5901
vt 3413.68 -535.045
f 8/12/3 10/14/3 9/13/3

v 86.7073 37.9949 13.5895
vt 3413.67 -535.022
f 10/14/3 8/12/3 11/15/3

vt -3371.53 1495.31
vn -0.0651942 -0.000726045 -0.997872
vt -3973.33 1495.31
v 86.7074 37.1849 13.5901
vt -3371.53 1463.42
f 11/16/4 8/17/4 12/18/4

v 107.923 37.9949 12.2035
vt -4208.57 1495.31
f 8/17/4 13/19/4 12/18/4

v 107.923 43.5129 12.2035
vt -4208.57 1713.11
vn -0.0651942 1.46611e-11 -0.997873
vt -4208.57 1495.86
vt -3973.33 1495.86
f 14/20/5 13/21/5 8/22/5

v 107.971 43.5129 12.9465
vt -785.461 1713.11
vn 0.997877 -3.66966e-10 -0.065126
vt -756.147 1495.86
vt -756.147 1713.11
f 15/23/6 13/24/6 14/25/6

v 107.971 37.9949 12.9465
vt -785.461 1495.86
f 13/24/6 15/23/6 16/26/6

vt 4208.57 1713.11
vn 0.0651942 -1.46653e-11 0.997873
v 102.012 37.9949 13.3358
vt 3973.46 1495.86
vt 4208.57 1495.86
f 15/27/7 17/28/7 16/29/7

v 102.012 43.5129 13.3358
vt 3973.46 1713.11
f 17/28/7 15/27/7 18/30/7

vt 4248.94 -480.451
vn 3.67157e-10 1 -9.42923e-12
vt 4016.24 -525.031
vt 4250.84 -509.703
f 14/31/8 18/32/8 15/33/8

v 101.96 43.5129 12.593
f 18/32/8 14/31/8 19/12/8

vt -3973.33 1713.11
vn -0.0651942 1.46695e-11 -0.997873
f 19/34/9 14/20/9 8/22/9

vt 774.936 1495.86
vn -0.997558 3.66892e-10 0.0698418
vt 804.25 1713.11
vt 774.936 1713.11
f 8/35/10 18/36/10 19/37/10

vt 804.25 1495.86
f 18/36/10 8/35/10 17/38/10

f 8/12/3 1/9/3 17/32/3

f 1/9/3 16/33/3 17/32/3

vt 4298.46 -1239.25
f 16/33/3 1/9/3 3/39/3

v 108.452 37.9949 12.1689
vt 4269.75 -479.092
f 16/33/3 3/39/3 20/40/3

v 109.758 37.9949 32.1855
vt 4321.18 -1267.14
f 20/40/3 3/39/3 21/41/3

v 109.229 37.9949 32.22
vt 4300.37 -1268.5
f 21/41/3 3/39/3 22/42/3

vt -1516.56 1495.86
vn 0.997877 -3.66998e-10 -0.065126
v 109.229 43.5129 32.22
vt -1545.88 1713.11
vt -1545.88 1495.86
f 3/43/11 23/44/11 22/45/11

vt -1516.56 1713.11
f 23/44/11 3/43/11 2/46/11

vn 3.67159e-10 1 -9.41381e-12
f 2/39/12 5/11/12 23/42/12

f 5/11/12 2/39/12 4/9/12

vt 3973.41 1713.11
vn 0.0651942 -1.46736e-11 0.997873
vt 3973.41 1495.86
vt 4208.52 1713.11
f 5/47/13 6/48/13 23/49/13

vn 0.0651942 -1.46738e-11 0.997873
vt 4208.52 1495.86
f 23/49/14 6/48/14 22/50/14

vt 3371.62 1494.74
vn 0.0651942 0.000726045 0.997872
vt 4208.52 1494.74
vt 3973.41 1494.74
f 7/51/15 22/52/15 6/53/15

v 88.0137 37.1849 33.6067
vt 3371.48 1462.85
f 22/52/15 7/51/15 24/54/15

v 88.0137 37.9949 33.6067
vt 3070.54 1495.86
vn 0.228766 -7.49851e-11 0.973481
vt 3070.54 1463.97
vt 3070.68 1495.86
f 25/55/16 24/56/16 7/57/16

vt 1545.96 1495.86
vn -0.997877 3.66997e-10 0.065126
vt 756.228 1463.97
vt 1545.96 1463.97
f 25/58/17 12/59/17 24/60/17

vt 1516.62 1495.86
f 12/59/17 25/58/17 9/61/17

vn 3.79987e-10 1 -1.03144e-11
vt 3465.11 -1323.1
f 7/10/18 9/13/18 25/62/18

vt 756.228 1495.86
f 12/59/17 9/61/17 10/63/17

vt 756.205 1495.86
vn -0.997877 3.66716e-10 0.065126
f 11/64/19 12/59/19 10/63/19

v 108.452 37.1849 12.1689
vt -4269.75 -479.092
vn -3.6716e-10 -1 9.4093e-12
vt -3465.11 -1323.1
vt -3413.68 -535.045
f 26/65/20 24/66/20 12/67/20

v 109.758 37.1849 32.1855
vt -4321.18 -1267.14
f 24/66/20 26/65/20 27/68/20

v 108.452 34.0329 12.1689
vt 756.146 1339.88
vn -0.997877 3.67096e-10 0.065126
vt 1545.87 1463.97
vt 756.146 1463.97
f 28/69/21 27/70/21 26/71/21

v 109.758 34.0329 32.1855
vt 1545.87 1339.88
f 27/70/21 28/69/21 29/72/21

v 109.458 34.0329 12.1031
vt -4309.39 -476.502
vn -3.67151e-10 -1 9.40851e-12
f 30/73/22 29/68/22 28/65/22

v 110.765 34.0329 32.1197
vt -4360.82 -1264.55
f 29/68/22 30/73/22 31/74/22

vt -756.143 1339.88
vn 0.997877 -3.66986e-10 -0.065126
v 110.765 43.5129 32.1197
vt -1545.87 1713.11
vt -1545.87 1339.88
f 30/75/23 32/76/23 31/77/23

v 109.458 43.5129 12.1031
vt -756.143 1713.11
f 32/76/23 30/75/23 33/78/23

vt -4269.15 1713.11
vn -0.0651942 1.46869e-11 -0.997873
vt -4269.15 1339.88
vt -4229.43 1339.88
f 33/79/24 30/80/24 28/81/24

vn -0.0651942 1.46852e-11 -0.997873
vt -4229.43 1463.97
f 33/79/25 28/81/25 26/82/25

vn -0.0651942 1.46707e-11 -0.997873
vt -4229.43 1495.86
f 33/79/26 26/82/26 20/83/26

vt -4229.41 1495.86
vn -0.0652211 1.46807e-11 -0.997871
vt -4229.41 1463.97
vt -3371.51 1463.97
f 20/84/27 26/85/27 12/86/27

vt -4229.43 1495.31
f 13/19/4 20/87/4 12/18/4

f 20/40/3 13/31/3 16/33/3

v 108.452 43.5129 12.1689
vt -4229.43 1713.11
vn -0.0651942 1.46778e-11 -0.997873
f 34/88/28 33/79/28 20/83/28

v 109.758 43.5129 32.1855
vn 3.67159e-10 1 -9.40893e-12
vt 4309.39 -476.502
f 35/41/29 33/89/29 34/40/29

vt 4360.82 -1264.55
f 33/89/29 35/41/29 32/90/29

vt 4229.38 1713.11
vn 0.0651942 -1.46778e-11 0.997873
vt 4229.38 1495.86
vt 4269.1 1713.11
f 35/91/30 21/92/30 32/93/30

vt 1545.87 1713.11
vn -0.997877 3.66965e-10 0.065126
vt 756.146 1495.86
vt 1545.87 1495.86
f 35/94/31 20/95/31 21/96/31

vt 756.146 1713.11
f 20/95/31 35/94/31 34/97/31

vn 0.0651942 -1.47265e-11 0.997873
vt 4229.38 1463.97
f 32/93/32 21/92/32 27/98/32

vt 4229.33 1495.86
vn 0.0652211 -1.47363e-11 0.997871
vt 3371.44 1463.97
vt 4229.33 1463.97
f 21/99/33 24/100/33 27/101/33

vt 4229.38 1494.74
f 22/52/15 24/54/15 21/102/15

vn 0.0651942 -1.46632e-11 0.997873
vt 4229.38 1339.88
f 32/93/34 27/98/34 29/103/34

vn 0.0651942 -1.46869e-11 0.997873
vt 4269.1 1339.88
f 32/93/35 29/103/35 31/104/35

g Mesh2 Model

v 85.2091 37.9949 -6.45272
vt -35.0345 1495.86
vn -0.997877 3.66732e-10 0.0651239
v 83.9033 37.1849 -26.4603
vt -824.411 1463.97
v 85.2091 37.1849 -6.45272
vt -35.0345 1463.97
f 36/105/36 37/106/36 38/107/36

v 85.1605 37.9949 -7.196
vt -64.3599 1495.86
f 37/106/36 36/105/36 39/108/36

v 85.2125 37.9949 -6.45357
vt 3354.82 254.078
vn 3.80136e-10 1 -1.03176e-11
vt 3352.78 283.307
vt 3354.69 254.044
f 40/109/37 39/110/37 36/111/37

v 99.1563 37.9949 -27.4575
vt 3903.79 1081
vn 3.67158e-10 1 -9.41274e-12
f 41/112/38 39/110/38 40/109/38

v 83.9033 37.9949 -26.4603
vt 3303.28 1041.75
f 41/112/38 42/113/38 39/110/38

v 83.9033 37.9949 -26.4609
vt 3303.28 1041.77
f 42/113/38 41/112/38 43/114/38

v 105.119 37.9949 -27.8471
vt -4201.21 1496.5
vn -0.0651962 -0.00077061 -0.997872
vt -3364.17 1496.5
vt -3965.96 1496.5
f 44/115/39 43/116/39 41/117/39

vt -3364.17 1464.61
f 43/116/39 44/115/39 37/118/39

v 105.648 37.9949 -27.8816
vt -4222.07 1496.5
f 44/115/39 45/119/39 37/118/39

vt 4159.35 1097.7
vt 4138.54 1096.34
v 105.167 37.9949 -27.1044
vt 4140.45 1067.1
f 45/120/38 44/121/38 46/122/38

vt 824.497 1495.86
vn 0.997877 -3.66999e-10 -0.0651239
v 105.167 43.5129 -27.1044
vt 795.196 1713.11
vt 795.196 1495.86
f 44/123/40 47/124/40 46/125/40

v 105.119 43.5129 -27.8471
vt 824.497 1713.11
f 47/124/40 44/123/40 48/126/40

vt -4201.21 1713.11
vn -0.0651963 1.46746e-11 -0.997872
vt -4201.21 1495.86
vt -3965.96 1495.86
f 48/127/41 44/128/41 41/129/41

v 99.1563 43.5129 -27.4575
vt -3965.96 1713.11
vn -0.0651963 1.46786e-11 -0.997872
f 49/130/42 48/127/42 41/129/42

v 99.2083 43.5129 -26.7151
vt 3905.84 1051.77
vn 3.67158e-10 1 -9.43372e-12
f 50/131/43 48/121/43 49/112/43

f 48/121/43 50/131/43 47/122/43

v 99.2083 37.9949 -26.7151
vt 3966.1 1495.86
vn 0.0651963 -1.46808e-11 0.997872
vt 4201.21 1713.11
vt 3966.1 1713.11
f 51/132/44 47/133/44 50/134/44

vt 4201.21 1495.86
f 47/133/44 51/132/44 46/135/44

v 100.414 37.9949 -8.19256
vt 3953.29 322.542
f 52/136/38 46/122/38 51/131/38

v 106.376 37.9949 -8.58213
vt 4188.04 337.879
f 46/122/38 52/136/38 53/137/38

vt -3965.91 1495.86
vn -0.0651963 1.46828e-11 -0.997872
v 106.376 43.5129 -8.58213
vt -4201.16 1713.11
vt -4201.16 1495.86
f 52/138/45 54/139/45 53/140/45

v 100.414 43.5129 -8.19256
vt -3965.91 1713.11
f 54/139/45 52/138/45 55/141/45

vt -45.6493 1495.86
vn -0.997558 3.66891e-10 0.0698418
v 100.466 43.5129 -7.45013
vt -16.3481 1713.11
vt -45.6493 1713.11
f 52/142/46 56/143/46 55/144/46

v 100.466 37.9949 -7.45013
vt -16.3481 1495.86
f 56/143/46 52/142/46 57/145/46

vt 3955.34 293.312
f 52/136/38 40/109/38 57/146/38

f 41/112/38 40/109/38 52/136/38

f 41/112/38 52/136/38 51/131/38

vt -776.416 1713.11
vt -805.717 1495.86
vt -776.416 1495.86
f 50/147/2 41/148/2 51/149/2

vt -805.717 1713.11
f 41/148/2 50/147/2 49/150/2

vt 3364.25 1495.89
vn 0.0651962 0.00077061 0.997872
v 106.425 37.9949 -7.83947
vt 4201.15 1495.89
vt 3966.05 1495.89
f 40/151/47 58/152/47 57/153/47

vt 3364.11 1464
f 58/152/47 40/151/47 38/154/47

vt 3318.5 1495.86
vn 0.238453 -7.84565e-11 0.971154
vt 3318.5 1463.97
vt 3318.64 1495.86
f 36/155/48 38/156/48 40/157/48

v 106.953 37.9949 -7.87401
vt 4222.01 1495.89
f 58/152/47 38/154/47 59/158/47

vt 4222.01 1495.86
vn 0.0652248 -1.47959e-11 0.997871
vt 3364.11 1463.97
v 106.953 37.1849 -7.87401
vt 4222.01 1463.97
f 59/159/49 38/160/49 60/161/49

vt -3354.69 254.044
vn -3.6716e-10 -1 9.41353e-12
v 105.648 37.1849 -27.8816
vt -4159.35 1097.7
vt -4210.76 310
f 38/162/50 61/163/50 60/164/50

vt -3303.28 1041.75
f 61/163/50 38/162/50 37/165/50

vt -4222.09 1495.86
vn -0.0652248 1.47092e-11 -0.997871
vt -4222.09 1463.97
vt -3364.19 1463.97
f 45/166/51 61/167/51 37/168/51

v 106.654 43.5129 -27.9474
vt -4261.79 1713.11
vn -0.0651963 1.46989e-11 -0.997872
vt -4222.07 1463.97
vt -4222.07 1495.86
f 62/169/52 61/170/52 45/171/52

vn -0.0651963 1.46636e-11 -0.997872
v 105.648 34.0329 -27.8816
vt -4222.07 1339.88
f 62/169/53 63/172/53 61/170/53

vn -0.0651963 1.46902e-11 -0.997872
v 106.654 34.0329 -27.9474
vt -4261.79 1339.88
f 62/169/54 64/173/54 63/172/54

v 107.96 43.5129 -7.93979
vt 35.1242 1713.11
vn 0.997877 -3.67025e-10 -0.0651239
vt 824.501 1339.88
vt 824.501 1713.11
f 65/174/55 64/175/55 62/176/55

v 107.96 34.0329 -7.93979
vt 35.1242 1339.88
f 64/175/55 65/174/55 66/177/55

vt 4261.73 1713.11
vn 0.0651963 -1.4695e-11 0.997872
v 106.953 34.0329 -7.87401
vt 4222.01 1339.88
vt 4261.73 1339.88
f 65/178/56 67/179/56 66/180/56

vn 0.0651963 -1.46567e-11 0.997872
f 65/178/57 60/161/57 67/179/57

vn 0.0651963 -1.47853e-11 0.997872
f 65/178/58 59/159/58 60/161/58

v 106.953 43.5129 -7.87401
vt 4222.01 1713.11
vn 0.0651963 -1.46826e-11 0.997872
f 68/181/59 59/159/59 65/178/59

vt -35.1213 1713.11
vn -0.997877 3.66965e-10 0.0651239
vt -824.498 1495.86
vt -35.1213 1495.86
f 68/182/60 45/183/60 59/184/60

v 105.648 43.5129 -27.8816
vt -824.498 1713.11
f 45/183/60 68/182/60 69/185/60

vt 4210.76 310
vn 3.67153e-10 1 -9.41282e-12
vt 4198.99 1100.29
f 68/186/61 62/187/61 69/120/61

vt 4250.4 312.59
f 62/187/61 68/186/61 65/188/61

vt -4222.07 1713.11
vn -0.0651963 1.4683e-11 -0.997872
f 69/189/62 62/169/62 45/171/62

f 45/120/38 53/137/38 59/186/38

f 46/122/38 53/137/38 45/120/38

vt 4189.95 308.641
f 59/186/38 53/137/38 58/190/38

vt 64.4206 1495.86
vn 0.997877 -3.66965e-10 -0.0651239
v 106.425 43.5129 -7.83947
vt 35.1198 1713.11
vt 35.1198 1495.86
f 53/191/63 70/192/63 58/193/63

vt 64.4206 1713.11
f 70/192/63 53/191/63 54/194/63

vn 3.67159e-10 1 -9.41432e-12
f 54/137/64 56/146/64 70/190/64

f 56/146/64 54/137/64 55/136/64

vt 3966.05 1713.11
vn 0.0651963 -1.46953e-11 0.997872
vt 3966.05 1495.86
vt 4201.15 1713.11
f 56/195/65 57/196/65 70/197/65

vn 0.0651963 -1.46786e-11 0.997872
vt 4201.15 1495.86
f 70/197/66 57/196/66 58/198/66

vt -35.1213 1463.97
vn -0.997877 3.67039e-10 0.0651239
vt -824.498 1339.88
vt -35.1213 1339.88
f 60/199/67 63/200/67 67/201/67

vt -824.498 1463.97
f 63/200/67 60/199/67 61/202/67

vt -4198.99 1100.29
vn -3.67159e-10 -1 9.41348e-12
f 64/203/68 67/164/68 63/163/68

vt -4250.4 312.59
f 67/164/68 64/203/68 66/204/68

vt -824.436 1495.86
vn -0.997877 3.6672e-10 0.0651239
vt -824.411 1495.86
f 43/205/69 37/106/69 42/206/69

f 37/106/36 39/108/36 42/206/36

g Mesh3 Model

v 112.504 43.5129 71.4056
vt 4429.29 -2811.24
vn 3.67145e-10 1 -9.55413e-12
v 112.89 43.5129 61.823
vt 4444.5 -2433.98
v 111.883 43.5129 61.8889
vt 4404.86 -2436.57
f 71/207/70 72/208/70 73/209/70

v 113.511 43.5129 71.3397
vt 4468.93 -2808.65
f 72/208/70 71/207/70 74/210/70

vt 4236.36 1713.11
vn 0.0652676 -1.4851e-11 0.997868
v 112.504 37.9949 71.4056
vt 4236.36 1495.86
vt 4276.08 1713.11
f 71/211/71 75/212/71 74/213/71

vt 3093.42 1713.11
vn -0.997882 3.6699e-10 0.0650503
v 111.883 37.9949 61.8889
vt 2717.95 1495.86
vt 3093.42 1495.86
f 71/214/72 76/215/72 75/216/72

vt 2717.95 1713.11
f 76/215/72 71/214/72 73/217/72

vt -4236.44 1713.11
vn -0.0652676 1.4847e-11 -0.997868
vt -4276.17 1713.11
vt -4236.44 1495.86
f 73/218/73 72/219/73 76/220/73

vn -0.0652676 1.49539e-11 -0.997868
v 111.883 37.1849 61.8889
vt -4236.44 1463.97
f 72/219/74 77/221/74 76/220/74

vn -0.0652676 1.48508e-11 -0.997868
v 111.883 34.0329 61.8889
vt -4236.44 1339.88
f 72/219/75 78/222/75 77/221/75

vn -0.0652676 1.48477e-11 -0.997868
v 112.89 34.0329 61.823
vt -4276.17 1339.88
f 72/219/76 79/223/76 78/222/76

vt -3093.41 1713.11
vn 0.997882 -3.66998e-10 -0.0650503
vt -2717.94 1339.88
vt -2717.94 1713.11
f 74/224/77 79/225/77 72/226/77

v 113.511 34.0329 71.3397
vt -3093.41 1339.88
f 79/225/77 74/224/77 80/227/77

vn 0.0652676 -1.485e-11 0.997868
v 112.504 34.0329 71.4056
vt 4236.36 1339.88
vt 4276.08 1339.88
f 74/213/78 81/228/78 80/229/78

vn 0.0652676 -1.48511e-11 0.997868
v 112.504 37.1849 71.4056
vt 4236.36 1463.97
f 74/213/79 82/230/79 81/228/79

vn 0.0652676 -1.48685e-11 0.997868
f 74/213/80 75/212/80 82/230/80

vt 4236.09 1495.86
vn 0.0653533 -1.49002e-11 0.997862
v 90.7599 37.1849 72.8297
vt 3378.2 1463.97
vt 4236.09 1463.97
f 75/231/81 83/232/81 82/233/81

v 111.975 37.9949 71.4402
vt 4215.5 1488.7
vn 0.0652674 0.00231234 0.997865
vt 3378.46 1456.81
vt 4236.36 1488.7
f 84/234/82 83/235/82 75/236/82

v 106.016 37.9949 71.8299
vt 3980.39 1488.7
f 85/237/82 83/235/82 84/234/82

v 90.7633 37.9949 72.8276
vt 3378.6 1488.7
f 83/235/82 85/237/82 86/238/82

v 105.99 37.9949 71.4769
vt 4172.82 -2814.05
vn 3.67151e-10 1 -9.55637e-12
vt 3573.36 -2867.23
vt 4173.87 -2827.95
f 87/239/83 86/240/83 85/241/83

v 105.968 37.9949 71.1395
vt 4171.96 -2800.77
f 88/242/83 86/240/83 87/239/83

v 105.392 37.9949 62.3134
vt 4149.31 -2453.28
f 89/243/83 86/240/83 88/242/83

v 90.7367 37.9949 72.4746
vt 3572.31 -2853.33
f 89/243/83 90/244/83 86/240/83

v 90.1395 37.9949 63.3129
vt 3548.8 -2492.64
f 89/243/83 91/245/83 90/244/83

v 90.1394 37.9949 63.3111
vt 3548.79 -2492.56
f 91/245/83 89/243/83 92/246/83

v 111.355 37.9949 61.9234
vt -4215.59 1489.57
vn -0.0652674 -0.00231234 -0.997865
vt -3378.54 1489.57
vt -3980.34 1489.57
f 93/247/84 92/248/84 89/249/84

v 90.1395 37.1849 63.3129
vt -3378.54 1457.68
f 92/248/84 93/247/84 94/250/84

vt -4236.44 1489.57
f 93/247/84 76/251/84 94/250/84

vt 4384.05 -2437.93
v 111.398 37.9949 62.5863
vt 4385.75 -2464.03
f 76/209/83 93/252/83 95/253/83

vt -2717.95 1495.86
vn 0.997882 -3.67024e-10 -0.0650503
v 111.398 43.5129 62.5863
vt -2744.1 1713.11
vt -2744.1 1495.86
f 93/254/85 96/255/85 95/256/85

v 111.355 43.5129 61.9234
vt -2717.95 1713.11
f 96/255/85 93/254/85 97/257/85

vt -4215.59 1713.11
vt -4215.59 1495.86
vt -3980.34 1495.86
f 97/258/73 93/259/73 89/260/73

v 105.392 43.5129 62.3134
vt -3980.34 1713.11
vn -0.0652676 1.48429e-11 -0.997868
f 98/261/86 97/258/86 89/260/86

v 105.419 43.5129 62.6664
vt 4150.35 -2467.18
vn 3.67148e-10 1 -9.57787e-12
f 99/262/87 97/252/87 98/243/87

v 105.439 43.5129 62.976
vt 4151.14 -2479.37
f 97/252/87 99/262/87 100/263/87

v 105.419 37.9949 62.6664
vt 2731.94 1495.86
vn -0.997882 3.67024e-10 0.0650503
vt 2744.15 1713.11
vt 2731.94 1713.11
f 101/264/88 100/265/88 99/266/88

v 105.439 37.9949 62.976
vt 2744.15 1495.86
f 100/265/88 101/264/88 102/267/88

f 101/262/83 88/242/83 102/263/83

f 89/243/83 88/242/83 101/262/83

vt 2771.38 1713.11
vn -0.997186 3.66859e-10 0.0749672
vt 2757.44 1495.86
vt 2771.38 1495.86
f 99/268/89 89/269/89 101/270/89

vt 2757.44 1713.11
f 89/269/89 99/268/89 98/271/89

f 88/242/83 95/253/83 102/263/83

v 111.93 37.9949 70.7495
vt 4406.7 -2785.41
f 95/253/83 88/242/83 103/272/83

vt -3980.26 1495.86
vn -0.0652676 1.48511e-11 -0.997868
v 111.93 43.5129 70.7495
vt -4215.51 1713.11
vt -4215.51 1495.86
f 88/273/90 104/274/90 103/275/90

v 105.968 43.5129 71.1395
vt -3980.26 1713.11
f 104/274/90 88/273/90 105/276/90

vt 3066.22 1495.86
v 105.99 43.5129 71.4769
vt 3079.53 1713.11
vt 3066.22 1713.11
f 88/277/72 106/278/72 105/279/72

vt 3079.53 1495.86
f 106/278/72 88/277/72 87/280/72

vt 3118.96 1495.86
vn -0.997186 3.66792e-10 0.0749672
v 106.016 43.5129 71.8299
vt 3132.9 1713.11
vt 3118.96 1713.11
f 87/281/91 107/282/91 106/283/91

vt 3132.9 1495.86
f 107/282/91 87/281/91 85/284/91

vt 3980.39 1713.11
vn 0.0652676 -1.48427e-11 0.997868
vt 3980.39 1495.86
v 111.975 43.5129 71.4402
vt 4215.5 1713.11
f 107/285/92 85/286/92 108/287/92

vn 0.0652676 -1.48554e-11 0.997868
vt 4215.5 1495.86
f 108/287/93 85/286/93 84/288/93

vt -3066.17 1495.86
vn 0.997882 -3.6699e-10 -0.0650503
vt -3093.42 1713.11
vt -3093.42 1495.86
f 103/289/94 108/290/94 84/291/94

vt -3066.17 1713.11
f 108/290/94 103/289/94 104/292/94

vn 3.6715e-10 1 -9.54909e-12
vt 4408.48 -2812.6
f 104/272/95 107/241/95 108/293/95

f 104/272/95 106/239/95 107/241/95

f 106/239/95 104/272/95 105/242/95

f 75/207/83 103/272/83 84/293/83

f 76/209/83 103/272/83 75/207/83

f 95/253/83 103/272/83 76/209/83

vt 4215.58 1713.11
vn 0.0652676 -1.4847e-11 0.997868
vt 3980.47 1495.86
vt 4215.58 1495.86
f 96/294/96 102/295/96 95/296/96

vt 3980.47 1713.11
f 102/295/96 96/294/96 100/297/96

f 97/252/87 100/263/87 96/253/87

vt -4236.21 1495.86
vn -0.0653533 1.49852e-11 -0.997862
vt -4236.21 1463.97
vt -3378.31 1463.97
f 76/298/97 77/299/97 94/300/97

vt -4404.86 -2436.57
vn -3.6715e-10 -1 9.55504e-12
vt -3573.22 -2867.31
vt -3548.8 -2492.64
f 77/301/98 83/302/98 94/303/98

vt -4429.29 -2811.24
f 83/302/98 77/301/98 82/304/98

vt 2717.95 1339.88
vn -0.997882 3.67029e-10 0.0650503
vt 3093.42 1463.97
vt 2717.95 1463.97
f 78/305/99 82/306/99 77/307/99

vt 3093.42 1339.88
f 82/306/99 78/305/99 81/308/99

vt -4444.5 -2433.98
vn -3.67145e-10 -1 9.55353e-12
f 79/309/100 81/304/100 78/301/100

vt -4468.93 -2808.65
f 81/304/100 79/309/100 80/310/100

v 90.7599 37.9949 72.8297
vt 3093.68 1495.86
vn -0.997882 3.67211e-10 0.0650503
vt 2718.21 1463.97
vt 3093.68 1463.97
f 109/311/101 94/312/101 83/313/101

vt 3079.67 1495.86
f 94/312/101 109/311/101 90/314/101

vn 3.80588e-10 1 -9.91307e-12
vt 3573.22 -2867.31
f 86/240/102 90/244/102 109/315/102

vt 1528.85 1495.86
vn 0.526377 -1.85578e-10 0.850251
vt 1528.85 1463.97
vt 1529.01 1495.86
f 109/316/103 83/317/103 86/318/103

vt 2718.21 1495.86
f 94/312/101 90/314/101 91/319/101

vt 2718.13 1495.86
vn -0.997882 3.67165e-10 0.0650503
f 92/320/104 94/312/104 91/319/104

