# Alias OBJ Model File
# Exported from SketchUp, (c) 2000-2012 Trimble Navigation Limited
# File units = meters

mtllib P19.mtl

g Mesh1 Model

usemtl Color_E02
v 43.7839 84.4559 -32.7959
vt -1158.88 3325.04
vn -0.997209 1.00628e-10 0.0746565
v 40.8006 0.118899 -72.6454
vt -2732.15 4.68108
v 43.7839 0.118899 -32.7959
vt -1158.88 4.68108
f 1/1/1 2/2/1 3/3/1

v 40.8006 84.4559 -72.6454
vt -2732.15 3325.04
f 2/2/1 1/1/1 4/4/1

vt 1723.78 1291.18
vn 9.70551e-11 1 -5.14429e-11
v 57.2545 84.4559 -73.8773
vt 2254.12 2908.55
vt 1606.32 2860.06
f 1/5/2 5/6/2 4/7/2

v 103.621 84.4559 -37.2756
vt 4079.56 1467.54
f 5/6/2 1/5/2 6/8/2

vt 1815.36 4.68108
vn 0.0746565 4.40536e-11 0.997209
vt 4177.74 3325.04
vt 1815.36 3325.04
f 3/9/3 6/10/3 1/11/3

v 103.621 0.118899 -37.2756
vt 4177.74 4.68108
f 6/10/3 3/9/3 7/12/3

vt -1723.78 1291.18
vn -9.70551e-11 -1 5.14427e-11
v 57.2545 0.118899 -73.8773
vt -2254.12 2908.55
vt -4079.56 1467.54
f 3/13/4 8/14/4 7/15/4

vt -1606.32 2860.06
f 8/14/4 3/13/4 2/16/4

vt -1815.36 3325.04
vn -0.0746565 -4.40535e-11 -0.997209
vt -2464.97 4.68108
vt -1815.36 4.68108
f 4/17/5 8/18/5 2/19/5

vt -2464.97 3325.04
f 8/18/5 4/17/5 5/20/5

vn -0.997209 1.00625e-10 0.0746565
v 56.4685 0.118899 -84.3761
vt -3146.65 4.68108
f 5/4/6 9/21/6 8/2/6

v 56.4685 84.4559 -84.3761
vt -3146.65 3325.04
f 9/21/6 5/4/6 10/22/6

v 99.8515 84.4559 -87.624
vt 3931.16 3449.76
vt 2223.17 3321.89
f 11/23/2 10/24/2 5/6/2

vt -4177.74 3325.04
vn -0.0746565 -4.4054e-11 -0.997209
f 11/25/7 9/18/7 10/20/7

v 99.8515 0.118899 -87.624
vt -4177.74 4.68108
f 9/18/7 11/25/7 12/26/7

vt 1158.88 3325.04
vn 0.997209 -1.00619e-10 -0.0746565
vt 3146.65 4.68108
vt 3146.65 3325.04
f 6/27/8 12/28/8 11/29/8

vt 1158.88 4.68108
f 12/28/8 6/27/8 7/30/8

vt -3931.16 3449.76
f 7/15/4 8/14/4 12/31/4

vt -2223.17 3321.89
f 12/31/4 8/14/4 9/32/4

f 5/6/2 6/8/2 11/23/2

