# Alias OBJ Model File
# Exported from SketchUp, (c) 2000-2012 Trimble Navigation Limited
# File units = meters

mtllib P5.mtl

g Mesh1 Model

usemtl Color_E02
v 12.1193 20.4919 110.869
vt 4364.93 806.768
vn -1 0 -0
v 12.1193 17.1779 119.292
vt 4696.53 676.295
v 12.1193 20.4919 119.292
vt 4696.53 806.768
f 1/1/1 2/2/1 3/3/1

v 12.1193 17.1779 110.869
vt 4364.93 676.295
f 2/2/1 1/1/1 4/4/1

vt 477.138 806.768
vn -4.8461e-15 0 1
v -6.94855 17.1779 110.869
vt -273.565 676.295
vt 477.138 676.295
f 1/5/2 5/6/2 4/7/2

v -6.94855 20.4919 110.869
vt -273.565 806.768
f 5/6/2 1/5/2 6/8/2

v 12.1193 20.4919 109.276
vt 477.138 -4302.21
vn 0 1 -0
vt -273.565 -4364.93
vt 477.138 -4364.93
f 7/9/3 6/10/3 1/11/3

v -6.94855 20.4919 109.276
vt -273.565 -4302.21
f 8/12/3 6/10/3 7/9/3

v -6.94855 20.4919 128.913
vt -273.565 -5075.3
f 6/10/3 8/12/3 9/13/3

v -8.6742 20.4919 120.885
vt -341.504 -4759.25
f 10/14/3 9/13/3 8/12/3

v -8.6742 20.4919 128.913
vt -341.504 -5075.3
f 11/15/3 9/13/3 10/14/3

v 13.3461 20.4919 130.139
vt 525.435 -5123.6
f 11/15/3 12/16/3 9/13/3

v -15.9737 20.4919 128.913
vt -628.886 -5075.3
f 13/17/3 12/16/3 11/15/3

v -17.2004 20.4919 130.139
vt -677.183 -5123.6
f 13/17/3 14/18/3 12/16/3

v -17.2004 20.4919 89.9979
vt -677.183 -3543.23
f 14/18/3 13/17/3 15/19/3

v -15.9737 20.4919 120.885
vt -628.886 -4759.25
f 15/19/3 13/17/3 16/20/3

vt -5075.3 806.768
vn 1 0 -1.15107e-14
v -15.9737 17.1779 120.885
vt -4759.25 676.295
vt -4759.25 806.768
f 13/21/4 17/22/4 16/23/4

v -15.9737 17.1779 128.913
vt -5075.3 676.295
f 17/22/4 13/21/4 18/24/4

vt 628.886 806.768
vn 1.26591e-14 0 -1
v -8.6742 17.1779 128.913
vt 341.504 676.295
vt 628.886 676.295
f 13/25/5 19/26/5 18/27/5

vt 341.504 806.768
f 19/26/5 13/25/5 11/28/5

vt 4759.25 806.768
vn -1 0 -4.60427e-14
vt 5075.3 676.295
vt 5075.3 806.768
f 10/29/6 19/30/6 11/31/6

v -8.6742 17.1779 120.885
vt 4759.25 676.295
f 19/30/6 10/29/6 20/32/6

vt -341.504 806.768
vn 0 0 1
vt -628.886 676.295
vt -341.504 676.295
f 10/33/7 17/34/7 20/35/7

vt -628.886 806.768
f 17/34/7 10/33/7 16/36/7

v -15.9737 20.4919 119.292
vt -628.886 -4696.53
f 21/37/3 16/20/3 10/14/3

v -15.9737 20.4919 110.869
vt -628.886 -4364.93
f 16/20/3 21/37/3 22/38/3

vt -4696.53 806.768
vn 1 0 -1.0971e-14
v -15.9737 17.1779 110.869
vt -4364.93 676.295
vt -4364.93 806.768
f 21/39/8 23/40/8 22/41/8

v -15.9737 17.1779 119.292
vt -4696.53 676.295
f 23/40/8 21/39/8 24/42/8

v -8.6742 17.1779 119.292
f 21/25/5 25/26/5 24/27/5

v -8.6742 20.4919 119.292
f 25/26/5 21/25/5 26/28/5

vt -341.504 -4696.53
f 21/37/3 10/14/3 26/43/3

v -8.6742 20.4919 110.869
vt -341.504 -4364.93
f 26/43/3 10/14/3 27/44/3

v -8.6742 20.4919 91.2247
vt -341.504 -3591.52
f 27/44/3 10/14/3 28/45/3

v -6.94855 20.4919 91.2247
vt -273.565 -3591.52
f 29/46/3 28/45/3 10/14/3

v 13.3461 20.4919 89.9979
vt 525.435 -3543.23
f 30/47/3 28/45/3 29/46/3

v -15.9737 20.4919 91.2247
vt -628.886 -3591.52
f 30/47/3 31/48/3 28/45/3

f 31/48/3 30/47/3 15/19/3

v 13.3461 17.1779 89.9979
vt -525.435 676.295
vn -3.02505e-15 0 -1
vt 677.183 806.768
vt -525.435 806.768
f 32/49/9 15/50/9 30/51/9

v -17.2004 17.1779 89.9979
vt 677.183 676.295
f 15/50/9 32/49/9 33/52/9

v -15.9737 17.1779 91.2247
vt 628.886 -3591.52
vn 0 -1 -0
vt 677.183 -3543.23
vt -525.435 -3543.23
f 34/53/10 33/54/10 32/55/10

v -17.2004 17.1779 130.139
vt 677.183 -5123.6
f 33/54/10 34/53/10 35/56/10

vt 628.886 -4759.25
f 17/57/10 35/56/10 34/53/10

vt 628.886 -5075.3
f 18/58/10 35/56/10 17/57/10

v 13.3461 17.1779 130.139
vt -525.435 -5123.6
f 35/56/10 18/58/10 36/59/10

vt 341.504 -5075.3
f 36/59/10 18/58/10 19/60/10

v -6.94855 17.1779 128.913
vt 273.565 -5075.3
f 36/59/10 19/60/10 37/61/10

vt 341.504 -4759.25
f 37/61/10 19/60/10 20/62/10

v -8.55715 17.1779 110.761
vt 336.896 -4360.68
f 37/61/10 20/62/10 38/63/10

vt 341.504 -4696.53
f 25/64/10 38/63/10 20/62/10

v -8.6742 17.1779 110.869
vt 341.504 -4364.93
f 39/65/10 38/63/10 25/64/10

v -8.70994 17.1779 110.545
vt 342.911 -4352.15
f 39/65/10 40/66/10 38/63/10

v -8.80149 17.1779 110.296
vt 346.515 -4342.36
f 39/65/10 41/67/10 40/66/10

v -15.9737 17.1779 109.276
vt 628.886 -4302.21
f 39/65/10 42/68/10 41/67/10

vt 628.886 -4364.93
f 42/68/10 39/65/10 23/69/10

vn 2.53181e-14 0 1
f 27/33/11 23/34/11 39/35/11

f 23/34/11 27/33/11 22/36/11

v -15.9737 20.4919 109.276
vt -628.886 -4302.21
f 43/70/3 22/38/3 27/44/3

v -15.9737 20.4919 99.2603
vt -628.886 -3907.89
f 44/71/3 22/38/3 43/70/3

f 31/48/3 22/38/3 44/71/3

f 22/38/3 31/48/3 16/20/3

f 15/19/3 16/20/3 31/48/3

vt -3907.89 806.768
vn 1 0 -2.29988e-14
vt -3591.52 676.295
vt -3591.52 806.768
f 44/72/12 34/73/12 31/74/12

v -15.9737 17.1779 99.2603
vt -3907.89 676.295
f 34/73/12 44/72/12 45/75/12

vn 1.89886e-14 0 -1
v -8.6742 17.1779 99.2603
f 44/25/13 46/26/13 45/27/13

v -8.6742 20.4919 99.2603
f 46/26/13 44/25/13 47/28/13

v -15.9737 20.4919 100.853
vt -628.886 -3970.61
vt -341.504 -3907.89
f 48/76/3 47/77/3 44/71/3

v -8.6742 20.4919 100.853
vt -341.504 -3970.61
f 47/77/3 48/76/3 49/78/3

v -15.9737 17.1779 100.853
f 50/34/7 49/33/7 48/36/7

v -8.6742 17.1779 100.853
f 49/33/7 50/34/7 51/35/7

vt 628.886 -3970.61
vt 341.504 -3907.89
vt 341.504 -3970.61
f 50/79/10 46/80/10 51/81/10

vt 628.886 -3907.89
f 46/80/10 50/79/10 45/82/10

f 42/68/10 45/82/10 50/79/10

f 23/69/10 45/82/10 42/68/10

f 45/82/10 23/69/10 34/53/10

f 17/57/10 34/53/10 23/69/10

vt 628.886 -4696.53
f 24/83/10 17/57/10 23/69/10

f 17/57/10 24/83/10 20/62/10

f 20/62/10 24/83/10 25/64/10

vt -3970.61 676.295
vt -4302.21 806.768
vt -4302.21 676.295
f 50/84/8 43/85/8 42/86/8

vt -3970.61 806.768
f 43/85/8 50/84/8 48/87/8

f 44/71/3 43/70/3 48/76/3

vn 0 0 -1
v -8.6742 17.1779 109.276
f 43/25/14 52/26/14 42/27/14

v -8.6742 20.4919 109.276
f 52/26/14 43/25/14 53/28/14

vt -341.504 -4302.21
f 43/70/3 27/44/3 53/88/3

f 53/88/3 27/44/3 49/78/3

f 28/45/3 49/78/3 27/44/3

f 47/77/3 49/78/3 28/45/3

vt 3591.52 806.768
vn -1 0 -2.29988e-14
vt 3907.89 676.295
vt 3907.89 806.768
f 28/89/15 46/90/15 47/91/15

v -8.6742 17.1779 91.2247
vt 3591.52 676.295
f 46/90/15 28/89/15 54/92/15

vn -1.89886e-14 0 1
f 28/33/16 34/34/16 54/35/16

f 34/34/16 28/33/16 31/36/16

vt 341.504 -3591.52
f 34/53/10 32/55/10 54/93/10

v -6.94855 17.1779 91.2247
vt 273.565 -3591.52
f 54/93/10 32/55/10 55/94/10

v 12.1193 17.1779 91.2247
vt -477.138 -3591.52
f 55/94/10 32/55/10 56/95/10

v 13.3461 17.1779 119.292
vt -525.435 -4696.53
f 56/95/10 32/55/10 57/96/10

v 13.3461 17.1779 105.164
vt -525.435 -4140.33
f 57/96/10 32/55/10 58/97/10

vt -3543.23 676.295
vn 1 0 -0
v 13.3461 20.4919 105.164
vt -4140.33 806.768
vt -4140.33 676.295
f 32/98/17 59/99/17 58/100/17

vt -3543.23 806.768
f 59/99/17 32/98/17 30/101/17

v 13.3461 20.4919 119.292
vt 525.435 -4696.53
vt 525.435 -4140.33
f 30/47/3 60/102/3 59/103/3

v 12.1193 20.4919 91.2247
vt 477.138 -3591.52
f 30/47/3 61/104/3 60/102/3

f 30/47/3 29/46/3 61/104/3

vn -2.42305e-15 0 1
f 55/6/18 61/5/18 29/8/18

f 61/5/18 55/6/18 56/7/18

v 12.1193 17.1779 99.2603
vn -1 0 -4.59976e-14
f 62/90/19 61/89/19 56/92/19

v 12.1193 20.4919 99.2603
f 61/89/19 62/90/19 63/91/19

vt -477.138 676.295
vn -1.21152e-14 0 -1
v -6.94855 20.4919 99.2603
vt 273.565 806.768
vt -477.138 806.768
f 62/105/20 64/106/20 63/107/20

v -6.94855 17.1779 99.2603
vt 273.565 676.295
f 64/106/20 62/105/20 65/108/20

v -6.94855 17.1779 100.853
vt 273.565 -3970.61
vt 273.565 -3907.89
vt -477.138 -3907.89
f 66/109/10 65/110/10 62/111/10

v -6.94855 17.1779 109.276
vt 273.565 -4302.21
f 65/110/10 66/109/10 67/112/10

vn 1 0 1.0971e-14
f 66/84/21 8/85/21 67/86/21

v -6.94855 20.4919 100.853
f 8/85/21 66/84/21 68/87/21

v 12.1193 20.4919 100.853
f 66/6/2 69/5/2 68/8/2

v 12.1193 17.1779 100.853
f 69/5/2 66/6/2 70/7/2

vt -477.138 -3970.61
f 66/109/10 62/111/10 70/113/10

f 56/95/10 70/113/10 62/111/10

vt -477.138 -4364.93
f 70/113/10 56/95/10 4/114/10

vt -477.138 -4696.53
f 4/114/10 56/95/10 2/115/10

v 12.1193 17.1779 120.885
vt -477.138 -4759.25
f 2/115/10 56/95/10 71/116/10

v 12.1193 17.1779 128.913
vt -477.138 -5075.3
f 71/116/10 56/95/10 72/117/10

f 36/59/10 72/117/10 56/95/10

f 36/59/10 37/61/10 72/117/10

f 9/106/14 72/105/14 37/108/14

v 12.1193 20.4919 128.913
f 72/105/14 9/106/14 73/107/14

vt 477.138 -5075.3
f 9/13/3 12/16/3 73/118/3

v 12.1193 20.4919 120.885
vt 477.138 -4759.25
f 73/118/3 12/16/3 74/119/3

vt 477.138 -4696.53
f 74/119/3 12/16/3 3/120/3

f 3/120/3 12/16/3 1/11/3

vt 477.138 -3970.61
f 1/11/3 12/16/3 69/121/3

f 69/121/3 12/16/3 61/104/3

f 61/104/3 12/16/3 60/102/3

v 13.3461 20.4919 120.885
vt 525.435 -4759.25
f 60/102/3 12/16/3 75/122/3

v 13.3461 20.4919 124.881
vt 525.435 -4916.57
f 75/122/3 12/16/3 76/123/3

vt -5123.6 806.768
v 13.3461 17.1779 124.881
vt -4916.57 676.295
vt -4916.57 806.768
f 12/124/17 77/125/17 76/126/17

vt -5123.6 676.295
f 77/125/17 12/124/17 36/127/17

vt 525.435 806.768
vn 1.51252e-15 0 1
vt -677.183 676.295
vt 525.435 676.295
f 12/128/22 35/129/22 36/130/22

vt -677.183 806.768
f 35/129/22 12/128/22 14/131/22

vt 3543.23 806.768
vt 5123.6 676.295
vt 5123.6 806.768
f 15/132/1 35/133/1 14/134/1

vt 3543.23 676.295
f 35/133/1 15/132/1 33/135/1

v 13.3461 17.1779 120.885
vt -525.435 -4759.25
vt -525.435 -4916.57
f 36/59/10 78/136/10 77/137/10

f 36/59/10 57/96/10 78/136/10

f 36/59/10 56/95/10 57/96/10

vn 1 0 -1.16002e-13
f 57/42/23 75/23/23 78/22/23

f 75/23/23 57/42/23 60/39/23

vn -5.3708e-14 0 1
v 15.0666 20.4919 119.292
vt 593.171 806.768
f 57/130/24 79/138/24 60/128/24

v 13.3461 0.118899 119.292
vt 525.435 4.68108
f 80/139/24 79/138/24 57/130/24

v 15.0666 0.118899 119.292
vt 593.171 4.68108
f 79/138/24 80/139/24 81/140/24

v 13.3461 0.118899 105.164
vt -593.171 -4696.53
f 82/97/10 81/141/10 80/96/10

v 15.0666 0.118899 105.164
vt -593.171 -4140.33
f 81/141/10 82/97/10 83/142/10

vn 2.6854e-14 1.66701e-31 -1
vt -593.171 4.68108
vt -525.435 4.68108
f 58/49/25 83/143/25 82/144/25

v 15.0666 20.4919 105.164
vt -593.171 806.768
f 83/143/25 58/49/25 84/145/25

f 84/145/25 58/49/25 59/51/25

vt 593.171 -4696.53
vt 593.171 -4140.33
f 59/103/3 79/146/3 84/147/3

f 79/146/3 59/103/3 60/102/3

vn 1 0 -1.30816e-14
vt -4140.33 4.68108
f 79/39/26 83/148/26 84/99/26

vt -4696.53 4.68108
f 83/148/26 79/39/26 81/149/26

vt 4696.53 4.68108
vn -1 0 -1.30816e-14
vt 4140.33 676.295
vt 4140.33 4.68108
f 80/150/27 58/151/27 82/152/27

f 58/151/27 80/150/27 57/2/27

v 15.0666 20.4919 120.885
vn 8.0562e-14 -1.11134e-31 -1
f 85/145/28 78/49/28 75/51/28

v 15.0666 0.118899 120.885
f 86/143/28 78/49/28 85/145/28

v 13.3461 0.118899 120.885
f 78/49/28 86/143/28 87/144/28

vt -593.171 -4759.25
v 13.3461 0.118899 124.881
f 86/153/10 88/137/10 87/136/10

v 15.0666 0.118899 124.881
vt -593.171 -4916.57
f 88/137/10 86/153/10 89/154/10

vt -4759.25 4.68108
v 15.0666 20.4919 124.881
vt -4916.57 4.68108
f 86/155/17 90/126/17 89/156/17

f 90/126/17 86/155/17 85/23/17

vt 593.171 -4916.57
vt 593.171 -4759.25
f 75/122/3 90/157/3 85/158/3

f 75/122/3 76/123/3 90/157/3

f 77/130/7 90/138/7 76/128/7

f 88/139/7 90/138/7 77/130/7

f 90/138/7 88/139/7 89/140/7

vt 4916.57 4.68108
vt 4916.57 676.295
f 78/32/1 88/159/1 77/160/1

vt 4759.25 4.68108
f 88/159/1 78/32/1 87/161/1

vt 477.138 -3907.89
f 63/162/3 69/121/3 61/104/3

vt -273.565 -3970.61
f 63/162/3 68/163/3 69/121/3

vt -273.565 -3907.89
f 64/164/3 68/163/3 63/162/3

f 68/163/3 64/164/3 8/12/3

f 64/164/3 10/14/3 8/12/3

f 29/46/3 10/14/3 64/164/3

vn 1 0 3.44982e-14
f 64/72/29 55/73/29 29/74/29

f 55/73/29 64/72/29 65/75/29

v -7.06561 17.1779 109.384
vt 278.174 -4306.46
f 91/165/10 55/94/10 65/110/10

v -7.26922 17.1779 109.215
vt 286.19 -4299.79
f 92/166/10 55/94/10 91/165/10

v -7.50978 17.1779 109.103
vt 295.661 -4295.41
f 93/167/10 55/94/10 92/166/10

v -7.77089 17.1779 109.058
vt 305.941 -4293.64
f 94/168/10 55/94/10 93/167/10

v -8.03476 17.1779 109.083
vt 316.329 -4294.59
f 95/169/10 55/94/10 94/168/10

v -8.28341 17.1779 109.174
vt 326.119 -4298.19
f 96/170/10 55/94/10 95/169/10

v -8.49989 17.1779 109.327
vt 334.641 -4304.21
f 97/171/10 55/94/10 96/170/10

v -8.55174 17.1779 109.389
vt 336.683 -4306.66
f 98/172/10 55/94/10 97/171/10

v -8.66945 17.1779 109.53
vt 341.317 -4312.22
f 99/173/10 55/94/10 98/172/10

f 54/93/10 55/94/10 99/173/10

f 99/173/10 51/81/10 54/93/10

vt 341.504 -4302.21
f 99/173/10 52/174/10 51/81/10

v -8.78053 17.1779 109.771
vt 345.69 -4321.69
f 100/175/10 52/174/10 99/173/10

f 100/175/10 42/68/10 52/174/10

v -8.82557 17.1779 110.032
vt 347.463 -4331.97
f 42/68/10 100/175/10 101/176/10

vt 4317.57 676.295
vn -0.954833 0 -0.297144
v -8.82557 0.118899 110.032
vt 4328 4.68108
vn -0.999204 0 -0.03989
vt 4328 676.295
f 100/177/30 102/178/31 101/179/31

v -8.78053 0.118899 109.771
vt 4317.57 4.68108
f 102/178/31 100/177/30 103/180/30

vt 4058.07 676.295
vn -0.845391 0 -0.534148
vt 4068.5 4.68108
vt 4068.5 676.295
f 99/181/32 103/182/30 100/183/30

v -8.66945 0.118899 109.53
vt 4058.07 4.68108
f 103/182/30 99/181/32 104/184/32

vt 3524.85 676.295
vn -0.768438 0 -0.639924
vt 3532.1 4.68108
vt 3532.1 676.295
f 98/185/33 104/186/32 99/187/32

v -8.55174 0.118899 109.389
vt 3524.85 4.68108
f 104/186/32 98/185/33 105/188/33

vt 3521.66 676.295
vn -0.678337 0 -0.73475
f 97/189/34 105/188/33 98/185/33

v -8.49989 0.118899 109.327
vt 3521.66 4.68108
f 105/188/33 97/189/34 106/190/34

vt 2755.34 676.295
v -8.28341 0.118899 109.174
vt 2744.91 4.68108
vn -0.465056 0 -0.885281
vt 2755.34 4.68108
f 97/191/34 107/192/35 106/193/34

vt 2744.91 676.295
f 107/192/35 97/191/34 96/194/35

vt 1791.17 676.295
v -8.03476 0.118899 109.083
vt 1780.73 4.68108
vn -0.220082 0 -0.975481
vt 1791.17 4.68108
f 96/195/35 108/196/36 107/197/35

vt 1780.73 676.295
f 108/196/36 96/195/35 95/198/36

vt 705.285 676.295
v -7.77089 0.118899 109.058
vt 694.853 4.68108
vn 0.03989 0 -0.999204
vt 705.285 4.68108
f 95/199/36 109/200/37 108/201/36

vt 694.853 676.295
f 109/200/37 95/199/36 94/202/37

vt -428.306 676.295
v -7.50978 0.118899 109.103
vt -438.737 4.68108
vn 0.297144 0 -0.954833
vt -428.306 4.68108
f 94/203/37 110/204/38 109/205/37

vt -438.737 676.295
f 110/204/38 94/203/37 93/206/38

vt -1532.35 676.295
v -7.26922 0.118899 109.215
vt -1542.78 4.68108
vn 0.534148 0 -0.845391
vt -1532.35 4.68108
f 93/207/38 111/208/39 110/209/38

vt -1542.78 676.295
f 111/208/39 93/207/38 92/210/39

vt -2531.62 676.295
v -7.06561 0.118899 109.384
vt -2542.05 4.68108
vn 0.73475 0 -0.678337
vt -2531.62 4.68108
f 92/211/39 112/212/40 111/213/39

vt -2542.05 676.295
f 112/212/40 92/211/39 91/214/40

v -6.91282 17.1779 109.601
vt -3368.43 676.295
vn 0.885281 0 -0.465056
vt -3358 4.68108
vt -3358 676.295
f 113/215/41 112/216/40 91/217/40

v -6.91282 0.118899 109.601
vt -3368.43 4.68108
f 112/216/40 113/215/41 114/218/41

v -6.82127 17.1779 109.849
vt -3965.62 676.295
vn 0.975481 0 -0.220082
vt -3955.18 4.68108
vt -3955.18 676.295
f 115/219/42 114/220/41 113/221/41

v -6.82127 0.118899 109.849
vt -3965.62 4.68108
f 114/220/41 115/219/42 116/222/42

v -6.79719 17.1779 110.113
vt -4292.91 676.295
vn 0.999204 0 0.03989
vt -4282.48 4.68108
vt -4282.48 676.295
f 117/223/43 116/224/42 115/225/42

v -6.79719 0.118899 110.113
vt -4292.91 4.68108
f 116/224/42 117/223/43 118/226/43

v -6.84222 17.1779 110.374
vt -4328 676.295
vn 0.954833 0 0.297144
vt -4317.57 4.68108
vt -4317.57 676.295
f 119/227/44 118/228/43 117/229/43

v -6.84222 0.118899 110.374
vt -4328 4.68108
f 118/228/43 119/227/44 120/230/44

v -6.95331 17.1779 110.615
vt -4068.5 676.295
vn 0.845391 0 0.534148
vt -4058.07 4.68108
vt -4058.07 676.295
f 121/231/45 120/232/44 119/233/44

v -6.95331 0.118899 110.615
vt -4068.5 4.68108
f 120/232/44 121/231/45 122/234/45

v -7.07102 17.1779 110.756
vt -3528.91 676.295
vn 0.768438 0 0.639924
vt -3521.66 4.68108
vt -3521.66 676.295
f 123/235/46 122/236/45 121/237/45

v -7.07102 0.118899 110.756
vt -3528.91 4.68108
f 122/236/45 123/235/46 124/238/46

v -7.12287 17.1779 110.818
vt -3532.1 676.295
vn 0.678337 0 0.73475
f 125/239/47 124/238/46 123/235/46

v -7.12287 0.118899 110.818
vt -3532.1 4.68108
f 124/238/46 125/239/47 126/240/47

vt -2744.91 676.295
v -7.33935 0.118899 110.971
vt -2755.34 4.68108
vn 0.465056 0 0.885281
vt -2744.91 4.68108
f 125/241/47 127/242/48 126/243/47

v -7.33935 17.1779 110.971
vt -2755.34 676.295
f 127/242/48 125/241/47 128/244/48

vt 288.951 -4368.94
vt 280.428 -4362.93
f 37/61/10 128/245/10 125/246/10

v -7.588 17.1779 111.063
vt 298.74 -4372.55
f 37/61/10 129/247/10 128/245/10

v -7.85187 17.1779 111.087
vt 309.129 -4373.5
f 37/61/10 130/248/10 129/247/10

v -8.11298 17.1779 111.042
vt 319.409 -4371.72
f 37/61/10 131/249/10 130/248/10

v -8.35354 17.1779 110.931
vt 328.879 -4367.35
f 37/61/10 132/250/10 131/249/10

f 37/61/10 38/63/10 132/250/10

v -8.55715 0.118899 110.761
vt 2531.62 4.68108
vn -0.73475 0 0.678337
vt 2542.05 676.295
vn -0.534148 0 0.845391
vt 2531.62 676.295
f 133/251/49 132/252/50 38/253/49

v -8.35354 0.118899 110.931
vt 2542.05 4.68108
f 132/252/50 133/251/49 134/254/50

f 133/63/10 105/172/10 134/250/10

f 133/63/10 104/173/10 105/172/10

v -8.70994 0.118899 110.545
f 135/66/10 104/173/10 133/63/10

f 135/66/10 103/175/10 104/173/10

v -8.80149 0.118899 110.296
f 136/67/10 103/175/10 135/66/10

f 103/175/10 136/67/10 102/176/10

vt 4292.91 4.68108
vn -0.975481 0 0.220082
vt 4282.48 676.295
vt 4282.48 4.68108
f 136/255/51 101/256/31 102/257/31

vt 4292.91 676.295
f 101/256/31 136/255/51 41/258/51

vt 3965.62 4.68108
vn -0.885281 0 0.465056
vt 3955.18 676.295
vt 3955.18 4.68108
f 135/259/52 41/260/51 136/261/51

vt 3965.62 676.295
f 41/260/51 135/259/52 40/262/52

vt 3368.43 4.68108
vt 3358 676.295
vt 3358 4.68108
f 133/263/49 40/264/52 135/265/52

vt 3368.43 676.295
f 40/264/52 133/263/49 38/266/49

f 41/67/10 42/68/10 101/176/10

f 134/250/10 105/172/10 106/171/10

f 134/250/10 106/171/10 107/170/10

v -8.11298 0.118899 111.042
f 134/250/10 107/170/10 137/249/10

f 137/249/10 107/170/10 108/169/10

v -7.85187 0.118899 111.087
f 137/249/10 108/169/10 138/248/10

f 138/248/10 108/169/10 109/168/10

v -7.588 0.118899 111.063
f 138/248/10 109/168/10 139/247/10

f 139/247/10 109/168/10 110/167/10

f 139/247/10 110/167/10 127/245/10

f 127/245/10 110/167/10 111/166/10

f 127/245/10 111/166/10 126/246/10

f 126/246/10 111/166/10 112/165/10

vt 278.387 -4360.48
f 126/246/10 112/165/10 124/267/10

vt 273.752 -4354.91
f 124/267/10 112/165/10 122/268/10

vt 272.158 -4314.98
f 122/268/10 112/165/10 114/269/10

vt 269.379 -4345.44
f 122/268/10 114/269/10 120/270/10

vt 268.554 -4324.77
f 120/270/10 114/269/10 116/271/10

vt 267.606 -4335.16
f 120/270/10 116/271/10 118/272/10

vt -1780.73 676.295
vt -1791.17 4.68108
vn 0.220082 0 0.975481
vt -1780.73 4.68108
f 128/273/48 139/274/53 127/275/48

vt -1791.17 676.295
f 139/274/53 128/273/48 129/276/53

vt -694.853 676.295
vt -705.285 4.68108
vn -0.03989 0 0.999204
vt -694.853 4.68108
f 129/277/53 138/278/54 139/279/53

vt -705.285 676.295
f 138/278/54 129/277/53 130/280/54

vt 438.737 676.295
vt 428.306 4.68108
vn -0.297144 0 0.954833
vt 438.737 4.68108
f 130/281/54 137/282/55 138/283/54

vt 428.306 676.295
f 137/282/55 130/281/54 131/284/55

vt 1542.78 676.295
vt 1532.35 4.68108
vt 1542.78 4.68108
f 131/285/55 134/286/50 137/287/55

vt 1532.35 676.295
f 134/286/50 131/285/55 132/288/50

f 37/61/10 125/246/10 123/267/10

f 37/61/10 123/267/10 121/268/10

vt 273.565 -4364.93
f 37/61/10 121/268/10 5/289/10

f 119/270/10 5/289/10 121/268/10

f 5/289/10 119/270/10 4/114/10

f 4/114/10 119/270/10 117/272/10

v 12.1193 17.1779 109.276
vt -477.138 -4302.21
f 4/114/10 117/272/10 140/290/10

f 115/271/10 140/290/10 117/272/10

f 113/269/10 140/290/10 115/271/10

f 113/269/10 67/112/10 140/290/10

f 91/165/10 67/112/10 113/269/10

f 67/112/10 91/165/10 65/110/10

f 8/106/14 140/105/14 67/108/14

f 140/105/14 8/106/14 7/107/14

vt 3970.61 806.768
vn -1 0 -2.19421e-14
vt 4302.21 676.295
vt 4302.21 806.768
f 69/291/56 140/292/56 7/293/56

vt 3970.61 676.295
f 140/292/56 69/291/56 70/294/56

f 4/114/10 140/290/10 70/113/10

f 7/9/3 1/11/3 69/121/3

v -6.94855 17.1779 120.885
vt 273.565 -4759.25
f 37/61/10 5/289/10 141/295/10

v -6.94855 17.1779 119.292
vt 273.565 -4696.53
f 142/296/10 141/295/10 5/289/10

f 141/295/10 142/296/10 71/116/10

f 71/116/10 142/296/10 2/115/10

v -6.94855 20.4919 119.292
vn 2.42305e-15 0 -1
f 143/106/57 2/105/57 142/108/57

f 2/105/57 143/106/57 3/107/57

vt -273.565 -4696.53
f 143/297/3 74/119/3 3/120/3

v -6.94855 20.4919 120.885
vt -273.565 -4759.25
f 143/297/3 144/298/3 74/119/3

f 144/298/3 143/297/3 6/10/3

vn 1 0 -2.19421e-14
f 143/39/58 5/40/58 6/41/58

f 5/40/58 143/39/58 142/42/58

f 6/10/3 9/13/3 144/298/3

f 9/21/17 141/22/17 144/23/17

f 141/22/17 9/21/17 37/24/17

vn -7.26914e-15 0 1
f 141/6/59 74/5/59 144/8/59

f 74/5/59 141/6/59 71/7/59

f 72/30/1 74/29/1 71/32/1

f 74/29/1 72/30/1 73/31/1

vn -1 0 -1.0971e-14
f 52/292/60 49/291/60 51/294/60

f 49/291/60 52/292/60 53/293/60

f 51/81/10 46/80/10 54/93/10

f 25/2/1 27/1/1 39/4/1

f 27/1/1 25/2/1 26/3/1

