# Alias OBJ Model File
# Exported from SketchUp, (c) 2000-2012 Trimble Navigation Limited
# File units = meters

mtllib P8.mtl

g Mesh1 Model

usemtl Color_E02
v -5.38803 0.118899 60.9513
vt 212.127 -2399.66
vn 0 -1 -0
v -6.94364 0.118899 64.878
vt 273.372 -2554.25
v -7.16453 0.118899 61.054
vt 282.068 -2403.7
f 1/1/1 2/2/1 3/3/1

v -5.16714 0.118899 64.7754
vt 203.431 -2550.21
f 2/2/1 1/1/1 4/4/1

vt -2383.43 4.68108
vn 0.998336 0 -0.0576675
v -5.16714 60.4341 64.7754
vt -2534.24 2379.29
vt -2534.24 4.68108
f 1/5/2 5/6/2 4/7/2

v -5.38803 60.4341 60.9513
vt -2383.43 2379.29
f 5/6/2 1/5/2 6/8/2

vt 350.157 4.68108
vn -0.0576675 0 -0.998336
v -7.16453 60.4341 61.054
vt 420.214 2379.29
vt 350.157 2379.29
f 1/9/3 7/10/3 6/11/3

vt 420.214 4.68108
f 7/10/3 1/9/3 3/12/3

vt 2534.24 4.68108
vn -0.998336 0 0.0576675
vt 2383.43 2379.29
vt 2383.43 4.68108
f 2/13/4 7/14/4 3/15/4

v -6.94364 60.4341 64.878
vt 2534.24 2379.29
f 7/14/4 2/13/4 8/16/4

vt -420.214 4.68108
vn 0.0576675 0 0.998336
vt -350.157 2379.29
vt -420.214 2379.29
f 2/17/5 5/18/5 8/19/5

vt -350.157 4.68108
f 5/18/5 2/17/5 4/20/5

vt -212.127 -2399.66
vn 0 1 -0
vt -273.372 -2554.25
vt -203.431 -2550.21
f 6/21/6 8/22/6 5/23/6

vt -282.068 -2403.7
f 8/22/6 6/21/6 7/24/6

