# Alias OBJ Model File
# Exported from SketchUp, (c) 2000-2012 Trimble Navigation Limited
# File units = meters

mtllib P9.mtl

g Mesh1 Model

usemtl Color_E02
v 13.2224 0.118899 -36.9194
vt -520.569 1453.52
vn 0 -1 -0
v -2.00055 0.118899 -36.9194
vt 78.762 1453.52
v 13.2224 0.118899 -39.3909
vt -520.569 1550.82
f 1/1/1 2/2/1 3/3/1

v 13.2224 8.1189 -36.9194
vt 520.569 319.642
vn 1.80169e-10 0 1
vt -78.762 4.68108
vt 520.569 4.68108
f 4/4/2 2/5/2 1/6/2

v -2.00055 8.1189 -36.9194
vt -78.762 319.642
f 2/5/2 4/4/2 5/7/2

v 8.17395 8.1189 -39.3909
vt 321.809 1550.82
vn 0 1 -0
vt -78.762 1453.52
vt 520.569 1453.52
f 6/8/3 5/9/3 4/10/3

v 8.17395 8.1189 -40.1304
vt 321.809 1579.94
f 7/11/3 5/9/3 6/8/3

v -2.00055 8.1189 -39.3909
vt -78.762 1550.82
f 7/11/3 8/12/3 5/9/3

v -2.00055 8.1189 -40.1304
vt -78.762 1579.94
f 8/12/3 7/11/3 9/13/3

v 8.17395 22.1495 -40.1304
vt 321.809 872.027
vn 1.80216e-10 -1.90894e-15 1
vt 321.809 319.642
f 10/14/4 9/7/4 7/15/4

v -2.00055 29.378 -40.1304
vt -78.762 1156.61
f 9/7/4 10/14/4 11/16/4

v 8.17395 29.378 -40.1304
vt 321.809 1156.61
f 11/16/4 10/14/4 12/17/4

vt -1579.94 319.642
vn -1 7.63574e-15 1.78032e-10
vt -1579.94 1156.61
vt -1579.94 872.027
f 7/18/5 12/19/5 10/20/5

vt -1550.82 319.642
f 6/21/5 12/19/5 7/18/5

v 8.17395 29.378 -39.3909
vt -1550.82 1156.61
f 12/19/5 6/21/5 13/22/5

vn 1.80191e-10 7.77594e-17 1
v 19.7547 30.3109 -39.3909
vt 777.743 1193.34
f 6/15/6 14/23/6 13/17/6

v 13.2224 8.1189 -39.3909
f 15/4/6 14/23/6 6/15/6

f 3/6/6 14/23/6 15/4/6

v 19.7547 0.118899 -39.3909
vt 777.743 4.68108
f 14/23/6 3/6/6 16/24/6

v 19.7547 0.118899 -43.4614
vt -777.743 1711.08
vt -777.743 1550.82
f 3/3/1 17/25/1 16/26/1

f 2/2/1 17/25/1 3/3/1

v -2.00055 0.118899 -39.3909
vt 78.762 1550.82
f 18/27/1 17/25/1 2/2/1

v -26.7358 0.118899 -39.3909
vt 1052.59 1550.82
f 19/28/1 17/25/1 18/27/1

v -26.7358 0.118899 -43.4614
vt 1052.59 1711.08
f 17/25/1 19/28/1 20/29/1

vt -1550.82 4.68108
vn -1 0 1.80564e-10
v -26.7358 27.8961 -43.4614
vt -1711.08 1098.27
vt -1711.08 4.68108
f 19/30/7 21/31/7 20/32/7

v -26.7358 27.8961 -39.3909
vt -1550.82 1098.27
f 21/31/7 19/30/7 22/33/7

vt -1052.59 4.68108
vt -1052.59 1098.27
f 19/34/6 8/7/6 22/35/6

f 8/7/6 19/34/6 18/5/6

vt -1453.52 4.68108
vn -1 0 1.80211e-10
f 2/36/8 8/21/8 18/30/8

vt -1453.52 319.642
f 8/21/8 2/36/8 5/37/8

v -2.00055 29.378 -39.3909
f 22/35/6 8/7/6 23/16/6

vt 1579.94 319.642
vn 1 2.13808e-28 -1.77937e-10
vt 1550.82 1156.61
vt 1550.82 319.642
f 9/38/9 23/39/9 8/40/9

vt 1579.94 1156.61
f 23/39/9 9/38/9 11/41/9

vt -321.809 1579.94
vn -1.40726e-24 -1 -7.80972e-15
vt 78.762 1579.94
f 12/42/10 23/27/10 11/43/10

vt -321.809 1550.82
f 23/27/10 12/42/10 13/44/10

f 13/17/6 14/23/6 23/16/6

v -36.6163 30.3109 -39.3909
vt -1441.59 1193.34
f 24/45/6 23/16/6 14/23/6

v -29.1958 27.8961 -39.3909
vt -1149.44 1098.27
f 24/45/6 25/46/6 23/16/6

v -36.6163 0.118899 -39.3909
vt -1441.59 4.68108
f 26/47/6 25/46/6 24/45/6

v -29.1958 0.118899 -39.3909
vt -1149.44 4.68108
f 25/46/6 26/47/6 27/48/6

vt 1441.59 1550.82
v -29.1958 0.118899 -43.4614
vt 1149.44 1711.08
vt 1149.44 1550.82
f 26/49/1 28/50/1 27/51/1

v -36.6163 0.118899 -43.4614
vt 1441.59 1711.08
f 28/50/1 26/49/1 29/52/1

v -36.6163 30.3109 -43.4614
vt -1711.08 1193.34
f 26/30/7 30/53/7 29/32/7

vt -1550.82 1193.34
f 30/53/7 26/30/7 24/54/7

vt -1441.59 1550.82
v -15.2037 30.3109 -43.4614
vt -598.57 1711.08
vt -1441.59 1711.08
f 24/55/3 31/56/3 30/57/3

v -15.2037 30.3109 -41.2524
vt -598.57 1624.11
f 31/56/3 24/55/3 32/58/3

vt 777.743 1550.82
f 32/58/3 24/55/3 14/59/3

v 11.0188 30.3109 -41.2524
vt 433.812 1624.11
f 32/58/3 14/59/3 33/60/3

v 19.7547 30.3109 -43.4614
vt 777.743 1711.08
f 33/60/3 14/59/3 34/61/3

vt 1550.82 1193.34
vn 1 0 -1.80201e-10
vt 1711.08 4.68108
vt 1711.08 1193.34
f 14/62/11 17/63/11 34/64/11

vt 1550.82 4.68108
f 17/63/11 14/62/11 16/65/11

vt -777.743 4.68108
vn -1.80187e-10 -4.30027e-17 -1
v 11.0188 3.1189 -43.4614
vt -433.812 122.791
vt -777.743 1193.34
f 17/66/12 35/67/12 34/68/12

v -15.2037 3.1189 -43.4614
vt 598.57 122.791
f 35/67/12 17/66/12 36/69/12

vt 1052.59 4.68108
f 20/70/12 36/69/12 17/66/12

vt 1052.59 1098.27
f 36/69/12 20/70/12 21/71/12

vt 598.57 1193.34
f 36/69/12 21/71/12 31/72/12

vt 1441.59 1193.34
f 31/72/12 21/71/12 30/73/12

v -29.1958 27.8961 -43.4614
vt 1149.44 1098.27
f 37/74/12 30/73/12 21/71/12

vt 1149.44 4.68108
f 28/75/12 30/73/12 37/74/12

vt 1441.59 4.68108
f 30/73/12 28/75/12 29/76/12

vt 1550.82 1098.27
vn 1 0 -1.80564e-10
vt 1711.08 1098.27
f 25/77/13 28/63/13 37/78/13

f 28/63/13 25/77/13 27/65/13

f 21/29/1 25/51/1 37/50/1

f 25/51/1 21/29/1 22/28/1

f 22/35/6 23/16/6 25/46/6

vt 1624.11 1193.34
vn 1 0 -1.8071e-10
vt 1711.08 122.791
f 32/79/14 36/80/14 31/64/14

v -15.2037 3.1189 -41.2524
vt 1624.11 122.791
f 36/80/14 32/79/14 38/81/14

vn -1.8019e-10 0 -1
v 11.0188 3.1189 -41.2524
f 32/72/15 39/67/15 38/69/15

vt -433.812 1193.34
f 39/67/15 32/72/15 33/82/15

v 11.0188 30.3109 -43.4614
vn -1 0 1.80124e-10
vt -1624.11 122.791
vt -1624.11 1193.34
f 40/53/16 39/83/16 33/84/16

vt -1711.08 122.791
f 39/83/16 40/53/16 35/85/16

f 34/68/12 35/67/12 40/82/12

vt 433.812 1711.08
f 34/61/3 40/86/3 33/60/3

f 35/86/3 38/58/3 39/60/3

f 38/58/3 35/86/3 36/56/3

vt 1453.52 319.642
vn 1 0 -1.80136e-10
f 4/87/17 3/65/17 15/40/17

vt 1453.52 4.68108
f 3/65/17 4/87/17 1/88/17

vt 520.569 1550.82
f 6/8/3 4/10/3 15/89/3

